%TF.GenerationSoftware,KiCad,Pcbnew,9.0.6*%
%TF.CreationDate,2026-05-15T21:14:02-04:00*%
%TF.ProjectId,mfo,6d666f2e-6b69-4636-9164-5f7063625858,rev?*%
%TF.SameCoordinates,Original*%
%TF.FileFunction,Copper,L1,Top*%
%TF.FilePolarity,Positive*%
%FSLAX46Y46*%
G04 Gerber Fmt 4.6, Leading zero omitted, Abs format (unit mm)*
G04 Created by KiCad (PCBNEW 9.0.6) date 2026-05-15 21:14:02*
%MOMM*%
%LPD*%
G01*
G04 APERTURE LIST*
G04 Aperture macros list*
%AMRoundRect*
0 Rectangle with rounded corners*
0 $1 Rounding radius*
0 $2 $3 $4 $5 $6 $7 $8 $9 X,Y pos of 4 corners*
0 Add a 4 corners polygon primitive as box body*
4,1,4,$2,$3,$4,$5,$6,$7,$8,$9,$2,$3,0*
0 Add four circle primitives for the rounded corners*
1,1,$1+$1,$2,$3*
1,1,$1+$1,$4,$5*
1,1,$1+$1,$6,$7*
1,1,$1+$1,$8,$9*
0 Add four rect primitives between the rounded corners*
20,1,$1+$1,$2,$3,$4,$5,0*
20,1,$1+$1,$4,$5,$6,$7,0*
20,1,$1+$1,$6,$7,$8,$9,0*
20,1,$1+$1,$8,$9,$2,$3,0*%
%AMFreePoly0*
4,1,33,0.217714,0.717705,0.353548,0.661441,0.475795,0.579758,0.579758,0.475795,0.661441,0.353548,0.717705,0.217714,0.746389,0.073513,0.746389,-0.073513,0.717705,-0.217714,0.661441,-0.353548,0.579758,-0.475795,0.475795,-0.579758,0.353548,-0.661441,0.217714,-0.717705,0.073513,-0.746389,-0.073513,-0.746389,-0.217714,-0.717705,-0.353548,-0.661441,-0.475795,-0.579758,-0.579758,-0.475795,
-0.661441,-0.353548,-0.717705,-0.217714,-0.746389,-0.073513,-0.746389,0.073513,-0.717705,0.217714,-0.661441,0.353548,-0.579758,0.475795,-0.475795,0.579758,-0.353548,0.661441,-0.217714,0.717705,-0.073513,0.746389,0.073513,0.746389,0.217714,0.717705,0.217714,0.717705,$1*%
G04 Aperture macros list end*
%TA.AperFunction,SMDPad,CuDef*%
%ADD10R,0.800000X0.750000*%
%TD*%
%TA.AperFunction,SMDPad,CuDef*%
%ADD11R,0.500000X0.900000*%
%TD*%
%TA.AperFunction,SMDPad,CuDef*%
%ADD12R,0.900000X0.500000*%
%TD*%
%TA.AperFunction,SMDPad,CuDef*%
%ADD13RoundRect,0.150000X-0.512500X-0.150000X0.512500X-0.150000X0.512500X0.150000X-0.512500X0.150000X0*%
%TD*%
%TA.AperFunction,SMDPad,CuDef*%
%ADD14R,1.500000X0.450000*%
%TD*%
%TA.AperFunction,SMDPad,CuDef*%
%ADD15R,4.500000X2.000000*%
%TD*%
%TA.AperFunction,ComponentPad*%
%ADD16C,1.500000*%
%TD*%
%TA.AperFunction,ComponentPad*%
%ADD17R,1.350000X1.350000*%
%TD*%
%TA.AperFunction,ComponentPad*%
%ADD18O,1.350000X1.350000*%
%TD*%
%TA.AperFunction,SMDPad,CuDef*%
%ADD19O,1.500000X1.500000*%
%TD*%
%TA.AperFunction,SMDPad,CuDef*%
%ADD20R,1.500000X1.500000*%
%TD*%
%TA.AperFunction,SMDPad,CuDef*%
%ADD21FreePoly0,0.000000*%
%TD*%
%TA.AperFunction,SMDPad,CuDef*%
%ADD22R,0.750000X0.800000*%
%TD*%
%TA.AperFunction,ViaPad*%
%ADD23C,0.600000*%
%TD*%
%TA.AperFunction,Conductor*%
%ADD24C,0.250000*%
%TD*%
%TA.AperFunction,Conductor*%
%ADD25C,0.500000*%
%TD*%
%TA.AperFunction,Conductor*%
%ADD26C,0.200000*%
%TD*%
G04 APERTURE END LIST*
D10*
%TO.P,C1,1*%
%TO.N,+3V3*%
X143400000Y-99275000D03*
%TO.P,C1,2*%
%TO.N,GND*%
X141900000Y-99275000D03*
%TD*%
%TO.P,C2,1*%
%TO.N,+1V8*%
X141850000Y-95900000D03*
%TO.P,C2,2*%
%TO.N,GND*%
X143350000Y-95900000D03*
%TD*%
%TO.P,C3,1*%
%TO.N,+3V3*%
X139100000Y-90450000D03*
%TO.P,C3,2*%
%TO.N,GND*%
X140600000Y-90450000D03*
%TD*%
D11*
%TO.P,R1,1*%
%TO.N,Net-(J1-Pin_1)*%
X138950000Y-89050000D03*
%TO.P,R1,2*%
%TO.N,Net-(U2-S0)*%
X140450000Y-89050000D03*
%TD*%
%TO.P,R2,1*%
%TO.N,GND*%
X143350000Y-94375000D03*
%TO.P,R2,2*%
%TO.N,Net-(U2-S0)*%
X141850000Y-94375000D03*
%TD*%
%TO.P,R3,1*%
%TO.N,Net-(J5-Pin_1)*%
X154300000Y-97075000D03*
%TO.P,R3,2*%
%TO.N,Net-(U2-Y2)*%
X152800000Y-97075000D03*
%TD*%
D12*
%TO.P,R4,1*%
%TO.N,Net-(J6-Pin_1)*%
X153225000Y-100025000D03*
%TO.P,R4,2*%
%TO.N,Net-(U2-Y3)*%
X153225000Y-98525000D03*
%TD*%
D13*
%TO.P,U1,1,IN*%
%TO.N,+3V3*%
X137462500Y-91900000D03*
%TO.P,U1,2,GND*%
%TO.N,GND*%
X137462500Y-92850000D03*
%TO.P,U1,3,EN*%
%TO.N,+3V3*%
X137462500Y-93800000D03*
%TO.P,U1,4,GND*%
%TO.N,GND*%
X139737500Y-93800000D03*
%TO.P,U1,5,OUT*%
%TO.N,+1V8*%
X139737500Y-91900000D03*
%TD*%
D14*
%TO.P,U2,1,XIN/CLK*%
%TO.N,Net-(U2-XIN{slash}CLK)*%
X145275000Y-94575000D03*
%TO.P,U2,2,S0*%
%TO.N,Net-(U2-S0)*%
X145275000Y-95225000D03*
%TO.P,U2,3,VDD*%
%TO.N,+1V8*%
X145275000Y-95875000D03*
%TO.P,U2,4,VCTRL*%
%TO.N,unconnected-(U2-VCTRL-Pad4)*%
X145275000Y-96525000D03*
%TO.P,U2,5,GND_1*%
%TO.N,GND*%
X145275000Y-97175000D03*
%TO.P,U2,6,VDDOUT_1*%
%TO.N,+3V3*%
X145275000Y-97825000D03*
%TO.P,U2,7,Y4*%
%TO.N,Net-(U2-Y2)*%
X145275000Y-98475000D03*
%TO.P,U2,8,Y5*%
%TO.N,Net-(U2-Y3)*%
X145275000Y-99125000D03*
%TO.P,U2,9,VDDOUT_2*%
%TO.N,+3V3*%
X151175000Y-99125000D03*
%TO.P,U2,10,Y3*%
%TO.N,Net-(U2-Y3)*%
X151175000Y-98475000D03*
%TO.P,U2,11,Y2*%
%TO.N,Net-(U2-Y2)*%
X151175000Y-97825000D03*
%TO.P,U2,12,GND_2*%
%TO.N,GND*%
X151175000Y-97175000D03*
%TO.P,U2,13,Y1*%
%TO.N,unconnected-(U2-Y1-Pad13)*%
X151175000Y-96525000D03*
%TO.P,U2,14,SCL/S2*%
%TO.N,SCL*%
X151175000Y-95875000D03*
%TO.P,U2,15,SDA/S1*%
%TO.N,SDA*%
X151175000Y-95225000D03*
%TO.P,U2,16,XOUT*%
%TO.N,Net-(U2-XOUT)*%
X151175000Y-94575000D03*
%TD*%
D15*
%TO.P,Y1,1,1*%
%TO.N,Net-(U2-XIN{slash}CLK)*%
X143950000Y-91075000D03*
D16*
X145750000Y-91075000D03*
%TO.P,Y1,2,2*%
%TO.N,Net-(U2-XOUT)*%
X150650000Y-91075000D03*
D15*
X152450000Y-91075000D03*
%TD*%
D17*
%TO.P,J2,1,Pin_1*%
%TO.N,GND*%
X143000000Y-101600000D03*
D18*
%TO.P,J2,2,Pin_2*%
%TO.N,+3V3*%
X145000000Y-101600000D03*
%TO.P,J2,3,Pin_3*%
%TO.N,SDA*%
X147000000Y-101600000D03*
%TO.P,J2,4,Pin_4*%
%TO.N,SCL*%
X149000000Y-101600000D03*
%TD*%
D19*
%TO.P,J1,1,Pin_1*%
%TO.N,Net-(J1-Pin_1)*%
X137450000Y-90100000D03*
%TD*%
%TO.P,J3,1,Pin_1*%
%TO.N,+3V3*%
X140000000Y-102075000D03*
%TD*%
D20*
%TO.P,J4,1,Pin_1*%
%TO.N,GND*%
X137500000Y-102075000D03*
%TD*%
D19*
%TO.P,J5,1,Pin_1*%
%TO.N,Net-(J5-Pin_1)*%
X153750000Y-94975000D03*
%TD*%
D21*
%TO.P,J6,1,Pin_1*%
%TO.N,Net-(J6-Pin_1)*%
X153750000Y-102100000D03*
%TD*%
D22*
%TO.P,C4,1*%
%TO.N,+3V3*%
X151175000Y-100600000D03*
%TO.P,C4,2*%
%TO.N,GND*%
X151175000Y-102100000D03*
%TD*%
D13*
%TO.P,U3,1,IN*%
%TO.N,+5V*%
X137462500Y-95300000D03*
%TO.P,U3,2,GND*%
%TO.N,GND*%
X137462500Y-96250000D03*
%TO.P,U3,3,EN*%
%TO.N,+5V*%
X137462500Y-97200000D03*
%TO.P,U3,4,NC*%
%TO.N,unconnected-(U3-NC-Pad4)*%
X139737500Y-97200000D03*
%TO.P,U3,5,OUT*%
%TO.N,+3V3*%
X139737500Y-95300000D03*
%TD*%
D22*
%TO.P,C5,1*%
%TO.N,+5V*%
X140000000Y-98650000D03*
%TO.P,C5,2*%
%TO.N,GND*%
X140000000Y-100150000D03*
%TD*%
D19*
%TO.P,J7,1,Pin_1*%
%TO.N,+5V*%
X137500000Y-99500000D03*
%TD*%
D10*
%TO.P,C6,1*%
%TO.N,+3V3*%
X141650000Y-97300000D03*
%TO.P,C6,2*%
%TO.N,GND*%
X143150000Y-97300000D03*
%TD*%
D23*
%TO.N,GND*%
X143100000Y-95200000D03*
X138100000Y-101125000D03*
X139350000Y-93300000D03*
X147250000Y-95850000D03*
X150125000Y-97175000D03*
X150275000Y-102125000D03*
X140000002Y-90350000D03*
%TO.N,SDA*%
X149650000Y-95225000D03*
%TO.N,SCL*%
X149650000Y-96275000D03*
%TD*%
D24*
%TO.N,GND*%
X137127500Y-96225000D02*
X137152500Y-96250000D01*
X150300000Y-102100000D02*
X150275000Y-102125000D01*
X137975000Y-101125000D02*
X137500000Y-101600000D01*
X151175000Y-97175000D02*
X150125000Y-97175000D01*
X137350000Y-101600000D02*
X137350000Y-102075000D01*
X139835000Y-93800000D02*
X139835000Y-93785000D01*
X137950000Y-101125000D02*
X137825000Y-101125000D01*
X143100000Y-95650000D02*
X143350000Y-95900000D01*
X151175000Y-102100000D02*
X150300000Y-102100000D01*
X143350000Y-94375000D02*
X143350000Y-95900000D01*
X139835000Y-93785000D02*
X139350000Y-93300000D01*
X143575000Y-95875000D02*
X143550000Y-95900000D01*
%TO.N,+3V3*%
X144175000Y-100050000D02*
X143400000Y-99275000D01*
X138700000Y-92747678D02*
X138426161Y-92473839D01*
D25*
X138576000Y-92826751D02*
X138576000Y-93348999D01*
X138124999Y-93800000D02*
X137462500Y-93800000D01*
D24*
X142351000Y-98001000D02*
X144100000Y-98001000D01*
X137650000Y-91900000D02*
X139100000Y-90450000D01*
D25*
X137462500Y-91900000D02*
X137800000Y-91900000D01*
X137616363Y-93800000D02*
X139116363Y-95300000D01*
X138576000Y-93348999D02*
X138124999Y-93800000D01*
X143975000Y-98126000D02*
X144100000Y-98001000D01*
X145000000Y-100875000D02*
X145000000Y-101600000D01*
D24*
X143400000Y-99050000D02*
X142351000Y-98001000D01*
X138691845Y-92808155D02*
X138700000Y-92800000D01*
X138426161Y-92473839D02*
X137852322Y-91900000D01*
D25*
X141650000Y-97525000D02*
X142237500Y-98112500D01*
X143400000Y-99275000D02*
X145000000Y-100875000D01*
D24*
X137950000Y-91900000D02*
X138700000Y-92650000D01*
X151175000Y-100425000D02*
X151175000Y-99125000D01*
X138700000Y-92800000D02*
X138700000Y-92747678D01*
X139050000Y-90650000D02*
X139050000Y-90600000D01*
X137852322Y-91900000D02*
X137462500Y-91900000D01*
X141650000Y-97300000D02*
X142351000Y-98001000D01*
X144103379Y-97825000D02*
X144400000Y-97825000D01*
D25*
X151175000Y-100600000D02*
X151175000Y-99151000D01*
X139737500Y-95300000D02*
X139737500Y-95387500D01*
D24*
X138700000Y-92650000D02*
X138700000Y-92747678D01*
X137462500Y-91900000D02*
X137650000Y-91900000D01*
D25*
X142237500Y-98112500D02*
X142251000Y-98126000D01*
D24*
X143400000Y-99275000D02*
X143400000Y-99450000D01*
X137800000Y-91900000D02*
X138050000Y-91650000D01*
D25*
X142201000Y-100474000D02*
X141601000Y-100474000D01*
D24*
X138594596Y-92808155D02*
X138691845Y-92808155D01*
D25*
X142251000Y-98126000D02*
X143975000Y-98126000D01*
X139737500Y-95387500D02*
X141650000Y-97300000D01*
D24*
X143974167Y-97954212D02*
X144103379Y-97825000D01*
D25*
X141601000Y-100474000D02*
X140000000Y-102075000D01*
X139100000Y-90600000D02*
X139100000Y-90450000D01*
X144175000Y-100050000D02*
X149800000Y-100050000D01*
D24*
X143400000Y-99275000D02*
X143400000Y-99050000D01*
X138451000Y-92498678D02*
X138451000Y-92850000D01*
X144100000Y-98001000D02*
X144224000Y-98001000D01*
D25*
X141650000Y-97300000D02*
X141650000Y-97525000D01*
D24*
X144400000Y-97825000D02*
X145275000Y-97825000D01*
D25*
X149800000Y-100050000D02*
X150350000Y-100600000D01*
D24*
X137462500Y-91900000D02*
X137950000Y-91900000D01*
X144175000Y-100050000D02*
X145000000Y-100875000D01*
D25*
X139116363Y-95300000D02*
X139737500Y-95300000D01*
X143400000Y-99275000D02*
X142201000Y-100474000D01*
X150350000Y-100600000D02*
X151175000Y-100600000D01*
X142237500Y-98112500D02*
X143400000Y-99275000D01*
D24*
X144224000Y-98001000D02*
X144400000Y-97825000D01*
X138050000Y-91650000D02*
X139050000Y-90650000D01*
D25*
X137462500Y-93800000D02*
X137616363Y-93800000D01*
D24*
X138426161Y-92473839D02*
X138451000Y-92498678D01*
%TO.N,+1V8*%
X144076000Y-96274000D02*
X144076000Y-96424000D01*
X144475000Y-95875000D02*
X145275000Y-95875000D01*
X144076000Y-96274000D02*
X144475000Y-95875000D01*
X141050000Y-95100000D02*
X141850000Y-95900000D01*
X141050000Y-93100000D02*
X141050000Y-95100000D01*
X139850000Y-91900000D02*
X141050000Y-93100000D01*
X144076000Y-96424000D02*
X143900000Y-96600000D01*
X139675000Y-91900000D02*
X139850000Y-91900000D01*
X141850000Y-95900000D02*
X142550000Y-96600000D01*
X142550000Y-96600000D02*
X143900000Y-96600000D01*
D26*
%TO.N,Net-(J1-Pin_1)*%
X137375000Y-90125000D02*
X137350000Y-90125000D01*
X138950000Y-89050000D02*
X138450000Y-89050000D01*
X138450000Y-89050000D02*
X137375000Y-90125000D01*
D24*
%TO.N,SDA*%
X149650000Y-95225000D02*
X151175000Y-95225000D01*
%TO.N,SCL*%
X149650000Y-96275000D02*
X150050000Y-95875000D01*
X150050000Y-95875000D02*
X151175000Y-95875000D01*
%TO.N,Net-(J5-Pin_1)*%
X154400000Y-97075000D02*
X154350000Y-97025000D01*
X153750000Y-95050000D02*
X153750000Y-94975000D01*
X154350000Y-95650000D02*
X153750000Y-95050000D01*
X154350000Y-97025000D02*
X154350000Y-95650000D01*
%TO.N,Net-(J6-Pin_1)*%
X153225000Y-101300000D02*
X154025000Y-102100000D01*
X153225000Y-100025000D02*
X153225000Y-101300000D01*
D26*
%TO.N,Net-(U2-S0)*%
X141850000Y-92650000D02*
X141850000Y-94375000D01*
D24*
X144298000Y-95225000D02*
X144000000Y-94927000D01*
X143700000Y-93500000D02*
X142775000Y-93500000D01*
X144000000Y-94927000D02*
X144000000Y-93800000D01*
X144000000Y-93800000D02*
X143700000Y-93500000D01*
D26*
X140450000Y-89050000D02*
X141350000Y-89950000D01*
D24*
X145275000Y-95225000D02*
X144298000Y-95225000D01*
D26*
X141350000Y-92150000D02*
X141850000Y-92650000D01*
X141350000Y-89950000D02*
X141350000Y-92150000D01*
D24*
X142775000Y-93500000D02*
X141900000Y-94375000D01*
%TO.N,Net-(U2-Y2)*%
X148675000Y-98475000D02*
X149325000Y-97825000D01*
X149325000Y-97825000D02*
X151175000Y-97825000D01*
X151175000Y-97825000D02*
X152275000Y-97825000D01*
X145275000Y-98475000D02*
X148675000Y-98475000D01*
X152800000Y-97300000D02*
X152800000Y-97075000D01*
X152275000Y-97825000D02*
X152800000Y-97300000D01*
%TO.N,Net-(U2-Y3)*%
X149200000Y-99125000D02*
X149850000Y-98475000D01*
X149850000Y-98475000D02*
X151175000Y-98475000D01*
X153175000Y-98475000D02*
X153225000Y-98525000D01*
X151175000Y-98475000D02*
X153175000Y-98475000D01*
X145275000Y-99125000D02*
X149200000Y-99125000D01*
%TO.N,Net-(U2-XIN{slash}CLK)*%
X145275000Y-92400000D02*
X143950000Y-91075000D01*
X145275000Y-94575000D02*
X145275000Y-92400000D01*
%TO.N,Net-(U2-XOUT)*%
X151175000Y-92350000D02*
X152450000Y-91075000D01*
X151175000Y-94575000D02*
X151175000Y-92350000D01*
D25*
%TO.N,+5V*%
X138576000Y-95751001D02*
X138576000Y-96748999D01*
X140000000Y-98650000D02*
X138912500Y-98650000D01*
X138576000Y-96748999D02*
X138124999Y-97200000D01*
X137462500Y-97200000D02*
X137462500Y-99387500D01*
X138124999Y-97200000D02*
X137462500Y-97200000D01*
X138912500Y-98650000D02*
X137462500Y-97200000D01*
D24*
X137350000Y-97312500D02*
X137462500Y-97200000D01*
D25*
X138124999Y-95300000D02*
X137462500Y-95300000D01*
X138576000Y-95751001D02*
X138124999Y-95300000D01*
%TD*%
%TA.AperFunction,Conductor*%
%TO.N,GND*%
G36*
X138495278Y-88489852D02*
G01*
X138509630Y-88524500D01*
X138508688Y-88534059D01*
X138499500Y-88580246D01*
X138499500Y-88700500D01*
X138485148Y-88735148D01*
X138450500Y-88749500D01*
X138410435Y-88749500D01*
X138334013Y-88769977D01*
X138334010Y-88769978D01*
X138265488Y-88809540D01*
X138265487Y-88809541D01*
X137864776Y-89210251D01*
X137830128Y-89224603D01*
X137811378Y-89220873D01*
X137727251Y-89186027D01*
X137543616Y-89149500D01*
X137356384Y-89149500D01*
X137264986Y-89167680D01*
X137172751Y-89186026D01*
X137172741Y-89186029D01*
X136999774Y-89257675D01*
X136999770Y-89257677D01*
X136999769Y-89257678D01*
X136960195Y-89284120D01*
X136844092Y-89361697D01*
X136711697Y-89494092D01*
X136607675Y-89649774D01*
X136536029Y-89822741D01*
X136536026Y-89822751D01*
X136517680Y-89914986D01*
X136499500Y-90006384D01*
X136499500Y-90193616D01*
X136505743Y-90225000D01*
X136536026Y-90377248D01*
X136536029Y-90377258D01*
X136607675Y-90550225D01*
X136607676Y-90550227D01*
X136607678Y-90550231D01*
X136711698Y-90705908D01*
X136844092Y-90838302D01*
X136999769Y-90942322D01*
X136999774Y-90942324D01*
X137172741Y-91013970D01*
X137172743Y-91013970D01*
X137172749Y-91013973D01*
X137356384Y-91050500D01*
X137356387Y-91050500D01*
X137543613Y-91050500D01*
X137543616Y-91050500D01*
X137727251Y-91013973D01*
X137900231Y-90942322D01*
X138055908Y-90838302D01*
X138188302Y-90705908D01*
X138292322Y-90550231D01*
X138363973Y-90377251D01*
X138400500Y-90193616D01*
X138400500Y-90006384D01*
X138363973Y-89822749D01*
X138299836Y-89667909D01*
X138299836Y-89630408D01*
X138310455Y-89614514D01*
X138419037Y-89505933D01*
X138453684Y-89491582D01*
X138488332Y-89505934D01*
X138501742Y-89531022D01*
X138511132Y-89578229D01*
X138555447Y-89644552D01*
X138582012Y-89662301D01*
X138621769Y-89688867D01*
X138680252Y-89700500D01*
X138680255Y-89700500D01*
X139219745Y-89700500D01*
X139219748Y-89700500D01*
X139278231Y-89688867D01*
X139344552Y-89644552D01*
X139388867Y-89578231D01*
X139400500Y-89519748D01*
X139400500Y-88580252D01*
X139400499Y-88580246D01*
X139391312Y-88534059D01*
X139398628Y-88497277D01*
X139429811Y-88476442D01*
X139439370Y-88475500D01*
X139960630Y-88475500D01*
X139995278Y-88489852D01*
X140009630Y-88524500D01*
X140008688Y-88534059D01*
X139999500Y-88580246D01*
X139999500Y-88580252D01*
X139999500Y-89519748D01*
X140011133Y-89578231D01*
X140028882Y-89604795D01*
X140055447Y-89644552D01*
X140082012Y-89662301D01*
X140121769Y-89688867D01*
X140180252Y-89700500D01*
X140655233Y-89700500D01*
X140689881Y-89714852D01*
X140810648Y-89835619D01*
X140825000Y-89870267D01*
X140825000Y-91025000D01*
X141000500Y-91025000D01*
X141035148Y-91039352D01*
X141049500Y-91074000D01*
X141049500Y-92189563D01*
X141069979Y-92265989D01*
X141069979Y-92265991D01*
X141101045Y-92319798D01*
X141101046Y-92319799D01*
X141109540Y-92334511D01*
X141109542Y-92334513D01*
X141535148Y-92760119D01*
X141549500Y-92794767D01*
X141549500Y-93691905D01*
X141535148Y-93726553D01*
X141527540Y-93732769D01*
X141522751Y-93735937D01*
X141521769Y-93736133D01*
X141455448Y-93780448D01*
X141455419Y-93780491D01*
X141451540Y-93783058D01*
X141433171Y-93786625D01*
X141414941Y-93790252D01*
X141414842Y-93790186D01*
X141414725Y-93790209D01*
X141399193Y-93779730D01*
X141383758Y-93769417D01*
X141383719Y-93769290D01*
X141383636Y-93769234D01*
X141383517Y-93768624D01*
X141375500Y-93742194D01*
X141375500Y-93057144D01*
X141354988Y-92980594D01*
X141354987Y-92980590D01*
X141354987Y-92980591D01*
X141353318Y-92974362D01*
X141353318Y-92974361D01*
X141310465Y-92900138D01*
X140604288Y-92193961D01*
X140589936Y-92159313D01*
X140590448Y-92152248D01*
X140590572Y-92151394D01*
X140590573Y-92151393D01*
X140600500Y-92083260D01*
X140600500Y-91716740D01*
X140590573Y-91648607D01*
X140539198Y-91543517D01*
X140456483Y-91460802D01*
X140403938Y-91435114D01*
X140351396Y-91409428D01*
X140351394Y-91409427D01*
X140283262Y-91399500D01*
X140283260Y-91399500D01*
X139191740Y-91399500D01*
X139191738Y-91399500D01*
X139123605Y-91409427D01*
X139123603Y-91409428D01*
X139018519Y-91460801D01*
X139018515Y-91460803D01*
X138935803Y-91543515D01*
X138935801Y-91543519D01*
X138884428Y-91648603D01*
X138884427Y-91648605D01*
X138874500Y-91716738D01*
X138874500Y-92083261D01*
X138884427Y-92151394D01*
X138884428Y-92151396D01*
X138903087Y-92189563D01*
X138935802Y-92256483D01*
X139018517Y-92339198D01*
X139123607Y-92390573D01*
X139171884Y-92397606D01*
X139191738Y-92400500D01*
X139191740Y-92400500D01*
X139869877Y-92400500D01*
X139904525Y-92414852D01*
X140710148Y-93220475D01*
X140724500Y-93255123D01*
X140724500Y-95142856D01*
X140746681Y-95225637D01*
X140746682Y-95225640D01*
X140789535Y-95299862D01*
X141235148Y-95745475D01*
X141249500Y-95780123D01*
X141249500Y-96144101D01*
X141235148Y-96178749D01*
X141200500Y-96193101D01*
X141165852Y-96178749D01*
X140598211Y-95611108D01*
X140583859Y-95576460D01*
X140588841Y-95554935D01*
X140590573Y-95551393D01*
X140599237Y-95491925D01*
X140600500Y-95483261D01*
X140600500Y-95116738D01*
X140597606Y-95096884D01*
X140590573Y-95048607D01*
X140539198Y-94943517D01*
X140456483Y-94860802D01*
X140403938Y-94835114D01*
X140351396Y-94809428D01*
X140351394Y-94809427D01*
X140283262Y-94799500D01*
X140283260Y-94799500D01*
X139273262Y-94799500D01*
X139238614Y-94785148D01*
X138542432Y-94088966D01*
X138528080Y-94054318D01*
X138540224Y-94025001D01*
X138881087Y-94025001D01*
X138884911Y-94051247D01*
X138884911Y-94051249D01*
X138936212Y-94156186D01*
X138936215Y-94156190D01*
X139018809Y-94238784D01*
X139018813Y-94238786D01*
X139123751Y-94290087D01*
X139191779Y-94299999D01*
X139512499Y-94299999D01*
X139962500Y-94299999D01*
X140283221Y-94299999D01*
X140351248Y-94290088D01*
X140351249Y-94290088D01*
X140456186Y-94238787D01*
X140456190Y-94238784D01*
X140538784Y-94156190D01*
X140538787Y-94156186D01*
X140590088Y-94051249D01*
X140590088Y-94051247D01*
X140593912Y-94025001D01*
X140593911Y-94025000D01*
X139962500Y-94025000D01*
X139962500Y-94299999D01*
X139512499Y-94299999D01*
X139512500Y-94299998D01*
X139512500Y-94025000D01*
X138881089Y-94025000D01*
X138881087Y-94025001D01*
X138540224Y-94025001D01*
X138542432Y-94019670D01*
X138715333Y-93846769D01*
X138936490Y-93625613D01*
X138951566Y-93599500D01*
X138981318Y-93576670D01*
X138994001Y-93575000D01*
X139512500Y-93575000D01*
X139962500Y-93575000D01*
X140593911Y-93575000D01*
X140593912Y-93574998D01*
X140590088Y-93548752D01*
X140590088Y-93548750D01*
X140538787Y-93443813D01*
X140538784Y-93443809D01*
X140456190Y-93361215D01*
X140456186Y-93361213D01*
X140351248Y-93309912D01*
X140283221Y-93300000D01*
X139962500Y-93300000D01*
X139962500Y-93575000D01*
X139512500Y-93575000D01*
X139512500Y-93300000D01*
X139191778Y-93300000D01*
X139123751Y-93309911D01*
X139123750Y-93309911D01*
X139097021Y-93322979D01*
X139059590Y-93325303D01*
X139031479Y-93300479D01*
X139026500Y-93278958D01*
X139026500Y-92767441D01*
X139026081Y-92764258D01*
X139026414Y-92764214D01*
X139025500Y-92757259D01*
X139025500Y-92607144D01*
X139009603Y-92547817D01*
X139003318Y-92524361D01*
X139003317Y-92524359D01*
X138960464Y-92450137D01*
X138369974Y-91859647D01*
X138355622Y-91824999D01*
X138369974Y-91790351D01*
X139095474Y-91064852D01*
X139130122Y-91050500D01*
X139159311Y-91050500D01*
X139246377Y-91027170D01*
X139259060Y-91025500D01*
X139519745Y-91025500D01*
X139519748Y-91025500D01*
X139578231Y-91013867D01*
X139644552Y-90969552D01*
X139688867Y-90903231D01*
X139700500Y-90844748D01*
X139700500Y-90844694D01*
X140000000Y-90844694D01*
X140011604Y-90903036D01*
X140055807Y-90969192D01*
X140121963Y-91013395D01*
X140180305Y-91025000D01*
X140375000Y-91025000D01*
X140375000Y-90675000D01*
X140000000Y-90675000D01*
X140000000Y-90844694D01*
X139700500Y-90844694D01*
X139700500Y-90055305D01*
X140000000Y-90055305D01*
X140000000Y-90225000D01*
X140375000Y-90225000D01*
X140375000Y-89875000D01*
X140180305Y-89875000D01*
X140121963Y-89886604D01*
X140055807Y-89930807D01*
X140011604Y-89996963D01*
X140000000Y-90055305D01*
X139700500Y-90055305D01*
X139700500Y-90055252D01*
X139688867Y-89996769D01*
X139662301Y-89957012D01*
X139644552Y-89930447D01*
X139604795Y-89903882D01*
X139578231Y-89886133D01*
X139519748Y-89874500D01*
X138680252Y-89874500D01*
X138621769Y-89886133D01*
X138555447Y-89930447D01*
X138511133Y-89996769D01*
X138499500Y-90055252D01*
X138499500Y-90055255D01*
X138499500Y-90569877D01*
X138485148Y-90604525D01*
X137704525Y-91385148D01*
X137669877Y-91399500D01*
X136916738Y-91399500D01*
X136848605Y-91409427D01*
X136848603Y-91409428D01*
X136743519Y-91460801D01*
X136743515Y-91460803D01*
X136660803Y-91543515D01*
X136660801Y-91543519D01*
X136609428Y-91648603D01*
X136609427Y-91648605D01*
X136599500Y-91716738D01*
X136599500Y-92083261D01*
X136609427Y-92151394D01*
X136609428Y-92151396D01*
X136628087Y-92189563D01*
X136660802Y-92256483D01*
X136660803Y-92256484D01*
X136745024Y-92340705D01*
X136759376Y-92375353D01*
X136745024Y-92410001D01*
X136661215Y-92493809D01*
X136661212Y-92493813D01*
X136609911Y-92598750D01*
X136609911Y-92598752D01*
X136606087Y-92624998D01*
X136606089Y-92625000D01*
X137413500Y-92625000D01*
X137448148Y-92639352D01*
X137462500Y-92674000D01*
X137462500Y-93026000D01*
X137448148Y-93060648D01*
X137413500Y-93075000D01*
X136606089Y-93075000D01*
X136606087Y-93075001D01*
X136609911Y-93101247D01*
X136609911Y-93101249D01*
X136661212Y-93206186D01*
X136661215Y-93206190D01*
X136745024Y-93289999D01*
X136759376Y-93324647D01*
X136745024Y-93359295D01*
X136660803Y-93443515D01*
X136660801Y-93443519D01*
X136609428Y-93548603D01*
X136609427Y-93548605D01*
X136599500Y-93616738D01*
X136599500Y-93983261D01*
X136609427Y-94051394D01*
X136609428Y-94051396D01*
X136627795Y-94088966D01*
X136660802Y-94156483D01*
X136743517Y-94239198D01*
X136848607Y-94290573D01*
X136896884Y-94297606D01*
X136916738Y-94300500D01*
X136916740Y-94300500D01*
X137459464Y-94300500D01*
X137494112Y-94314852D01*
X137895112Y-94715852D01*
X137909464Y-94750500D01*
X137895112Y-94785148D01*
X137860464Y-94799500D01*
X136916738Y-94799500D01*
X136848605Y-94809427D01*
X136848603Y-94809428D01*
X136743519Y-94860801D01*
X136743515Y-94860803D01*
X136660803Y-94943515D01*
X136660801Y-94943519D01*
X136609428Y-95048603D01*
X136609427Y-95048605D01*
X136599500Y-95116738D01*
X136599500Y-95483261D01*
X136609427Y-95551394D01*
X136609428Y-95551396D01*
X136623855Y-95580907D01*
X136660802Y-95656483D01*
X136660803Y-95656484D01*
X136745024Y-95740705D01*
X136759376Y-95775353D01*
X136745024Y-95810001D01*
X136661215Y-95893809D01*
X136661212Y-95893813D01*
X136609911Y-95998750D01*
X136609911Y-95998752D01*
X136606087Y-96024998D01*
X136606089Y-96025000D01*
X137413500Y-96025000D01*
X137448148Y-96039352D01*
X137462500Y-96074000D01*
X137462500Y-96426000D01*
X137448148Y-96460648D01*
X137413500Y-96475000D01*
X136606089Y-96475000D01*
X136606087Y-96475001D01*
X136609911Y-96501247D01*
X136609911Y-96501249D01*
X136661212Y-96606186D01*
X136661215Y-96606190D01*
X136745024Y-96689999D01*
X136759376Y-96724647D01*
X136745024Y-96759295D01*
X136660803Y-96843515D01*
X136660801Y-96843519D01*
X136609428Y-96948603D01*
X136609427Y-96948605D01*
X136599500Y-97016738D01*
X136599500Y-97383261D01*
X136609427Y-97451394D01*
X136609428Y-97451396D01*
X136631528Y-97496601D01*
X136660802Y-97556483D01*
X136743517Y-97639198D01*
X136848607Y-97690573D01*
X136896884Y-97697606D01*
X136916738Y-97700500D01*
X136916740Y-97700500D01*
X136963000Y-97700500D01*
X136997648Y-97714852D01*
X137012000Y-97749500D01*
X137012000Y-98656722D01*
X136997648Y-98691370D01*
X136990223Y-98697464D01*
X136894094Y-98761695D01*
X136761697Y-98894092D01*
X136657675Y-99049774D01*
X136586029Y-99222741D01*
X136586026Y-99222751D01*
X136568742Y-99309648D01*
X136549500Y-99406384D01*
X136549500Y-99593616D01*
X136564633Y-99669694D01*
X136586026Y-99777248D01*
X136586029Y-99777258D01*
X136657675Y-99950225D01*
X136657676Y-99950227D01*
X136657678Y-99950231D01*
X136761698Y-100105908D01*
X136894092Y-100238302D01*
X137049769Y-100342322D01*
X137049774Y-100342324D01*
X137222741Y-100413970D01*
X137222743Y-100413970D01*
X137222749Y-100413973D01*
X137406384Y-100450500D01*
X137406387Y-100450500D01*
X137593613Y-100450500D01*
X137593616Y-100450500D01*
X137777251Y-100413973D01*
X137950231Y-100342322D01*
X138105908Y-100238302D01*
X138238302Y-100105908D01*
X138342322Y-99950231D01*
X138413973Y-99777251D01*
X138423311Y-99730305D01*
X139425000Y-99730305D01*
X139425000Y-99925000D01*
X139775000Y-99925000D01*
X140225000Y-99925000D01*
X140575000Y-99925000D01*
X140575000Y-99730305D01*
X140563395Y-99671963D01*
X140561879Y-99669694D01*
X141300000Y-99669694D01*
X141311604Y-99728036D01*
X141355807Y-99794192D01*
X141421963Y-99838395D01*
X141480305Y-99850000D01*
X141675000Y-99850000D01*
X141675000Y-99500000D01*
X141300000Y-99500000D01*
X141300000Y-99669694D01*
X140561879Y-99669694D01*
X140519192Y-99605807D01*
X140453036Y-99561604D01*
X140394695Y-99550000D01*
X140225000Y-99550000D01*
X140225000Y-99925000D01*
X139775000Y-99925000D01*
X139775000Y-99550000D01*
X139605305Y-99550000D01*
X139546963Y-99561604D01*
X139480807Y-99605807D01*
X139436604Y-99671963D01*
X139425000Y-99730305D01*
X138423311Y-99730305D01*
X138450500Y-99593616D01*
X138450500Y-99406384D01*
X138413973Y-99222749D01*
X138412047Y-99218100D01*
X138350596Y-99069744D01*
X138342322Y-99049769D01*
X138238302Y-98894092D01*
X138105908Y-98761698D01*
X138097091Y-98755807D01*
X137950231Y-98657678D01*
X137943247Y-98654785D01*
X137916729Y-98628265D01*
X137913000Y-98609515D01*
X137913000Y-98405899D01*
X137927352Y-98371251D01*
X137962000Y-98356899D01*
X137996647Y-98371250D01*
X138635886Y-99010490D01*
X138738613Y-99069799D01*
X138758539Y-99075138D01*
X138790089Y-99083592D01*
X138853189Y-99100500D01*
X138853191Y-99100500D01*
X139391906Y-99100500D01*
X139426554Y-99114852D01*
X139433009Y-99124513D01*
X139433452Y-99124218D01*
X139480447Y-99194552D01*
X139507012Y-99212301D01*
X139546769Y-99238867D01*
X139605252Y-99250500D01*
X139605255Y-99250500D01*
X140394745Y-99250500D01*
X140394748Y-99250500D01*
X140453231Y-99238867D01*
X140519552Y-99194552D01*
X140563867Y-99128231D01*
X140575500Y-99069748D01*
X140575500Y-98880305D01*
X141300000Y-98880305D01*
X141300000Y-99050000D01*
X141675000Y-99050000D01*
X141675000Y-98700000D01*
X141480305Y-98700000D01*
X141421963Y-98711604D01*
X141355807Y-98755807D01*
X141311604Y-98821963D01*
X141300000Y-98880305D01*
X140575500Y-98880305D01*
X140575500Y-98230252D01*
X140563867Y-98171769D01*
X140536255Y-98130445D01*
X140519552Y-98105447D01*
X140460293Y-98065852D01*
X140453231Y-98061133D01*
X140394748Y-98049500D01*
X139605252Y-98049500D01*
X139546769Y-98061133D01*
X139480447Y-98105447D01*
X139433452Y-98175782D01*
X139431769Y-98174657D01*
X139410657Y-98195770D01*
X139391906Y-98199500D01*
X139119400Y-98199500D01*
X139084752Y-98185148D01*
X138789456Y-97889852D01*
X138465499Y-97565896D01*
X138451148Y-97531249D01*
X138465500Y-97496601D01*
X138639850Y-97322251D01*
X138790853Y-97171248D01*
X138825500Y-97156897D01*
X138860148Y-97171249D01*
X138874500Y-97205897D01*
X138874500Y-97383261D01*
X138884427Y-97451394D01*
X138884428Y-97451396D01*
X138906528Y-97496601D01*
X138935802Y-97556483D01*
X139018517Y-97639198D01*
X139123607Y-97690573D01*
X139171884Y-97697606D01*
X139191738Y-97700500D01*
X139191740Y-97700500D01*
X140283262Y-97700500D01*
X140300590Y-97697974D01*
X140351393Y-97690573D01*
X140456483Y-97639198D01*
X140539198Y-97556483D01*
X140590573Y-97451393D01*
X140600500Y-97383260D01*
X140600500Y-97016740D01*
X140599769Y-97011724D01*
X140608971Y-96975369D01*
X140641185Y-96956168D01*
X140677542Y-96965370D01*
X140682904Y-96970007D01*
X141035148Y-97322251D01*
X141049500Y-97356899D01*
X141049500Y-97694748D01*
X141061133Y-97753231D01*
X141078882Y-97779795D01*
X141105447Y-97819552D01*
X141132012Y-97837301D01*
X141171769Y-97863867D01*
X141230252Y-97875500D01*
X141343101Y-97875500D01*
X141377749Y-97889852D01*
X142121800Y-98633903D01*
X142136152Y-98668551D01*
X142125000Y-98695476D01*
X142125000Y-99050000D01*
X142517601Y-99050000D01*
X142552249Y-99064352D01*
X142728249Y-99240352D01*
X142742601Y-99275000D01*
X142728249Y-99309648D01*
X142552249Y-99485648D01*
X142517601Y-99500000D01*
X142125000Y-99500000D01*
X142125000Y-99854525D01*
X142136152Y-99881448D01*
X142121800Y-99916096D01*
X142028749Y-100009148D01*
X141994101Y-100023500D01*
X141541688Y-100023500D01*
X141451326Y-100047713D01*
X141427115Y-100054199D01*
X141427110Y-100054201D01*
X141324385Y-100113511D01*
X141324384Y-100113512D01*
X140295453Y-101142442D01*
X140260805Y-101156794D01*
X140251246Y-101155853D01*
X140167246Y-101139145D01*
X140093616Y-101124500D01*
X139906384Y-101124500D01*
X139816183Y-101142442D01*
X139722751Y-101161026D01*
X139722741Y-101161029D01*
X139549774Y-101232675D01*
X139549770Y-101232677D01*
X139549769Y-101232678D01*
X139530583Y-101245498D01*
X139394092Y-101336697D01*
X139261697Y-101469092D01*
X139157675Y-101624774D01*
X139086029Y-101797741D01*
X139086026Y-101797751D01*
X139070661Y-101875000D01*
X139049500Y-101981384D01*
X139049500Y-102168616D01*
X139073740Y-102290479D01*
X139086026Y-102352248D01*
X139086029Y-102352258D01*
X139157675Y-102525225D01*
X139157676Y-102525227D01*
X139157678Y-102525231D01*
X139261698Y-102680908D01*
X139394092Y-102813302D01*
X139549769Y-102917322D01*
X139549774Y-102917324D01*
X139722741Y-102988970D01*
X139722743Y-102988970D01*
X139722749Y-102988973D01*
X139906384Y-103025500D01*
X139906387Y-103025500D01*
X140093613Y-103025500D01*
X140093616Y-103025500D01*
X140277251Y-102988973D01*
X140450231Y-102917322D01*
X140605908Y-102813302D01*
X140738302Y-102680908D01*
X140842322Y-102525231D01*
X140844616Y-102519694D01*
X150600000Y-102519694D01*
X150611604Y-102578036D01*
X150655807Y-102644192D01*
X150721963Y-102688395D01*
X150780305Y-102700000D01*
X150950000Y-102700000D01*
X151400000Y-102700000D01*
X151569695Y-102700000D01*
X151628036Y-102688395D01*
X151694192Y-102644192D01*
X151738395Y-102578036D01*
X151750000Y-102519694D01*
X151750000Y-102325000D01*
X151400000Y-102325000D01*
X151400000Y-102700000D01*
X150950000Y-102700000D01*
X150950000Y-102325000D01*
X150600000Y-102325000D01*
X150600000Y-102519694D01*
X140844616Y-102519694D01*
X140913973Y-102352251D01*
X140950500Y-102168616D01*
X140950500Y-101981384D01*
X140919145Y-101823752D01*
X140920124Y-101818831D01*
X140918203Y-101814194D01*
X140923672Y-101800988D01*
X140926461Y-101786971D01*
X140932550Y-101779551D01*
X141773251Y-100938852D01*
X141807899Y-100924500D01*
X142076000Y-100924500D01*
X142110648Y-100938852D01*
X142125000Y-100973500D01*
X142125000Y-101375000D01*
X142668023Y-101375000D01*
X142627259Y-101445606D01*
X142600000Y-101547339D01*
X142600000Y-101652661D01*
X142627259Y-101754394D01*
X142668023Y-101825000D01*
X142125000Y-101825000D01*
X142125000Y-102294694D01*
X142136604Y-102353036D01*
X142180807Y-102419192D01*
X142246963Y-102463395D01*
X142305305Y-102475000D01*
X142775000Y-102475000D01*
X142775000Y-101931976D01*
X142845606Y-101972741D01*
X142947339Y-102000000D01*
X143052661Y-102000000D01*
X143154394Y-101972741D01*
X143225000Y-101931976D01*
X143225000Y-102475000D01*
X143694695Y-102475000D01*
X143753036Y-102463395D01*
X143819192Y-102419192D01*
X143863395Y-102353036D01*
X143875000Y-102294694D01*
X143875000Y-101825000D01*
X143331977Y-101825000D01*
X143372741Y-101754394D01*
X143400000Y-101652661D01*
X143400000Y-101547339D01*
X143372741Y-101445606D01*
X143331977Y-101375000D01*
X143875000Y-101375000D01*
X143875000Y-100905305D01*
X143863395Y-100846963D01*
X143819192Y-100780807D01*
X143753036Y-100736604D01*
X143694695Y-100725000D01*
X143225000Y-100725000D01*
X143225000Y-101268023D01*
X143154394Y-101227259D01*
X143052661Y-101200000D01*
X142947339Y-101200000D01*
X142845606Y-101227259D01*
X142775000Y-101268023D01*
X142775000Y-100725000D01*
X142705399Y-100725000D01*
X142670751Y-100710648D01*
X142656399Y-100676000D01*
X142670751Y-100641352D01*
X143365351Y-99946751D01*
X143399999Y-99932399D01*
X143434647Y-99946751D01*
X144390228Y-100902331D01*
X144404580Y-100936979D01*
X144390228Y-100971627D01*
X144319954Y-101041900D01*
X144224140Y-101185298D01*
X144158145Y-101344624D01*
X144158142Y-101344635D01*
X144124500Y-101513765D01*
X144124500Y-101686234D01*
X144158142Y-101855364D01*
X144158145Y-101855375D01*
X144218051Y-102000000D01*
X144224142Y-102014705D01*
X144319955Y-102158099D01*
X144441901Y-102280045D01*
X144585295Y-102375858D01*
X144744626Y-102441855D01*
X144744632Y-102441856D01*
X144744635Y-102441857D01*
X144913765Y-102475499D01*
X144913768Y-102475499D01*
X144913771Y-102475500D01*
X144913772Y-102475500D01*
X145086228Y-102475500D01*
X145086229Y-102475500D01*
X145255374Y-102441855D01*
X145414705Y-102375858D01*
X145558099Y-102280045D01*
X145680045Y-102158099D01*
X145775858Y-102014705D01*
X145841855Y-101855374D01*
X145875500Y-101686229D01*
X145875500Y-101513771D01*
X145875499Y-101513765D01*
X146124500Y-101513765D01*
X146124500Y-101686234D01*
X146158142Y-101855364D01*
X146158145Y-101855375D01*
X146218051Y-102000000D01*
X146224142Y-102014705D01*
X146319955Y-102158099D01*
X146441901Y-102280045D01*
X146585295Y-102375858D01*
X146744626Y-102441855D01*
X146744632Y-102441856D01*
X146744635Y-102441857D01*
X146913765Y-102475499D01*
X146913768Y-102475499D01*
X146913771Y-102475500D01*
X146913772Y-102475500D01*
X147086228Y-102475500D01*
X147086229Y-102475500D01*
X147255374Y-102441855D01*
X147414705Y-102375858D01*
X147558099Y-102280045D01*
X147680045Y-102158099D01*
X147775858Y-102014705D01*
X147841855Y-101855374D01*
X147875500Y-101686229D01*
X147875500Y-101513771D01*
X147875499Y-101513765D01*
X148124500Y-101513765D01*
X148124500Y-101686234D01*
X148158142Y-101855364D01*
X148158145Y-101855375D01*
X148218051Y-102000000D01*
X148224142Y-102014705D01*
X148319955Y-102158099D01*
X148441901Y-102280045D01*
X148585295Y-102375858D01*
X148744626Y-102441855D01*
X148744632Y-102441856D01*
X148744635Y-102441857D01*
X148913765Y-102475499D01*
X148913768Y-102475499D01*
X148913771Y-102475500D01*
X148913772Y-102475500D01*
X149086228Y-102475500D01*
X149086229Y-102475500D01*
X149255374Y-102441855D01*
X149414705Y-102375858D01*
X149558099Y-102280045D01*
X149680045Y-102158099D01*
X149775858Y-102014705D01*
X149841855Y-101855374D01*
X149875500Y-101686229D01*
X149875500Y-101680305D01*
X150600000Y-101680305D01*
X150600000Y-101875000D01*
X150950000Y-101875000D01*
X151400000Y-101875000D01*
X151750000Y-101875000D01*
X151750000Y-101680305D01*
X151738395Y-101621963D01*
X151694192Y-101555807D01*
X151628036Y-101511604D01*
X151569695Y-101500000D01*
X151400000Y-101500000D01*
X151400000Y-101875000D01*
X150950000Y-101875000D01*
X150950000Y-101500000D01*
X150780305Y-101500000D01*
X150721963Y-101511604D01*
X150655807Y-101555807D01*
X150611604Y-101621963D01*
X150600000Y-101680305D01*
X149875500Y-101680305D01*
X149875500Y-101513771D01*
X149874299Y-101507734D01*
X149841857Y-101344635D01*
X149841854Y-101344624D01*
X149841122Y-101342856D01*
X149775858Y-101185295D01*
X149680045Y-101041901D01*
X149558099Y-100919955D01*
X149528662Y-100900286D01*
X149510731Y-100888304D01*
X149414705Y-100824142D01*
X149414702Y-100824140D01*
X149414701Y-100824140D01*
X149255375Y-100758145D01*
X149255364Y-100758142D01*
X149086234Y-100724500D01*
X149086229Y-100724500D01*
X148913771Y-100724500D01*
X148913765Y-100724500D01*
X148744635Y-100758142D01*
X148744624Y-100758145D01*
X148585298Y-100824140D01*
X148441901Y-100919954D01*
X148319954Y-101041901D01*
X148224140Y-101185298D01*
X148158145Y-101344624D01*
X148158142Y-101344635D01*
X148124500Y-101513765D01*
X147875499Y-101513765D01*
X147874299Y-101507734D01*
X147841857Y-101344635D01*
X147841854Y-101344624D01*
X147841122Y-101342856D01*
X147775858Y-101185295D01*
X147680045Y-101041901D01*
X147558099Y-100919955D01*
X147528662Y-100900286D01*
X147510731Y-100888304D01*
X147414705Y-100824142D01*
X147414702Y-100824140D01*
X147414701Y-100824140D01*
X147255375Y-100758145D01*
X147255364Y-100758142D01*
X147086234Y-100724500D01*
X147086229Y-100724500D01*
X146913771Y-100724500D01*
X146913765Y-100724500D01*
X146744635Y-100758142D01*
X146744624Y-100758145D01*
X146585298Y-100824140D01*
X146441901Y-100919954D01*
X146319954Y-101041901D01*
X146224140Y-101185298D01*
X146158145Y-101344624D01*
X146158142Y-101344635D01*
X146124500Y-101513765D01*
X145875499Y-101513765D01*
X145874299Y-101507734D01*
X145841857Y-101344635D01*
X145841854Y-101344624D01*
X145841122Y-101342856D01*
X145775858Y-101185295D01*
X145680045Y-101041901D01*
X145558099Y-100919955D01*
X145558098Y-100919954D01*
X145558096Y-100919952D01*
X145472277Y-100862609D01*
X145451441Y-100831426D01*
X145450500Y-100821867D01*
X145450500Y-100815688D01*
X145421469Y-100707346D01*
X145421468Y-100707342D01*
X145421468Y-100707343D01*
X145419799Y-100701114D01*
X145419799Y-100701113D01*
X145405300Y-100676000D01*
X145360494Y-100598392D01*
X145360491Y-100598389D01*
X145360490Y-100598386D01*
X145346252Y-100584148D01*
X145331900Y-100549500D01*
X145346252Y-100514852D01*
X145380900Y-100500500D01*
X149593101Y-100500500D01*
X149627749Y-100514852D01*
X150073386Y-100960489D01*
X150132696Y-100994731D01*
X150176114Y-101019799D01*
X150176116Y-101019799D01*
X150176117Y-101019800D01*
X150290687Y-101050499D01*
X150290688Y-101050500D01*
X150290691Y-101050500D01*
X150566906Y-101050500D01*
X150601554Y-101064852D01*
X150608009Y-101074513D01*
X150608452Y-101074218D01*
X150655447Y-101144552D01*
X150669312Y-101153816D01*
X150721769Y-101188867D01*
X150780252Y-101200500D01*
X150780255Y-101200500D01*
X151569745Y-101200500D01*
X151569748Y-101200500D01*
X151628231Y-101188867D01*
X151694552Y-101144552D01*
X151738867Y-101078231D01*
X151750500Y-101019748D01*
X151750500Y-100180252D01*
X151738867Y-100121769D01*
X151712301Y-100082012D01*
X151694552Y-100055447D01*
X151647277Y-100023859D01*
X151626441Y-99992676D01*
X151625500Y-99983117D01*
X151625500Y-99755252D01*
X152574500Y-99755252D01*
X152574500Y-100294748D01*
X152586133Y-100353231D01*
X152600679Y-100375000D01*
X152630447Y-100419552D01*
X152657012Y-100437301D01*
X152696769Y-100463867D01*
X152755252Y-100475500D01*
X152850500Y-100475500D01*
X152885148Y-100489852D01*
X152899500Y-100524500D01*
X152899500Y-101342856D01*
X152921681Y-101425637D01*
X152921682Y-101425640D01*
X152966141Y-101502643D01*
X152964584Y-101503541D01*
X152972800Y-101534214D01*
X152964963Y-101555035D01*
X152914492Y-101630573D01*
X152895498Y-101666106D01*
X152838965Y-101802589D01*
X152838960Y-101802603D01*
X152827273Y-101841133D01*
X152827266Y-101841160D01*
X152798451Y-101986023D01*
X152798448Y-101986043D01*
X152794500Y-102026131D01*
X152794500Y-102173868D01*
X152798448Y-102213956D01*
X152798451Y-102213976D01*
X152827266Y-102358839D01*
X152827273Y-102358866D01*
X152838960Y-102397396D01*
X152838965Y-102397410D01*
X152895498Y-102533893D01*
X152914490Y-102569424D01*
X152996572Y-102692269D01*
X153022131Y-102723412D01*
X153126587Y-102827868D01*
X153126592Y-102827872D01*
X153126593Y-102827873D01*
X153157734Y-102853430D01*
X153280573Y-102935508D01*
X153280575Y-102935509D01*
X153316106Y-102954501D01*
X153399322Y-102988970D01*
X153452591Y-103011035D01*
X153452596Y-103011036D01*
X153452603Y-103011039D01*
X153474620Y-103017717D01*
X153491142Y-103022729D01*
X153491153Y-103022731D01*
X153491160Y-103022733D01*
X153636023Y-103051548D01*
X153636030Y-103051549D01*
X153636040Y-103051551D01*
X153676131Y-103055500D01*
X153823869Y-103055500D01*
X153863960Y-103051551D01*
X153863972Y-103051548D01*
X153863976Y-103051548D01*
X154008839Y-103022733D01*
X154008842Y-103022732D01*
X154008858Y-103022729D01*
X154047409Y-103011035D01*
X154183900Y-102954498D01*
X154219427Y-102935508D01*
X154342266Y-102853430D01*
X154373407Y-102827873D01*
X154477873Y-102723407D01*
X154503430Y-102692266D01*
X154585508Y-102569427D01*
X154604498Y-102533900D01*
X154661035Y-102397409D01*
X154672729Y-102358858D01*
X154701551Y-102213960D01*
X154705500Y-102173869D01*
X154705500Y-102026131D01*
X154701551Y-101986040D01*
X154701548Y-101986023D01*
X154672733Y-101841160D01*
X154672731Y-101841153D01*
X154672729Y-101841142D01*
X154661035Y-101802591D01*
X154610382Y-101680305D01*
X154604501Y-101666106D01*
X154597314Y-101652661D01*
X154585508Y-101630573D01*
X154503430Y-101507734D01*
X154477873Y-101476593D01*
X154477872Y-101476592D01*
X154477868Y-101476587D01*
X154373412Y-101372131D01*
X154342269Y-101346572D01*
X154219424Y-101264490D01*
X154183893Y-101245498D01*
X154047410Y-101188965D01*
X154047396Y-101188960D01*
X154008866Y-101177273D01*
X154008839Y-101177266D01*
X153863976Y-101148451D01*
X153863956Y-101148448D01*
X153823869Y-101144500D01*
X153676131Y-101144500D01*
X153636043Y-101148448D01*
X153618244Y-101151988D01*
X153609057Y-101153815D01*
X153572276Y-101146498D01*
X153551441Y-101115315D01*
X153550500Y-101105757D01*
X153550500Y-100524500D01*
X153564852Y-100489852D01*
X153599500Y-100475500D01*
X153694745Y-100475500D01*
X153694748Y-100475500D01*
X153753231Y-100463867D01*
X153819552Y-100419552D01*
X153863867Y-100353231D01*
X153875500Y-100294748D01*
X153875500Y-99755252D01*
X153863867Y-99696769D01*
X153837301Y-99657012D01*
X153819552Y-99630447D01*
X153764437Y-99593621D01*
X153753231Y-99586133D01*
X153694748Y-99574500D01*
X152755252Y-99574500D01*
X152701721Y-99585148D01*
X152696769Y-99586133D01*
X152630447Y-99630447D01*
X152590983Y-99689511D01*
X152586133Y-99696769D01*
X152574500Y-99755252D01*
X151625500Y-99755252D01*
X151625500Y-99599500D01*
X151639852Y-99564852D01*
X151674500Y-99550500D01*
X151944745Y-99550500D01*
X151944748Y-99550500D01*
X152003231Y-99538867D01*
X152069552Y-99494552D01*
X152113867Y-99428231D01*
X152125500Y-99369748D01*
X152125500Y-98880252D01*
X152121284Y-98859057D01*
X152128601Y-98822277D01*
X152159784Y-98801441D01*
X152169343Y-98800500D01*
X152535431Y-98800500D01*
X152570079Y-98814852D01*
X152583489Y-98839939D01*
X152585391Y-98849500D01*
X152586133Y-98853231D01*
X152630447Y-98919552D01*
X152657012Y-98937301D01*
X152696769Y-98963867D01*
X152755252Y-98975500D01*
X152755255Y-98975500D01*
X153694745Y-98975500D01*
X153694748Y-98975500D01*
X153753231Y-98963867D01*
X153819552Y-98919552D01*
X153863867Y-98853231D01*
X153875500Y-98794748D01*
X153875500Y-98255252D01*
X153863867Y-98196769D01*
X153832951Y-98150500D01*
X153819552Y-98130447D01*
X153774732Y-98100500D01*
X153753231Y-98086133D01*
X153694748Y-98074500D01*
X152755252Y-98074500D01*
X152700127Y-98085465D01*
X152696769Y-98086133D01*
X152630450Y-98130445D01*
X152627038Y-98133859D01*
X152625454Y-98132276D01*
X152601085Y-98148559D01*
X152591527Y-98149500D01*
X152529123Y-98149500D01*
X152494475Y-98135148D01*
X152480123Y-98100500D01*
X152494475Y-98065852D01*
X152820475Y-97739852D01*
X152855123Y-97725500D01*
X153069745Y-97725500D01*
X153069748Y-97725500D01*
X153128231Y-97713867D01*
X153194552Y-97669552D01*
X153238867Y-97603231D01*
X153250500Y-97544748D01*
X153250500Y-96605252D01*
X153238867Y-96546769D01*
X153200836Y-96489852D01*
X153194552Y-96480447D01*
X153150594Y-96451076D01*
X153128231Y-96436133D01*
X153069748Y-96424500D01*
X152530252Y-96424500D01*
X152471774Y-96436132D01*
X152471769Y-96436133D01*
X152405447Y-96480447D01*
X152361133Y-96546769D01*
X152349500Y-96605252D01*
X152349500Y-96605255D01*
X152349500Y-97269877D01*
X152335148Y-97304525D01*
X152208648Y-97431025D01*
X152174000Y-97445377D01*
X152139352Y-97431025D01*
X152127561Y-97402561D01*
X152125000Y-97400000D01*
X151952087Y-97400000D01*
X151947163Y-97399516D01*
X151947142Y-97399736D01*
X151944749Y-97399500D01*
X151944748Y-97399500D01*
X150405252Y-97399500D01*
X150405250Y-97399500D01*
X150402858Y-97399736D01*
X150402836Y-97399516D01*
X150397913Y-97400000D01*
X150225000Y-97400000D01*
X150225000Y-97419694D01*
X150229226Y-97440941D01*
X150221909Y-97477723D01*
X150190726Y-97498559D01*
X150181167Y-97499500D01*
X149282144Y-97499500D01*
X149199362Y-97521681D01*
X149199358Y-97521682D01*
X149162250Y-97543108D01*
X149125143Y-97564531D01*
X149125134Y-97564538D01*
X148554525Y-98135148D01*
X148519877Y-98149500D01*
X146269343Y-98149500D01*
X146234695Y-98135148D01*
X146220343Y-98100500D01*
X146221284Y-98090941D01*
X146225500Y-98069748D01*
X146225500Y-97580252D01*
X146213867Y-97521769D01*
X146213866Y-97521767D01*
X146212341Y-97518085D01*
X146212341Y-97480582D01*
X146212343Y-97480577D01*
X146213395Y-97478036D01*
X146225000Y-97419694D01*
X146225000Y-97400000D01*
X146052087Y-97400000D01*
X146047163Y-97399516D01*
X146047142Y-97399736D01*
X146044749Y-97399500D01*
X146044748Y-97399500D01*
X144505252Y-97399500D01*
X144505250Y-97399500D01*
X144502858Y-97399736D01*
X144502836Y-97399516D01*
X144497913Y-97400000D01*
X144325000Y-97400000D01*
X144325000Y-97419694D01*
X144329226Y-97440941D01*
X144321909Y-97477723D01*
X144290726Y-97498559D01*
X144281167Y-97499500D01*
X144060523Y-97499500D01*
X143977742Y-97521681D01*
X143977738Y-97521682D01*
X143917462Y-97556484D01*
X143910525Y-97560489D01*
X143905853Y-97563186D01*
X143903518Y-97564534D01*
X143837780Y-97630271D01*
X143827635Y-97638056D01*
X143823503Y-97640442D01*
X143786321Y-97645339D01*
X143756566Y-97622511D01*
X143750000Y-97598008D01*
X143750000Y-97525000D01*
X142550000Y-97525000D01*
X142550000Y-97621377D01*
X142535648Y-97656025D01*
X142501000Y-97670377D01*
X142466352Y-97656025D01*
X142264852Y-97454525D01*
X142250500Y-97419877D01*
X142250500Y-96905253D01*
X142250499Y-96905248D01*
X142246152Y-96883393D01*
X142253468Y-96846610D01*
X142284650Y-96825775D01*
X142321433Y-96833091D01*
X142328858Y-96839185D01*
X142350138Y-96860465D01*
X142365630Y-96869409D01*
X142424359Y-96903317D01*
X142424361Y-96903317D01*
X142424362Y-96903318D01*
X142431584Y-96905253D01*
X142507134Y-96925497D01*
X142507137Y-96925497D01*
X142507147Y-96925500D01*
X142507157Y-96925500D01*
X142507382Y-96925530D01*
X142507491Y-96925593D01*
X142510249Y-96926332D01*
X142510051Y-96927070D01*
X142539866Y-96944273D01*
X142550000Y-96974113D01*
X142550000Y-97075000D01*
X143750000Y-97075000D01*
X143750000Y-96974500D01*
X143764352Y-96939852D01*
X143799000Y-96925500D01*
X143942856Y-96925500D01*
X143942856Y-96925499D01*
X144025639Y-96903318D01*
X144099862Y-96860465D01*
X144240852Y-96719473D01*
X144275500Y-96705122D01*
X144310148Y-96719474D01*
X144323767Y-96745679D01*
X144324500Y-96749869D01*
X144324500Y-96769748D01*
X144336133Y-96828231D01*
X144338943Y-96832436D01*
X144340655Y-96842222D01*
X144337659Y-96855645D01*
X144337661Y-96869409D01*
X144336605Y-96871957D01*
X144325000Y-96930305D01*
X144325000Y-96950000D01*
X144497913Y-96950000D01*
X144502836Y-96950483D01*
X144502858Y-96950264D01*
X144505251Y-96950499D01*
X144505252Y-96950500D01*
X144505253Y-96950500D01*
X146044747Y-96950500D01*
X146044748Y-96950500D01*
X146044748Y-96950499D01*
X146047142Y-96950264D01*
X146047163Y-96950483D01*
X146052087Y-96950000D01*
X146225000Y-96950000D01*
X146225000Y-96930305D01*
X146213395Y-96871962D01*
X146212342Y-96869420D01*
X146212340Y-96831917D01*
X146212342Y-96831912D01*
X146213866Y-96828232D01*
X146213865Y-96828232D01*
X146213867Y-96828231D01*
X146225500Y-96769748D01*
X146225500Y-96280252D01*
X146213867Y-96221769D01*
X146213865Y-96221766D01*
X146213865Y-96221765D01*
X146212618Y-96218753D01*
X146212616Y-96181250D01*
X146212618Y-96181247D01*
X146213865Y-96178234D01*
X146213865Y-96178233D01*
X146213867Y-96178231D01*
X146225500Y-96119748D01*
X146225500Y-95630252D01*
X146213867Y-95571769D01*
X146213865Y-95571766D01*
X146213865Y-95571765D01*
X146212618Y-95568753D01*
X146212616Y-95531250D01*
X146212618Y-95531247D01*
X146213865Y-95528234D01*
X146213865Y-95528233D01*
X146213867Y-95528231D01*
X146225500Y-95469748D01*
X146225500Y-94980252D01*
X146225499Y-94980247D01*
X146225357Y-94978807D01*
X146225500Y-94978335D01*
X146225500Y-94977845D01*
X146225649Y-94977845D01*
X146236241Y-94942918D01*
X146269314Y-94925236D01*
X146274121Y-94925000D01*
X149160407Y-94925000D01*
X149195055Y-94939352D01*
X149209407Y-94974000D01*
X149202842Y-94998500D01*
X149183608Y-95031812D01*
X149183607Y-95031815D01*
X149149500Y-95159104D01*
X149149500Y-95290895D01*
X149183607Y-95418184D01*
X149183608Y-95418188D01*
X149233877Y-95505255D01*
X149249500Y-95532314D01*
X149342686Y-95625500D01*
X149347484Y-95628270D01*
X149456811Y-95691391D01*
X149456813Y-95691391D01*
X149456814Y-95691392D01*
X149473858Y-95695959D01*
X149498903Y-95702670D01*
X149528656Y-95725500D01*
X149533551Y-95762682D01*
X149510721Y-95792435D01*
X149498903Y-95797330D01*
X149456815Y-95808607D01*
X149456811Y-95808608D01*
X149342685Y-95874500D01*
X149342685Y-95874501D01*
X149249501Y-95967685D01*
X149249500Y-95967685D01*
X149183608Y-96081811D01*
X149183607Y-96081815D01*
X149149500Y-96209104D01*
X149149500Y-96340895D01*
X149183607Y-96468184D01*
X149183608Y-96468188D01*
X149228978Y-96546769D01*
X149249500Y-96582314D01*
X149342686Y-96675500D01*
X149351847Y-96680789D01*
X149456811Y-96741391D01*
X149456813Y-96741391D01*
X149456814Y-96741392D01*
X149523630Y-96759295D01*
X149584104Y-96775499D01*
X149584105Y-96775500D01*
X149584108Y-96775500D01*
X149715895Y-96775500D01*
X149715895Y-96775499D01*
X149843186Y-96741392D01*
X149957314Y-96675500D01*
X150050500Y-96582314D01*
X150116392Y-96468186D01*
X150124772Y-96436912D01*
X150128170Y-96424230D01*
X150151000Y-96394477D01*
X150188182Y-96389582D01*
X150217935Y-96412412D01*
X150224500Y-96436912D01*
X150224500Y-96769748D01*
X150236133Y-96828231D01*
X150236134Y-96828235D01*
X150237658Y-96831914D01*
X150237661Y-96869409D01*
X150236605Y-96871957D01*
X150225000Y-96930305D01*
X150225000Y-96950000D01*
X150397913Y-96950000D01*
X150402836Y-96950483D01*
X150402858Y-96950264D01*
X150405251Y-96950499D01*
X150405252Y-96950500D01*
X150405253Y-96950500D01*
X151944747Y-96950500D01*
X151944748Y-96950500D01*
X151944748Y-96950499D01*
X151947142Y-96950264D01*
X151947163Y-96950483D01*
X151952087Y-96950000D01*
X152125000Y-96950000D01*
X152125000Y-96930305D01*
X152113395Y-96871962D01*
X152112342Y-96869420D01*
X152112340Y-96831917D01*
X152112342Y-96831912D01*
X152113866Y-96828232D01*
X152113865Y-96828232D01*
X152113867Y-96828231D01*
X152125500Y-96769748D01*
X152125500Y-96280252D01*
X152113867Y-96221769D01*
X152113865Y-96221766D01*
X152113865Y-96221765D01*
X152112618Y-96218753D01*
X152112616Y-96181250D01*
X152112618Y-96181247D01*
X152113865Y-96178234D01*
X152113865Y-96178233D01*
X152113867Y-96178231D01*
X152125500Y-96119748D01*
X152125500Y-95630252D01*
X152113867Y-95571769D01*
X152113865Y-95571766D01*
X152113865Y-95571765D01*
X152112618Y-95568753D01*
X152112616Y-95531250D01*
X152112618Y-95531247D01*
X152113865Y-95528234D01*
X152113865Y-95528233D01*
X152113867Y-95528231D01*
X152125500Y-95469748D01*
X152125500Y-94980252D01*
X152125499Y-94980247D01*
X152125357Y-94978807D01*
X152125500Y-94978335D01*
X152125500Y-94977845D01*
X152125649Y-94977845D01*
X152136241Y-94942918D01*
X152169314Y-94925236D01*
X152174121Y-94925000D01*
X152175000Y-94925000D01*
X152175000Y-94881384D01*
X152799500Y-94881384D01*
X152799500Y-95068616D01*
X152811086Y-95126862D01*
X152836026Y-95252248D01*
X152836029Y-95252258D01*
X152907675Y-95425225D01*
X152907676Y-95425227D01*
X152907678Y-95425231D01*
X152973913Y-95524359D01*
X153005591Y-95571769D01*
X153011698Y-95580908D01*
X153144092Y-95713302D01*
X153299769Y-95817322D01*
X153299774Y-95817324D01*
X153472741Y-95888970D01*
X153472743Y-95888970D01*
X153472749Y-95888973D01*
X153656384Y-95925500D01*
X153656387Y-95925500D01*
X153843615Y-95925500D01*
X153843616Y-95925500D01*
X153965940Y-95901168D01*
X154002723Y-95908484D01*
X154023558Y-95939666D01*
X154024500Y-95949226D01*
X154024500Y-96385430D01*
X154010148Y-96420078D01*
X153985061Y-96433488D01*
X153971770Y-96436132D01*
X153905447Y-96480447D01*
X153861133Y-96546769D01*
X153849500Y-96605252D01*
X153849500Y-97544748D01*
X153861133Y-97603231D01*
X153873258Y-97621377D01*
X153905447Y-97669552D01*
X153932012Y-97687301D01*
X153971769Y-97713867D01*
X154030252Y-97725500D01*
X154030255Y-97725500D01*
X154569745Y-97725500D01*
X154569748Y-97725500D01*
X154628231Y-97713867D01*
X154694552Y-97669552D01*
X154738867Y-97603231D01*
X154750500Y-97544748D01*
X154750500Y-96605252D01*
X154738867Y-96546769D01*
X154700836Y-96489852D01*
X154694554Y-96480450D01*
X154691142Y-96477039D01*
X154692723Y-96475457D01*
X154676440Y-96451076D01*
X154675500Y-96441527D01*
X154675500Y-95607145D01*
X154663239Y-95561388D01*
X154663239Y-95561387D01*
X154653318Y-95524361D01*
X154653317Y-95524359D01*
X154630859Y-95485462D01*
X154610465Y-95450138D01*
X154610459Y-95450132D01*
X154609204Y-95448496D01*
X154608933Y-95447485D01*
X154608859Y-95447357D01*
X154608893Y-95447337D01*
X154599497Y-95412271D01*
X154602806Y-95399918D01*
X154663973Y-95252251D01*
X154700500Y-95068616D01*
X154700500Y-94881384D01*
X154663973Y-94697749D01*
X154592322Y-94524769D01*
X154488302Y-94369092D01*
X154355908Y-94236698D01*
X154200231Y-94132678D01*
X154200227Y-94132676D01*
X154200225Y-94132675D01*
X154027258Y-94061029D01*
X154027248Y-94061026D01*
X153953194Y-94046296D01*
X153843616Y-94024500D01*
X153656384Y-94024500D01*
X153564986Y-94042680D01*
X153472751Y-94061026D01*
X153472741Y-94061029D01*
X153299774Y-94132675D01*
X153299770Y-94132677D01*
X153299769Y-94132678D01*
X153273845Y-94150000D01*
X153144092Y-94236697D01*
X153011697Y-94369092D01*
X152907675Y-94524774D01*
X152836029Y-94697741D01*
X152836026Y-94697751D01*
X152832426Y-94715852D01*
X152799500Y-94881384D01*
X152175000Y-94881384D01*
X152175000Y-93970296D01*
X152189352Y-93935648D01*
X153835148Y-92289852D01*
X153869796Y-92275500D01*
X154719745Y-92275500D01*
X154719748Y-92275500D01*
X154778231Y-92263867D01*
X154786624Y-92258259D01*
X154813848Y-92250000D01*
X154900500Y-92250000D01*
X154935148Y-92264352D01*
X154949500Y-92299000D01*
X154949500Y-102971142D01*
X154948897Y-102978808D01*
X154936054Y-103059888D01*
X154931317Y-103074467D01*
X154895825Y-103144126D01*
X154886813Y-103156529D01*
X154831529Y-103211813D01*
X154819126Y-103220825D01*
X154749467Y-103256317D01*
X154734888Y-103261054D01*
X154667077Y-103271795D01*
X154653806Y-103273897D01*
X154646142Y-103274500D01*
X136653858Y-103274500D01*
X136646193Y-103273897D01*
X136629980Y-103271329D01*
X136565111Y-103261054D01*
X136550533Y-103256317D01*
X136480869Y-103220822D01*
X136468470Y-103211813D01*
X136413186Y-103156529D01*
X136404177Y-103144131D01*
X136368680Y-103074462D01*
X136363945Y-103059887D01*
X136356207Y-103011035D01*
X136351103Y-102978807D01*
X136350500Y-102971142D01*
X136350500Y-102844694D01*
X136550000Y-102844694D01*
X136561604Y-102903036D01*
X136605807Y-102969192D01*
X136671963Y-103013395D01*
X136730305Y-103025000D01*
X137275000Y-103025000D01*
X137725000Y-103025000D01*
X138269695Y-103025000D01*
X138328036Y-103013395D01*
X138394192Y-102969192D01*
X138438395Y-102903036D01*
X138450000Y-102844694D01*
X138450000Y-102300000D01*
X137725000Y-102300000D01*
X137725000Y-103025000D01*
X137275000Y-103025000D01*
X137275000Y-102300000D01*
X136550000Y-102300000D01*
X136550000Y-102844694D01*
X136350500Y-102844694D01*
X136350500Y-101305305D01*
X136550000Y-101305305D01*
X136550000Y-101850000D01*
X137275000Y-101850000D01*
X137725000Y-101850000D01*
X138450000Y-101850000D01*
X138450000Y-101305305D01*
X138438395Y-101246963D01*
X138394192Y-101180807D01*
X138328036Y-101136604D01*
X138269695Y-101125000D01*
X137725000Y-101125000D01*
X137725000Y-101850000D01*
X137275000Y-101850000D01*
X137275000Y-101125000D01*
X136730305Y-101125000D01*
X136671963Y-101136604D01*
X136605807Y-101180807D01*
X136561604Y-101246963D01*
X136550000Y-101305305D01*
X136350500Y-101305305D01*
X136350500Y-100569694D01*
X139425000Y-100569694D01*
X139436604Y-100628036D01*
X139480807Y-100694192D01*
X139546963Y-100738395D01*
X139605305Y-100750000D01*
X139775000Y-100750000D01*
X140225000Y-100750000D01*
X140394695Y-100750000D01*
X140453036Y-100738395D01*
X140519192Y-100694192D01*
X140563395Y-100628036D01*
X140575000Y-100569694D01*
X140575000Y-100375000D01*
X140225000Y-100375000D01*
X140225000Y-100750000D01*
X139775000Y-100750000D01*
X139775000Y-100375000D01*
X139425000Y-100375000D01*
X139425000Y-100569694D01*
X136350500Y-100569694D01*
X136350500Y-88778857D01*
X136351103Y-88771192D01*
X136351295Y-88769978D01*
X136363945Y-88690110D01*
X136368679Y-88675539D01*
X136404179Y-88605865D01*
X136413183Y-88593473D01*
X136468473Y-88538183D01*
X136480865Y-88529179D01*
X136550539Y-88493679D01*
X136565110Y-88488945D01*
X136646193Y-88476103D01*
X136653858Y-88475500D01*
X136689882Y-88475500D01*
X138460630Y-88475500D01*
X138495278Y-88489852D01*
G37*
%TD.AperFunction*%
%TA.AperFunction,Conductor*%
G36*
X142885648Y-93918975D02*
G01*
X142900000Y-93953623D01*
X142900000Y-94150000D01*
X143301000Y-94150000D01*
X143335648Y-94164352D01*
X143350000Y-94199000D01*
X143350000Y-94375000D01*
X143526000Y-94375000D01*
X143560648Y-94389352D01*
X143575000Y-94424000D01*
X143575000Y-95025000D01*
X143619695Y-95025000D01*
X143640805Y-95020801D01*
X143677587Y-95028118D01*
X143695635Y-95050111D01*
X143696682Y-95052640D01*
X143739535Y-95126862D01*
X143865161Y-95252488D01*
X143879513Y-95287136D01*
X143865161Y-95321784D01*
X143830513Y-95336136D01*
X143820955Y-95335195D01*
X143769696Y-95325000D01*
X143575000Y-95325000D01*
X143575000Y-95851000D01*
X143560648Y-95885648D01*
X143526000Y-95900000D01*
X143350000Y-95900000D01*
X143350000Y-96076000D01*
X143335648Y-96110648D01*
X143301000Y-96125000D01*
X142750000Y-96125000D01*
X142750000Y-96221377D01*
X142735648Y-96256025D01*
X142701000Y-96270377D01*
X142666352Y-96256025D01*
X142464852Y-96054525D01*
X142450500Y-96019877D01*
X142450500Y-95505305D01*
X142750000Y-95505305D01*
X142750000Y-95675000D01*
X143125000Y-95675000D01*
X143125000Y-95325000D01*
X142930305Y-95325000D01*
X142871963Y-95336604D01*
X142805807Y-95380807D01*
X142761604Y-95446963D01*
X142750000Y-95505305D01*
X142450500Y-95505305D01*
X142450500Y-95505255D01*
X142450500Y-95505252D01*
X142438867Y-95446769D01*
X142405229Y-95396427D01*
X142394552Y-95380447D01*
X142354795Y-95353882D01*
X142328231Y-95336133D01*
X142269748Y-95324500D01*
X142269745Y-95324500D01*
X141755123Y-95324500D01*
X141720475Y-95310148D01*
X141514185Y-95103858D01*
X141499833Y-95069210D01*
X141514185Y-95034562D01*
X141548833Y-95020210D01*
X141558393Y-95021152D01*
X141580252Y-95025500D01*
X141580253Y-95025500D01*
X142119745Y-95025500D01*
X142119748Y-95025500D01*
X142178231Y-95013867D01*
X142244552Y-94969552D01*
X142288867Y-94903231D01*
X142300500Y-94844748D01*
X142300500Y-94844694D01*
X142900000Y-94844694D01*
X142911604Y-94903036D01*
X142955807Y-94969192D01*
X143021963Y-95013395D01*
X143080305Y-95025000D01*
X143125000Y-95025000D01*
X143125000Y-94600000D01*
X142900000Y-94600000D01*
X142900000Y-94844694D01*
X142300500Y-94844694D01*
X142300500Y-94455123D01*
X142314852Y-94420475D01*
X142816352Y-93918975D01*
X142851000Y-93904623D01*
X142885648Y-93918975D01*
G37*
%TD.AperFunction*%
%TD*%
M02*
