%TF.GenerationSoftware,KiCad,Pcbnew,9.0.6*%
%TF.CreationDate,2026-05-15T22:45:14-04:00*%
%TF.ProjectId,mfo,6d666f2e-6b69-4636-9164-5f7063625858,rev?*%
%TF.SameCoordinates,Original*%
%TF.FileFunction,AssemblyDrawing,Top*%
%FSLAX46Y46*%
G04 Gerber Fmt 4.6, Leading zero omitted, Abs format (unit mm)*
G04 Created by KiCad (PCBNEW 9.0.6) date 2026-05-15 22:45:14*
%MOMM*%
%LPD*%
G01*
G04 APERTURE LIST*
%ADD10C,0.150000*%
%ADD11C,0.075000*%
%ADD12C,0.060000*%
%ADD13C,0.100000*%
G04 APERTURE END LIST*
D10*
X142483333Y-98229819D02*
X141911905Y-98229819D01*
X142197619Y-98229819D02*
X142197619Y-97229819D01*
X142197619Y-97229819D02*
X142102381Y-97372676D01*
X142102381Y-97372676D02*
X142007143Y-97467914D01*
X142007143Y-97467914D02*
X141911905Y-97515533D01*
X143340476Y-97563152D02*
X143340476Y-98229819D01*
X142911905Y-97563152D02*
X142911905Y-98086961D01*
X142911905Y-98086961D02*
X142959524Y-98182200D01*
X142959524Y-98182200D02*
X143054762Y-98229819D01*
X143054762Y-98229819D02*
X143197619Y-98229819D01*
X143197619Y-98229819D02*
X143292857Y-98182200D01*
X143292857Y-98182200D02*
X143340476Y-98134580D01*
D11*
X142600000Y-99381314D02*
X142585714Y-99395600D01*
X142585714Y-99395600D02*
X142542857Y-99409885D01*
X142542857Y-99409885D02*
X142514285Y-99409885D01*
X142514285Y-99409885D02*
X142471428Y-99395600D01*
X142471428Y-99395600D02*
X142442857Y-99367028D01*
X142442857Y-99367028D02*
X142428571Y-99338457D01*
X142428571Y-99338457D02*
X142414285Y-99281314D01*
X142414285Y-99281314D02*
X142414285Y-99238457D01*
X142414285Y-99238457D02*
X142428571Y-99181314D01*
X142428571Y-99181314D02*
X142442857Y-99152742D01*
X142442857Y-99152742D02*
X142471428Y-99124171D01*
X142471428Y-99124171D02*
X142514285Y-99109885D01*
X142514285Y-99109885D02*
X142542857Y-99109885D01*
X142542857Y-99109885D02*
X142585714Y-99124171D01*
X142585714Y-99124171D02*
X142600000Y-99138457D01*
X142885714Y-99409885D02*
X142714285Y-99409885D01*
X142800000Y-99409885D02*
X142800000Y-99109885D01*
X142800000Y-99109885D02*
X142771428Y-99152742D01*
X142771428Y-99152742D02*
X142742857Y-99181314D01*
X142742857Y-99181314D02*
X142714285Y-99195600D01*
D10*
X142433333Y-97854819D02*
X141861905Y-97854819D01*
X142147619Y-97854819D02*
X142147619Y-96854819D01*
X142147619Y-96854819D02*
X142052381Y-96997676D01*
X142052381Y-96997676D02*
X141957143Y-97092914D01*
X141957143Y-97092914D02*
X141861905Y-97140533D01*
X143290476Y-97188152D02*
X143290476Y-97854819D01*
X142861905Y-97188152D02*
X142861905Y-97711961D01*
X142861905Y-97711961D02*
X142909524Y-97807200D01*
X142909524Y-97807200D02*
X143004762Y-97854819D01*
X143004762Y-97854819D02*
X143147619Y-97854819D01*
X143147619Y-97854819D02*
X143242857Y-97807200D01*
X143242857Y-97807200D02*
X143290476Y-97759580D01*
D11*
X142550000Y-96006314D02*
X142535714Y-96020600D01*
X142535714Y-96020600D02*
X142492857Y-96034885D01*
X142492857Y-96034885D02*
X142464285Y-96034885D01*
X142464285Y-96034885D02*
X142421428Y-96020600D01*
X142421428Y-96020600D02*
X142392857Y-95992028D01*
X142392857Y-95992028D02*
X142378571Y-95963457D01*
X142378571Y-95963457D02*
X142364285Y-95906314D01*
X142364285Y-95906314D02*
X142364285Y-95863457D01*
X142364285Y-95863457D02*
X142378571Y-95806314D01*
X142378571Y-95806314D02*
X142392857Y-95777742D01*
X142392857Y-95777742D02*
X142421428Y-95749171D01*
X142421428Y-95749171D02*
X142464285Y-95734885D01*
X142464285Y-95734885D02*
X142492857Y-95734885D01*
X142492857Y-95734885D02*
X142535714Y-95749171D01*
X142535714Y-95749171D02*
X142550000Y-95763457D01*
X142664285Y-95763457D02*
X142678571Y-95749171D01*
X142678571Y-95749171D02*
X142707143Y-95734885D01*
X142707143Y-95734885D02*
X142778571Y-95734885D01*
X142778571Y-95734885D02*
X142807143Y-95749171D01*
X142807143Y-95749171D02*
X142821428Y-95763457D01*
X142821428Y-95763457D02*
X142835714Y-95792028D01*
X142835714Y-95792028D02*
X142835714Y-95820600D01*
X142835714Y-95820600D02*
X142821428Y-95863457D01*
X142821428Y-95863457D02*
X142650000Y-96034885D01*
X142650000Y-96034885D02*
X142835714Y-96034885D01*
D10*
X139683333Y-92404819D02*
X139111905Y-92404819D01*
X139397619Y-92404819D02*
X139397619Y-91404819D01*
X139397619Y-91404819D02*
X139302381Y-91547676D01*
X139302381Y-91547676D02*
X139207143Y-91642914D01*
X139207143Y-91642914D02*
X139111905Y-91690533D01*
X140540476Y-91738152D02*
X140540476Y-92404819D01*
X140111905Y-91738152D02*
X140111905Y-92261961D01*
X140111905Y-92261961D02*
X140159524Y-92357200D01*
X140159524Y-92357200D02*
X140254762Y-92404819D01*
X140254762Y-92404819D02*
X140397619Y-92404819D01*
X140397619Y-92404819D02*
X140492857Y-92357200D01*
X140492857Y-92357200D02*
X140540476Y-92309580D01*
D11*
X139800000Y-90556314D02*
X139785714Y-90570600D01*
X139785714Y-90570600D02*
X139742857Y-90584885D01*
X139742857Y-90584885D02*
X139714285Y-90584885D01*
X139714285Y-90584885D02*
X139671428Y-90570600D01*
X139671428Y-90570600D02*
X139642857Y-90542028D01*
X139642857Y-90542028D02*
X139628571Y-90513457D01*
X139628571Y-90513457D02*
X139614285Y-90456314D01*
X139614285Y-90456314D02*
X139614285Y-90413457D01*
X139614285Y-90413457D02*
X139628571Y-90356314D01*
X139628571Y-90356314D02*
X139642857Y-90327742D01*
X139642857Y-90327742D02*
X139671428Y-90299171D01*
X139671428Y-90299171D02*
X139714285Y-90284885D01*
X139714285Y-90284885D02*
X139742857Y-90284885D01*
X139742857Y-90284885D02*
X139785714Y-90299171D01*
X139785714Y-90299171D02*
X139800000Y-90313457D01*
X139900000Y-90284885D02*
X140085714Y-90284885D01*
X140085714Y-90284885D02*
X139985714Y-90399171D01*
X139985714Y-90399171D02*
X140028571Y-90399171D01*
X140028571Y-90399171D02*
X140057143Y-90413457D01*
X140057143Y-90413457D02*
X140071428Y-90427742D01*
X140071428Y-90427742D02*
X140085714Y-90456314D01*
X140085714Y-90456314D02*
X140085714Y-90527742D01*
X140085714Y-90527742D02*
X140071428Y-90556314D01*
X140071428Y-90556314D02*
X140057143Y-90570600D01*
X140057143Y-90570600D02*
X140028571Y-90584885D01*
X140028571Y-90584885D02*
X139942857Y-90584885D01*
X139942857Y-90584885D02*
X139914285Y-90570600D01*
X139914285Y-90570600D02*
X139900000Y-90556314D01*
D10*
X139104761Y-91004819D02*
X138533333Y-91004819D01*
X138819047Y-91004819D02*
X138819047Y-90004819D01*
X138819047Y-90004819D02*
X138723809Y-90147676D01*
X138723809Y-90147676D02*
X138628571Y-90242914D01*
X138628571Y-90242914D02*
X138533333Y-90290533D01*
X139723809Y-90004819D02*
X139819047Y-90004819D01*
X139819047Y-90004819D02*
X139914285Y-90052438D01*
X139914285Y-90052438D02*
X139961904Y-90100057D01*
X139961904Y-90100057D02*
X140009523Y-90195295D01*
X140009523Y-90195295D02*
X140057142Y-90385771D01*
X140057142Y-90385771D02*
X140057142Y-90623866D01*
X140057142Y-90623866D02*
X140009523Y-90814342D01*
X140009523Y-90814342D02*
X139961904Y-90909580D01*
X139961904Y-90909580D02*
X139914285Y-90957200D01*
X139914285Y-90957200D02*
X139819047Y-91004819D01*
X139819047Y-91004819D02*
X139723809Y-91004819D01*
X139723809Y-91004819D02*
X139628571Y-90957200D01*
X139628571Y-90957200D02*
X139580952Y-90909580D01*
X139580952Y-90909580D02*
X139533333Y-90814342D01*
X139533333Y-90814342D02*
X139485714Y-90623866D01*
X139485714Y-90623866D02*
X139485714Y-90385771D01*
X139485714Y-90385771D02*
X139533333Y-90195295D01*
X139533333Y-90195295D02*
X139580952Y-90100057D01*
X139580952Y-90100057D02*
X139628571Y-90052438D01*
X139628571Y-90052438D02*
X139723809Y-90004819D01*
X140485714Y-91004819D02*
X140485714Y-90004819D01*
X140580952Y-90623866D02*
X140866666Y-91004819D01*
X140866666Y-90338152D02*
X140485714Y-90719104D01*
D11*
X139633333Y-89231147D02*
X139500000Y-89040671D01*
X139404762Y-89231147D02*
X139404762Y-88831147D01*
X139404762Y-88831147D02*
X139557143Y-88831147D01*
X139557143Y-88831147D02*
X139595238Y-88850195D01*
X139595238Y-88850195D02*
X139614285Y-88869242D01*
X139614285Y-88869242D02*
X139633333Y-88907338D01*
X139633333Y-88907338D02*
X139633333Y-88964480D01*
X139633333Y-88964480D02*
X139614285Y-89002576D01*
X139614285Y-89002576D02*
X139595238Y-89021623D01*
X139595238Y-89021623D02*
X139557143Y-89040671D01*
X139557143Y-89040671D02*
X139404762Y-89040671D01*
X140014285Y-89231147D02*
X139785714Y-89231147D01*
X139900000Y-89231147D02*
X139900000Y-88831147D01*
X139900000Y-88831147D02*
X139861904Y-88888290D01*
X139861904Y-88888290D02*
X139823809Y-88926385D01*
X139823809Y-88926385D02*
X139785714Y-88945433D01*
D10*
X142004761Y-93329819D02*
X141433333Y-93329819D01*
X141719047Y-93329819D02*
X141719047Y-92329819D01*
X141719047Y-92329819D02*
X141623809Y-92472676D01*
X141623809Y-92472676D02*
X141528571Y-92567914D01*
X141528571Y-92567914D02*
X141433333Y-92615533D01*
X142623809Y-92329819D02*
X142719047Y-92329819D01*
X142719047Y-92329819D02*
X142814285Y-92377438D01*
X142814285Y-92377438D02*
X142861904Y-92425057D01*
X142861904Y-92425057D02*
X142909523Y-92520295D01*
X142909523Y-92520295D02*
X142957142Y-92710771D01*
X142957142Y-92710771D02*
X142957142Y-92948866D01*
X142957142Y-92948866D02*
X142909523Y-93139342D01*
X142909523Y-93139342D02*
X142861904Y-93234580D01*
X142861904Y-93234580D02*
X142814285Y-93282200D01*
X142814285Y-93282200D02*
X142719047Y-93329819D01*
X142719047Y-93329819D02*
X142623809Y-93329819D01*
X142623809Y-93329819D02*
X142528571Y-93282200D01*
X142528571Y-93282200D02*
X142480952Y-93234580D01*
X142480952Y-93234580D02*
X142433333Y-93139342D01*
X142433333Y-93139342D02*
X142385714Y-92948866D01*
X142385714Y-92948866D02*
X142385714Y-92710771D01*
X142385714Y-92710771D02*
X142433333Y-92520295D01*
X142433333Y-92520295D02*
X142480952Y-92425057D01*
X142480952Y-92425057D02*
X142528571Y-92377438D01*
X142528571Y-92377438D02*
X142623809Y-92329819D01*
X143385714Y-93329819D02*
X143385714Y-92329819D01*
X143480952Y-92948866D02*
X143766666Y-93329819D01*
X143766666Y-92663152D02*
X143385714Y-93044104D01*
D11*
X142533333Y-94556147D02*
X142400000Y-94365671D01*
X142304762Y-94556147D02*
X142304762Y-94156147D01*
X142304762Y-94156147D02*
X142457143Y-94156147D01*
X142457143Y-94156147D02*
X142495238Y-94175195D01*
X142495238Y-94175195D02*
X142514285Y-94194242D01*
X142514285Y-94194242D02*
X142533333Y-94232338D01*
X142533333Y-94232338D02*
X142533333Y-94289480D01*
X142533333Y-94289480D02*
X142514285Y-94327576D01*
X142514285Y-94327576D02*
X142495238Y-94346623D01*
X142495238Y-94346623D02*
X142457143Y-94365671D01*
X142457143Y-94365671D02*
X142304762Y-94365671D01*
X142685714Y-94194242D02*
X142704762Y-94175195D01*
X142704762Y-94175195D02*
X142742857Y-94156147D01*
X142742857Y-94156147D02*
X142838095Y-94156147D01*
X142838095Y-94156147D02*
X142876190Y-94175195D01*
X142876190Y-94175195D02*
X142895238Y-94194242D01*
X142895238Y-94194242D02*
X142914285Y-94232338D01*
X142914285Y-94232338D02*
X142914285Y-94270433D01*
X142914285Y-94270433D02*
X142895238Y-94327576D01*
X142895238Y-94327576D02*
X142666666Y-94556147D01*
X142666666Y-94556147D02*
X142914285Y-94556147D01*
D10*
X153359523Y-96029819D02*
X152788095Y-96029819D01*
X153073809Y-96029819D02*
X153073809Y-95029819D01*
X153073809Y-95029819D02*
X152978571Y-95172676D01*
X152978571Y-95172676D02*
X152883333Y-95267914D01*
X152883333Y-95267914D02*
X152788095Y-95315533D01*
X153930952Y-95458390D02*
X153835714Y-95410771D01*
X153835714Y-95410771D02*
X153788095Y-95363152D01*
X153788095Y-95363152D02*
X153740476Y-95267914D01*
X153740476Y-95267914D02*
X153740476Y-95220295D01*
X153740476Y-95220295D02*
X153788095Y-95125057D01*
X153788095Y-95125057D02*
X153835714Y-95077438D01*
X153835714Y-95077438D02*
X153930952Y-95029819D01*
X153930952Y-95029819D02*
X154121428Y-95029819D01*
X154121428Y-95029819D02*
X154216666Y-95077438D01*
X154216666Y-95077438D02*
X154264285Y-95125057D01*
X154264285Y-95125057D02*
X154311904Y-95220295D01*
X154311904Y-95220295D02*
X154311904Y-95267914D01*
X154311904Y-95267914D02*
X154264285Y-95363152D01*
X154264285Y-95363152D02*
X154216666Y-95410771D01*
X154216666Y-95410771D02*
X154121428Y-95458390D01*
X154121428Y-95458390D02*
X153930952Y-95458390D01*
X153930952Y-95458390D02*
X153835714Y-95506009D01*
X153835714Y-95506009D02*
X153788095Y-95553628D01*
X153788095Y-95553628D02*
X153740476Y-95648866D01*
X153740476Y-95648866D02*
X153740476Y-95839342D01*
X153740476Y-95839342D02*
X153788095Y-95934580D01*
X153788095Y-95934580D02*
X153835714Y-95982200D01*
X153835714Y-95982200D02*
X153930952Y-96029819D01*
X153930952Y-96029819D02*
X154121428Y-96029819D01*
X154121428Y-96029819D02*
X154216666Y-95982200D01*
X154216666Y-95982200D02*
X154264285Y-95934580D01*
X154264285Y-95934580D02*
X154311904Y-95839342D01*
X154311904Y-95839342D02*
X154311904Y-95648866D01*
X154311904Y-95648866D02*
X154264285Y-95553628D01*
X154264285Y-95553628D02*
X154216666Y-95506009D01*
X154216666Y-95506009D02*
X154121428Y-95458390D01*
D11*
X153483333Y-97256147D02*
X153350000Y-97065671D01*
X153254762Y-97256147D02*
X153254762Y-96856147D01*
X153254762Y-96856147D02*
X153407143Y-96856147D01*
X153407143Y-96856147D02*
X153445238Y-96875195D01*
X153445238Y-96875195D02*
X153464285Y-96894242D01*
X153464285Y-96894242D02*
X153483333Y-96932338D01*
X153483333Y-96932338D02*
X153483333Y-96989480D01*
X153483333Y-96989480D02*
X153464285Y-97027576D01*
X153464285Y-97027576D02*
X153445238Y-97046623D01*
X153445238Y-97046623D02*
X153407143Y-97065671D01*
X153407143Y-97065671D02*
X153254762Y-97065671D01*
X153616666Y-96856147D02*
X153864285Y-96856147D01*
X153864285Y-96856147D02*
X153730952Y-97008528D01*
X153730952Y-97008528D02*
X153788095Y-97008528D01*
X153788095Y-97008528D02*
X153826190Y-97027576D01*
X153826190Y-97027576D02*
X153845238Y-97046623D01*
X153845238Y-97046623D02*
X153864285Y-97084719D01*
X153864285Y-97084719D02*
X153864285Y-97179957D01*
X153864285Y-97179957D02*
X153845238Y-97218052D01*
X153845238Y-97218052D02*
X153826190Y-97237100D01*
X153826190Y-97237100D02*
X153788095Y-97256147D01*
X153788095Y-97256147D02*
X153673809Y-97256147D01*
X153673809Y-97256147D02*
X153635714Y-97237100D01*
X153635714Y-97237100D02*
X153616666Y-97218052D01*
D10*
X155179819Y-99465476D02*
X155179819Y-100036904D01*
X155179819Y-99751190D02*
X154179819Y-99751190D01*
X154179819Y-99751190D02*
X154322676Y-99846428D01*
X154322676Y-99846428D02*
X154417914Y-99941666D01*
X154417914Y-99941666D02*
X154465533Y-100036904D01*
X154608390Y-98894047D02*
X154560771Y-98989285D01*
X154560771Y-98989285D02*
X154513152Y-99036904D01*
X154513152Y-99036904D02*
X154417914Y-99084523D01*
X154417914Y-99084523D02*
X154370295Y-99084523D01*
X154370295Y-99084523D02*
X154275057Y-99036904D01*
X154275057Y-99036904D02*
X154227438Y-98989285D01*
X154227438Y-98989285D02*
X154179819Y-98894047D01*
X154179819Y-98894047D02*
X154179819Y-98703571D01*
X154179819Y-98703571D02*
X154227438Y-98608333D01*
X154227438Y-98608333D02*
X154275057Y-98560714D01*
X154275057Y-98560714D02*
X154370295Y-98513095D01*
X154370295Y-98513095D02*
X154417914Y-98513095D01*
X154417914Y-98513095D02*
X154513152Y-98560714D01*
X154513152Y-98560714D02*
X154560771Y-98608333D01*
X154560771Y-98608333D02*
X154608390Y-98703571D01*
X154608390Y-98703571D02*
X154608390Y-98894047D01*
X154608390Y-98894047D02*
X154656009Y-98989285D01*
X154656009Y-98989285D02*
X154703628Y-99036904D01*
X154703628Y-99036904D02*
X154798866Y-99084523D01*
X154798866Y-99084523D02*
X154989342Y-99084523D01*
X154989342Y-99084523D02*
X155084580Y-99036904D01*
X155084580Y-99036904D02*
X155132200Y-98989285D01*
X155132200Y-98989285D02*
X155179819Y-98894047D01*
X155179819Y-98894047D02*
X155179819Y-98703571D01*
X155179819Y-98703571D02*
X155132200Y-98608333D01*
X155132200Y-98608333D02*
X155084580Y-98560714D01*
X155084580Y-98560714D02*
X154989342Y-98513095D01*
X154989342Y-98513095D02*
X154798866Y-98513095D01*
X154798866Y-98513095D02*
X154703628Y-98560714D01*
X154703628Y-98560714D02*
X154656009Y-98608333D01*
X154656009Y-98608333D02*
X154608390Y-98703571D01*
D11*
X153406147Y-99341666D02*
X153215671Y-99474999D01*
X153406147Y-99570237D02*
X153006147Y-99570237D01*
X153006147Y-99570237D02*
X153006147Y-99417856D01*
X153006147Y-99417856D02*
X153025195Y-99379761D01*
X153025195Y-99379761D02*
X153044242Y-99360714D01*
X153044242Y-99360714D02*
X153082338Y-99341666D01*
X153082338Y-99341666D02*
X153139480Y-99341666D01*
X153139480Y-99341666D02*
X153177576Y-99360714D01*
X153177576Y-99360714D02*
X153196623Y-99379761D01*
X153196623Y-99379761D02*
X153215671Y-99417856D01*
X153215671Y-99417856D02*
X153215671Y-99570237D01*
X153139480Y-98998809D02*
X153406147Y-98998809D01*
X152987100Y-99094047D02*
X153272814Y-99189285D01*
X153272814Y-99189285D02*
X153272814Y-98941666D01*
D10*
X133457143Y-94704819D02*
X134028571Y-94704819D01*
X133742857Y-95704819D02*
X133742857Y-94704819D01*
X134361905Y-95704819D02*
X134361905Y-94704819D01*
X134361905Y-94704819D02*
X134742857Y-94704819D01*
X134742857Y-94704819D02*
X134838095Y-94752438D01*
X134838095Y-94752438D02*
X134885714Y-94800057D01*
X134885714Y-94800057D02*
X134933333Y-94895295D01*
X134933333Y-94895295D02*
X134933333Y-95038152D01*
X134933333Y-95038152D02*
X134885714Y-95133390D01*
X134885714Y-95133390D02*
X134838095Y-95181009D01*
X134838095Y-95181009D02*
X134742857Y-95228628D01*
X134742857Y-95228628D02*
X134361905Y-95228628D01*
X135314286Y-95657200D02*
X135457143Y-95704819D01*
X135457143Y-95704819D02*
X135695238Y-95704819D01*
X135695238Y-95704819D02*
X135790476Y-95657200D01*
X135790476Y-95657200D02*
X135838095Y-95609580D01*
X135838095Y-95609580D02*
X135885714Y-95514342D01*
X135885714Y-95514342D02*
X135885714Y-95419104D01*
X135885714Y-95419104D02*
X135838095Y-95323866D01*
X135838095Y-95323866D02*
X135790476Y-95276247D01*
X135790476Y-95276247D02*
X135695238Y-95228628D01*
X135695238Y-95228628D02*
X135504762Y-95181009D01*
X135504762Y-95181009D02*
X135409524Y-95133390D01*
X135409524Y-95133390D02*
X135361905Y-95085771D01*
X135361905Y-95085771D02*
X135314286Y-94990533D01*
X135314286Y-94990533D02*
X135314286Y-94895295D01*
X135314286Y-94895295D02*
X135361905Y-94800057D01*
X135361905Y-94800057D02*
X135409524Y-94752438D01*
X135409524Y-94752438D02*
X135504762Y-94704819D01*
X135504762Y-94704819D02*
X135742857Y-94704819D01*
X135742857Y-94704819D02*
X135885714Y-94752438D01*
X136219048Y-94704819D02*
X136885714Y-94704819D01*
X136885714Y-94704819D02*
X136457143Y-95704819D01*
X137409524Y-95133390D02*
X137314286Y-95085771D01*
X137314286Y-95085771D02*
X137266667Y-95038152D01*
X137266667Y-95038152D02*
X137219048Y-94942914D01*
X137219048Y-94942914D02*
X137219048Y-94895295D01*
X137219048Y-94895295D02*
X137266667Y-94800057D01*
X137266667Y-94800057D02*
X137314286Y-94752438D01*
X137314286Y-94752438D02*
X137409524Y-94704819D01*
X137409524Y-94704819D02*
X137600000Y-94704819D01*
X137600000Y-94704819D02*
X137695238Y-94752438D01*
X137695238Y-94752438D02*
X137742857Y-94800057D01*
X137742857Y-94800057D02*
X137790476Y-94895295D01*
X137790476Y-94895295D02*
X137790476Y-94942914D01*
X137790476Y-94942914D02*
X137742857Y-95038152D01*
X137742857Y-95038152D02*
X137695238Y-95085771D01*
X137695238Y-95085771D02*
X137600000Y-95133390D01*
X137600000Y-95133390D02*
X137409524Y-95133390D01*
X137409524Y-95133390D02*
X137314286Y-95181009D01*
X137314286Y-95181009D02*
X137266667Y-95228628D01*
X137266667Y-95228628D02*
X137219048Y-95323866D01*
X137219048Y-95323866D02*
X137219048Y-95514342D01*
X137219048Y-95514342D02*
X137266667Y-95609580D01*
X137266667Y-95609580D02*
X137314286Y-95657200D01*
X137314286Y-95657200D02*
X137409524Y-95704819D01*
X137409524Y-95704819D02*
X137600000Y-95704819D01*
X137600000Y-95704819D02*
X137695238Y-95657200D01*
X137695238Y-95657200D02*
X137742857Y-95609580D01*
X137742857Y-95609580D02*
X137790476Y-95514342D01*
X137790476Y-95514342D02*
X137790476Y-95323866D01*
X137790476Y-95323866D02*
X137742857Y-95228628D01*
X137742857Y-95228628D02*
X137695238Y-95181009D01*
X137695238Y-95181009D02*
X137600000Y-95133390D01*
X138171429Y-94800057D02*
X138219048Y-94752438D01*
X138219048Y-94752438D02*
X138314286Y-94704819D01*
X138314286Y-94704819D02*
X138552381Y-94704819D01*
X138552381Y-94704819D02*
X138647619Y-94752438D01*
X138647619Y-94752438D02*
X138695238Y-94800057D01*
X138695238Y-94800057D02*
X138742857Y-94895295D01*
X138742857Y-94895295D02*
X138742857Y-94990533D01*
X138742857Y-94990533D02*
X138695238Y-95133390D01*
X138695238Y-95133390D02*
X138123810Y-95704819D01*
X138123810Y-95704819D02*
X138742857Y-95704819D01*
X139695238Y-95704819D02*
X139123810Y-95704819D01*
X139409524Y-95704819D02*
X139409524Y-94704819D01*
X139409524Y-94704819D02*
X139314286Y-94847676D01*
X139314286Y-94847676D02*
X139219048Y-94942914D01*
X139219048Y-94942914D02*
X139123810Y-94990533D01*
X140266667Y-95133390D02*
X140171429Y-95085771D01*
X140171429Y-95085771D02*
X140123810Y-95038152D01*
X140123810Y-95038152D02*
X140076191Y-94942914D01*
X140076191Y-94942914D02*
X140076191Y-94895295D01*
X140076191Y-94895295D02*
X140123810Y-94800057D01*
X140123810Y-94800057D02*
X140171429Y-94752438D01*
X140171429Y-94752438D02*
X140266667Y-94704819D01*
X140266667Y-94704819D02*
X140457143Y-94704819D01*
X140457143Y-94704819D02*
X140552381Y-94752438D01*
X140552381Y-94752438D02*
X140600000Y-94800057D01*
X140600000Y-94800057D02*
X140647619Y-94895295D01*
X140647619Y-94895295D02*
X140647619Y-94942914D01*
X140647619Y-94942914D02*
X140600000Y-95038152D01*
X140600000Y-95038152D02*
X140552381Y-95085771D01*
X140552381Y-95085771D02*
X140457143Y-95133390D01*
X140457143Y-95133390D02*
X140266667Y-95133390D01*
X140266667Y-95133390D02*
X140171429Y-95181009D01*
X140171429Y-95181009D02*
X140123810Y-95228628D01*
X140123810Y-95228628D02*
X140076191Y-95323866D01*
X140076191Y-95323866D02*
X140076191Y-95514342D01*
X140076191Y-95514342D02*
X140123810Y-95609580D01*
X140123810Y-95609580D02*
X140171429Y-95657200D01*
X140171429Y-95657200D02*
X140266667Y-95704819D01*
X140266667Y-95704819D02*
X140457143Y-95704819D01*
X140457143Y-95704819D02*
X140552381Y-95657200D01*
X140552381Y-95657200D02*
X140600000Y-95609580D01*
X140600000Y-95609580D02*
X140647619Y-95514342D01*
X140647619Y-95514342D02*
X140647619Y-95323866D01*
X140647619Y-95323866D02*
X140600000Y-95228628D01*
X140600000Y-95228628D02*
X140552381Y-95181009D01*
X140552381Y-95181009D02*
X140457143Y-95133390D01*
X141076191Y-95704819D02*
X141076191Y-94704819D01*
X141076191Y-94704819D02*
X141314286Y-94704819D01*
X141314286Y-94704819D02*
X141457143Y-94752438D01*
X141457143Y-94752438D02*
X141552381Y-94847676D01*
X141552381Y-94847676D02*
X141600000Y-94942914D01*
X141600000Y-94942914D02*
X141647619Y-95133390D01*
X141647619Y-95133390D02*
X141647619Y-95276247D01*
X141647619Y-95276247D02*
X141600000Y-95466723D01*
X141600000Y-95466723D02*
X141552381Y-95561961D01*
X141552381Y-95561961D02*
X141457143Y-95657200D01*
X141457143Y-95657200D02*
X141314286Y-95704819D01*
X141314286Y-95704819D02*
X141076191Y-95704819D01*
X142076191Y-95704819D02*
X142076191Y-94704819D01*
X142076191Y-94704819D02*
X142314286Y-94704819D01*
X142314286Y-94704819D02*
X142457143Y-94752438D01*
X142457143Y-94752438D02*
X142552381Y-94847676D01*
X142552381Y-94847676D02*
X142600000Y-94942914D01*
X142600000Y-94942914D02*
X142647619Y-95133390D01*
X142647619Y-95133390D02*
X142647619Y-95276247D01*
X142647619Y-95276247D02*
X142600000Y-95466723D01*
X142600000Y-95466723D02*
X142552381Y-95561961D01*
X142552381Y-95561961D02*
X142457143Y-95657200D01*
X142457143Y-95657200D02*
X142314286Y-95704819D01*
X142314286Y-95704819D02*
X142076191Y-95704819D01*
X143647619Y-95609580D02*
X143600000Y-95657200D01*
X143600000Y-95657200D02*
X143457143Y-95704819D01*
X143457143Y-95704819D02*
X143361905Y-95704819D01*
X143361905Y-95704819D02*
X143219048Y-95657200D01*
X143219048Y-95657200D02*
X143123810Y-95561961D01*
X143123810Y-95561961D02*
X143076191Y-95466723D01*
X143076191Y-95466723D02*
X143028572Y-95276247D01*
X143028572Y-95276247D02*
X143028572Y-95133390D01*
X143028572Y-95133390D02*
X143076191Y-94942914D01*
X143076191Y-94942914D02*
X143123810Y-94847676D01*
X143123810Y-94847676D02*
X143219048Y-94752438D01*
X143219048Y-94752438D02*
X143361905Y-94704819D01*
X143361905Y-94704819D02*
X143457143Y-94704819D01*
X143457143Y-94704819D02*
X143600000Y-94752438D01*
X143600000Y-94752438D02*
X143647619Y-94800057D01*
D12*
X138295238Y-92631927D02*
X138295238Y-92955737D01*
X138295238Y-92955737D02*
X138314285Y-92993832D01*
X138314285Y-92993832D02*
X138333333Y-93012880D01*
X138333333Y-93012880D02*
X138371428Y-93031927D01*
X138371428Y-93031927D02*
X138447619Y-93031927D01*
X138447619Y-93031927D02*
X138485714Y-93012880D01*
X138485714Y-93012880D02*
X138504761Y-92993832D01*
X138504761Y-92993832D02*
X138523809Y-92955737D01*
X138523809Y-92955737D02*
X138523809Y-92631927D01*
X138923809Y-93031927D02*
X138695238Y-93031927D01*
X138809524Y-93031927D02*
X138809524Y-92631927D01*
X138809524Y-92631927D02*
X138771428Y-92689070D01*
X138771428Y-92689070D02*
X138733333Y-92727165D01*
X138733333Y-92727165D02*
X138695238Y-92746213D01*
D10*
X144082142Y-100759580D02*
X144034523Y-100807200D01*
X144034523Y-100807200D02*
X143891666Y-100854819D01*
X143891666Y-100854819D02*
X143796428Y-100854819D01*
X143796428Y-100854819D02*
X143653571Y-100807200D01*
X143653571Y-100807200D02*
X143558333Y-100711961D01*
X143558333Y-100711961D02*
X143510714Y-100616723D01*
X143510714Y-100616723D02*
X143463095Y-100426247D01*
X143463095Y-100426247D02*
X143463095Y-100283390D01*
X143463095Y-100283390D02*
X143510714Y-100092914D01*
X143510714Y-100092914D02*
X143558333Y-99997676D01*
X143558333Y-99997676D02*
X143653571Y-99902438D01*
X143653571Y-99902438D02*
X143796428Y-99854819D01*
X143796428Y-99854819D02*
X143891666Y-99854819D01*
X143891666Y-99854819D02*
X144034523Y-99902438D01*
X144034523Y-99902438D02*
X144082142Y-99950057D01*
X144510714Y-100854819D02*
X144510714Y-99854819D01*
X144510714Y-99854819D02*
X144748809Y-99854819D01*
X144748809Y-99854819D02*
X144891666Y-99902438D01*
X144891666Y-99902438D02*
X144986904Y-99997676D01*
X144986904Y-99997676D02*
X145034523Y-100092914D01*
X145034523Y-100092914D02*
X145082142Y-100283390D01*
X145082142Y-100283390D02*
X145082142Y-100426247D01*
X145082142Y-100426247D02*
X145034523Y-100616723D01*
X145034523Y-100616723D02*
X144986904Y-100711961D01*
X144986904Y-100711961D02*
X144891666Y-100807200D01*
X144891666Y-100807200D02*
X144748809Y-100854819D01*
X144748809Y-100854819D02*
X144510714Y-100854819D01*
X146082142Y-100759580D02*
X146034523Y-100807200D01*
X146034523Y-100807200D02*
X145891666Y-100854819D01*
X145891666Y-100854819D02*
X145796428Y-100854819D01*
X145796428Y-100854819D02*
X145653571Y-100807200D01*
X145653571Y-100807200D02*
X145558333Y-100711961D01*
X145558333Y-100711961D02*
X145510714Y-100616723D01*
X145510714Y-100616723D02*
X145463095Y-100426247D01*
X145463095Y-100426247D02*
X145463095Y-100283390D01*
X145463095Y-100283390D02*
X145510714Y-100092914D01*
X145510714Y-100092914D02*
X145558333Y-99997676D01*
X145558333Y-99997676D02*
X145653571Y-99902438D01*
X145653571Y-99902438D02*
X145796428Y-99854819D01*
X145796428Y-99854819D02*
X145891666Y-99854819D01*
X145891666Y-99854819D02*
X146034523Y-99902438D01*
X146034523Y-99902438D02*
X146082142Y-99950057D01*
X146510714Y-100331009D02*
X146844047Y-100331009D01*
X146986904Y-100854819D02*
X146510714Y-100854819D01*
X146510714Y-100854819D02*
X146510714Y-99854819D01*
X146510714Y-99854819D02*
X146986904Y-99854819D01*
X147463095Y-100854819D02*
X147653571Y-100854819D01*
X147653571Y-100854819D02*
X147748809Y-100807200D01*
X147748809Y-100807200D02*
X147796428Y-100759580D01*
X147796428Y-100759580D02*
X147891666Y-100616723D01*
X147891666Y-100616723D02*
X147939285Y-100426247D01*
X147939285Y-100426247D02*
X147939285Y-100045295D01*
X147939285Y-100045295D02*
X147891666Y-99950057D01*
X147891666Y-99950057D02*
X147844047Y-99902438D01*
X147844047Y-99902438D02*
X147748809Y-99854819D01*
X147748809Y-99854819D02*
X147558333Y-99854819D01*
X147558333Y-99854819D02*
X147463095Y-99902438D01*
X147463095Y-99902438D02*
X147415476Y-99950057D01*
X147415476Y-99950057D02*
X147367857Y-100045295D01*
X147367857Y-100045295D02*
X147367857Y-100283390D01*
X147367857Y-100283390D02*
X147415476Y-100378628D01*
X147415476Y-100378628D02*
X147463095Y-100426247D01*
X147463095Y-100426247D02*
X147558333Y-100473866D01*
X147558333Y-100473866D02*
X147748809Y-100473866D01*
X147748809Y-100473866D02*
X147844047Y-100426247D01*
X147844047Y-100426247D02*
X147891666Y-100378628D01*
X147891666Y-100378628D02*
X147939285Y-100283390D01*
X148320238Y-99950057D02*
X148367857Y-99902438D01*
X148367857Y-99902438D02*
X148463095Y-99854819D01*
X148463095Y-99854819D02*
X148701190Y-99854819D01*
X148701190Y-99854819D02*
X148796428Y-99902438D01*
X148796428Y-99902438D02*
X148844047Y-99950057D01*
X148844047Y-99950057D02*
X148891666Y-100045295D01*
X148891666Y-100045295D02*
X148891666Y-100140533D01*
X148891666Y-100140533D02*
X148844047Y-100283390D01*
X148844047Y-100283390D02*
X148272619Y-100854819D01*
X148272619Y-100854819D02*
X148891666Y-100854819D01*
X149796428Y-99854819D02*
X149320238Y-99854819D01*
X149320238Y-99854819D02*
X149272619Y-100331009D01*
X149272619Y-100331009D02*
X149320238Y-100283390D01*
X149320238Y-100283390D02*
X149415476Y-100235771D01*
X149415476Y-100235771D02*
X149653571Y-100235771D01*
X149653571Y-100235771D02*
X149748809Y-100283390D01*
X149748809Y-100283390D02*
X149796428Y-100331009D01*
X149796428Y-100331009D02*
X149844047Y-100426247D01*
X149844047Y-100426247D02*
X149844047Y-100664342D01*
X149844047Y-100664342D02*
X149796428Y-100759580D01*
X149796428Y-100759580D02*
X149748809Y-100807200D01*
X149748809Y-100807200D02*
X149653571Y-100854819D01*
X149653571Y-100854819D02*
X149415476Y-100854819D01*
X149415476Y-100854819D02*
X149320238Y-100807200D01*
X149320238Y-100807200D02*
X149272619Y-100759580D01*
X150272619Y-100854819D02*
X150272619Y-99854819D01*
X150272619Y-99854819D02*
X150653571Y-99854819D01*
X150653571Y-99854819D02*
X150748809Y-99902438D01*
X150748809Y-99902438D02*
X150796428Y-99950057D01*
X150796428Y-99950057D02*
X150844047Y-100045295D01*
X150844047Y-100045295D02*
X150844047Y-100188152D01*
X150844047Y-100188152D02*
X150796428Y-100283390D01*
X150796428Y-100283390D02*
X150748809Y-100331009D01*
X150748809Y-100331009D02*
X150653571Y-100378628D01*
X150653571Y-100378628D02*
X150272619Y-100378628D01*
X151177381Y-99854819D02*
X151415476Y-100854819D01*
X151415476Y-100854819D02*
X151605952Y-100140533D01*
X151605952Y-100140533D02*
X151796428Y-100854819D01*
X151796428Y-100854819D02*
X152034524Y-99854819D01*
X152986904Y-100854819D02*
X152653571Y-100378628D01*
X152415476Y-100854819D02*
X152415476Y-99854819D01*
X152415476Y-99854819D02*
X152796428Y-99854819D01*
X152796428Y-99854819D02*
X152891666Y-99902438D01*
X152891666Y-99902438D02*
X152939285Y-99950057D01*
X152939285Y-99950057D02*
X152986904Y-100045295D01*
X152986904Y-100045295D02*
X152986904Y-100188152D01*
X152986904Y-100188152D02*
X152939285Y-100283390D01*
X152939285Y-100283390D02*
X152891666Y-100331009D01*
X152891666Y-100331009D02*
X152796428Y-100378628D01*
X152796428Y-100378628D02*
X152415476Y-100378628D01*
X147615476Y-96412295D02*
X147615476Y-97059914D01*
X147615476Y-97059914D02*
X147653571Y-97136104D01*
X147653571Y-97136104D02*
X147691666Y-97174200D01*
X147691666Y-97174200D02*
X147767857Y-97212295D01*
X147767857Y-97212295D02*
X147920238Y-97212295D01*
X147920238Y-97212295D02*
X147996428Y-97174200D01*
X147996428Y-97174200D02*
X148034523Y-97136104D01*
X148034523Y-97136104D02*
X148072619Y-97059914D01*
X148072619Y-97059914D02*
X148072619Y-96412295D01*
X148415475Y-96488485D02*
X148453571Y-96450390D01*
X148453571Y-96450390D02*
X148529761Y-96412295D01*
X148529761Y-96412295D02*
X148720237Y-96412295D01*
X148720237Y-96412295D02*
X148796428Y-96450390D01*
X148796428Y-96450390D02*
X148834523Y-96488485D01*
X148834523Y-96488485D02*
X148872618Y-96564676D01*
X148872618Y-96564676D02*
X148872618Y-96640866D01*
X148872618Y-96640866D02*
X148834523Y-96755152D01*
X148834523Y-96755152D02*
X148377380Y-97212295D01*
X148377380Y-97212295D02*
X148872618Y-97212295D01*
X145938095Y-94175057D02*
X145985714Y-94127438D01*
X145985714Y-94127438D02*
X146080952Y-94079819D01*
X146080952Y-94079819D02*
X146319047Y-94079819D01*
X146319047Y-94079819D02*
X146414285Y-94127438D01*
X146414285Y-94127438D02*
X146461904Y-94175057D01*
X146461904Y-94175057D02*
X146509523Y-94270295D01*
X146509523Y-94270295D02*
X146509523Y-94365533D01*
X146509523Y-94365533D02*
X146461904Y-94508390D01*
X146461904Y-94508390D02*
X145890476Y-95079819D01*
X145890476Y-95079819D02*
X146509523Y-95079819D01*
X146842857Y-94079819D02*
X147509523Y-94079819D01*
X147509523Y-94079819D02*
X147080952Y-95079819D01*
X147890476Y-95079819D02*
X147890476Y-94079819D01*
X147890476Y-94079819D02*
X148223809Y-94794104D01*
X148223809Y-94794104D02*
X148557142Y-94079819D01*
X148557142Y-94079819D02*
X148557142Y-95079819D01*
X149033333Y-95079819D02*
X149033333Y-94079819D01*
X149033333Y-94556009D02*
X149604761Y-94556009D01*
X149604761Y-95079819D02*
X149604761Y-94079819D01*
X149985714Y-94413152D02*
X150509523Y-94413152D01*
X150509523Y-94413152D02*
X149985714Y-95079819D01*
X149985714Y-95079819D02*
X150509523Y-95079819D01*
X147723809Y-91053628D02*
X147723809Y-91529819D01*
X147390476Y-90529819D02*
X147723809Y-91053628D01*
X147723809Y-91053628D02*
X148057142Y-90529819D01*
X148914285Y-91529819D02*
X148342857Y-91529819D01*
X148628571Y-91529819D02*
X148628571Y-90529819D01*
X148628571Y-90529819D02*
X148533333Y-90672676D01*
X148533333Y-90672676D02*
X148438095Y-90767914D01*
X148438095Y-90767914D02*
X148342857Y-90815533D01*
X151419580Y-106909524D02*
X151467200Y-106957143D01*
X151467200Y-106957143D02*
X151514819Y-107100000D01*
X151514819Y-107100000D02*
X151514819Y-107195238D01*
X151514819Y-107195238D02*
X151467200Y-107338095D01*
X151467200Y-107338095D02*
X151371961Y-107433333D01*
X151371961Y-107433333D02*
X151276723Y-107480952D01*
X151276723Y-107480952D02*
X151086247Y-107528571D01*
X151086247Y-107528571D02*
X150943390Y-107528571D01*
X150943390Y-107528571D02*
X150752914Y-107480952D01*
X150752914Y-107480952D02*
X150657676Y-107433333D01*
X150657676Y-107433333D02*
X150562438Y-107338095D01*
X150562438Y-107338095D02*
X150514819Y-107195238D01*
X150514819Y-107195238D02*
X150514819Y-107100000D01*
X150514819Y-107100000D02*
X150562438Y-106957143D01*
X150562438Y-106957143D02*
X150610057Y-106909524D01*
X151514819Y-106338095D02*
X151467200Y-106433333D01*
X151467200Y-106433333D02*
X151419580Y-106480952D01*
X151419580Y-106480952D02*
X151324342Y-106528571D01*
X151324342Y-106528571D02*
X151038628Y-106528571D01*
X151038628Y-106528571D02*
X150943390Y-106480952D01*
X150943390Y-106480952D02*
X150895771Y-106433333D01*
X150895771Y-106433333D02*
X150848152Y-106338095D01*
X150848152Y-106338095D02*
X150848152Y-106195238D01*
X150848152Y-106195238D02*
X150895771Y-106100000D01*
X150895771Y-106100000D02*
X150943390Y-106052381D01*
X150943390Y-106052381D02*
X151038628Y-106004762D01*
X151038628Y-106004762D02*
X151324342Y-106004762D01*
X151324342Y-106004762D02*
X151419580Y-106052381D01*
X151419580Y-106052381D02*
X151467200Y-106100000D01*
X151467200Y-106100000D02*
X151514819Y-106195238D01*
X151514819Y-106195238D02*
X151514819Y-106338095D01*
X150848152Y-105576190D02*
X151514819Y-105576190D01*
X150943390Y-105576190D02*
X150895771Y-105528571D01*
X150895771Y-105528571D02*
X150848152Y-105433333D01*
X150848152Y-105433333D02*
X150848152Y-105290476D01*
X150848152Y-105290476D02*
X150895771Y-105195238D01*
X150895771Y-105195238D02*
X150991009Y-105147619D01*
X150991009Y-105147619D02*
X151514819Y-105147619D01*
X150848152Y-104671428D02*
X151514819Y-104671428D01*
X150943390Y-104671428D02*
X150895771Y-104623809D01*
X150895771Y-104623809D02*
X150848152Y-104528571D01*
X150848152Y-104528571D02*
X150848152Y-104385714D01*
X150848152Y-104385714D02*
X150895771Y-104290476D01*
X150895771Y-104290476D02*
X150991009Y-104242857D01*
X150991009Y-104242857D02*
X151514819Y-104242857D01*
X151610057Y-104004762D02*
X151610057Y-103242857D01*
X150514819Y-102814285D02*
X150514819Y-102719047D01*
X150514819Y-102719047D02*
X150562438Y-102623809D01*
X150562438Y-102623809D02*
X150610057Y-102576190D01*
X150610057Y-102576190D02*
X150705295Y-102528571D01*
X150705295Y-102528571D02*
X150895771Y-102480952D01*
X150895771Y-102480952D02*
X151133866Y-102480952D01*
X151133866Y-102480952D02*
X151324342Y-102528571D01*
X151324342Y-102528571D02*
X151419580Y-102576190D01*
X151419580Y-102576190D02*
X151467200Y-102623809D01*
X151467200Y-102623809D02*
X151514819Y-102719047D01*
X151514819Y-102719047D02*
X151514819Y-102814285D01*
X151514819Y-102814285D02*
X151467200Y-102909523D01*
X151467200Y-102909523D02*
X151419580Y-102957142D01*
X151419580Y-102957142D02*
X151324342Y-103004761D01*
X151324342Y-103004761D02*
X151133866Y-103052380D01*
X151133866Y-103052380D02*
X150895771Y-103052380D01*
X150895771Y-103052380D02*
X150705295Y-103004761D01*
X150705295Y-103004761D02*
X150610057Y-102957142D01*
X150610057Y-102957142D02*
X150562438Y-102909523D01*
X150562438Y-102909523D02*
X150514819Y-102814285D01*
X151514819Y-101528571D02*
X151514819Y-102099999D01*
X151514819Y-101814285D02*
X150514819Y-101814285D01*
X150514819Y-101814285D02*
X150657676Y-101909523D01*
X150657676Y-101909523D02*
X150752914Y-102004761D01*
X150752914Y-102004761D02*
X150800533Y-102099999D01*
X151514819Y-101195237D02*
X150848152Y-100671428D01*
X150848152Y-101195237D02*
X151514819Y-100671428D01*
X150514819Y-100099999D02*
X150514819Y-100004761D01*
X150514819Y-100004761D02*
X150562438Y-99909523D01*
X150562438Y-99909523D02*
X150610057Y-99861904D01*
X150610057Y-99861904D02*
X150705295Y-99814285D01*
X150705295Y-99814285D02*
X150895771Y-99766666D01*
X150895771Y-99766666D02*
X151133866Y-99766666D01*
X151133866Y-99766666D02*
X151324342Y-99814285D01*
X151324342Y-99814285D02*
X151419580Y-99861904D01*
X151419580Y-99861904D02*
X151467200Y-99909523D01*
X151467200Y-99909523D02*
X151514819Y-100004761D01*
X151514819Y-100004761D02*
X151514819Y-100099999D01*
X151514819Y-100099999D02*
X151467200Y-100195237D01*
X151467200Y-100195237D02*
X151419580Y-100242856D01*
X151419580Y-100242856D02*
X151324342Y-100290475D01*
X151324342Y-100290475D02*
X151133866Y-100338094D01*
X151133866Y-100338094D02*
X150895771Y-100338094D01*
X150895771Y-100338094D02*
X150705295Y-100290475D01*
X150705295Y-100290475D02*
X150610057Y-100242856D01*
X150610057Y-100242856D02*
X150562438Y-100195237D01*
X150562438Y-100195237D02*
X150514819Y-100099999D01*
X150848152Y-98909523D02*
X151514819Y-98909523D01*
X150467200Y-99147618D02*
X151181485Y-99385713D01*
X151181485Y-99385713D02*
X151181485Y-98766666D01*
X151610057Y-98623809D02*
X151610057Y-97861904D01*
X151514819Y-97623808D02*
X150514819Y-97623808D01*
X150514819Y-97623808D02*
X150514819Y-97242856D01*
X150514819Y-97242856D02*
X150562438Y-97147618D01*
X150562438Y-97147618D02*
X150610057Y-97099999D01*
X150610057Y-97099999D02*
X150705295Y-97052380D01*
X150705295Y-97052380D02*
X150848152Y-97052380D01*
X150848152Y-97052380D02*
X150943390Y-97099999D01*
X150943390Y-97099999D02*
X150991009Y-97147618D01*
X150991009Y-97147618D02*
X151038628Y-97242856D01*
X151038628Y-97242856D02*
X151038628Y-97623808D01*
X151514819Y-96623808D02*
X150848152Y-96623808D01*
X150514819Y-96623808D02*
X150562438Y-96671427D01*
X150562438Y-96671427D02*
X150610057Y-96623808D01*
X150610057Y-96623808D02*
X150562438Y-96576189D01*
X150562438Y-96576189D02*
X150514819Y-96623808D01*
X150514819Y-96623808D02*
X150610057Y-96623808D01*
X150848152Y-96147618D02*
X151514819Y-96147618D01*
X150943390Y-96147618D02*
X150895771Y-96099999D01*
X150895771Y-96099999D02*
X150848152Y-96004761D01*
X150848152Y-96004761D02*
X150848152Y-95861904D01*
X150848152Y-95861904D02*
X150895771Y-95766666D01*
X150895771Y-95766666D02*
X150991009Y-95719047D01*
X150991009Y-95719047D02*
X151514819Y-95719047D01*
X145666666Y-101054819D02*
X145666666Y-101769104D01*
X145666666Y-101769104D02*
X145619047Y-101911961D01*
X145619047Y-101911961D02*
X145523809Y-102007200D01*
X145523809Y-102007200D02*
X145380952Y-102054819D01*
X145380952Y-102054819D02*
X145285714Y-102054819D01*
X146095238Y-101150057D02*
X146142857Y-101102438D01*
X146142857Y-101102438D02*
X146238095Y-101054819D01*
X146238095Y-101054819D02*
X146476190Y-101054819D01*
X146476190Y-101054819D02*
X146571428Y-101102438D01*
X146571428Y-101102438D02*
X146619047Y-101150057D01*
X146619047Y-101150057D02*
X146666666Y-101245295D01*
X146666666Y-101245295D02*
X146666666Y-101340533D01*
X146666666Y-101340533D02*
X146619047Y-101483390D01*
X146619047Y-101483390D02*
X146047619Y-102054819D01*
X146047619Y-102054819D02*
X146666666Y-102054819D01*
X136688095Y-92507200D02*
X136830952Y-92554819D01*
X136830952Y-92554819D02*
X137069047Y-92554819D01*
X137069047Y-92554819D02*
X137164285Y-92507200D01*
X137164285Y-92507200D02*
X137211904Y-92459580D01*
X137211904Y-92459580D02*
X137259523Y-92364342D01*
X137259523Y-92364342D02*
X137259523Y-92269104D01*
X137259523Y-92269104D02*
X137211904Y-92173866D01*
X137211904Y-92173866D02*
X137164285Y-92126247D01*
X137164285Y-92126247D02*
X137069047Y-92078628D01*
X137069047Y-92078628D02*
X136878571Y-92031009D01*
X136878571Y-92031009D02*
X136783333Y-91983390D01*
X136783333Y-91983390D02*
X136735714Y-91935771D01*
X136735714Y-91935771D02*
X136688095Y-91840533D01*
X136688095Y-91840533D02*
X136688095Y-91745295D01*
X136688095Y-91745295D02*
X136735714Y-91650057D01*
X136735714Y-91650057D02*
X136783333Y-91602438D01*
X136783333Y-91602438D02*
X136878571Y-91554819D01*
X136878571Y-91554819D02*
X137116666Y-91554819D01*
X137116666Y-91554819D02*
X137259523Y-91602438D01*
X137878571Y-91554819D02*
X137973809Y-91554819D01*
X137973809Y-91554819D02*
X138069047Y-91602438D01*
X138069047Y-91602438D02*
X138116666Y-91650057D01*
X138116666Y-91650057D02*
X138164285Y-91745295D01*
X138164285Y-91745295D02*
X138211904Y-91935771D01*
X138211904Y-91935771D02*
X138211904Y-92173866D01*
X138211904Y-92173866D02*
X138164285Y-92364342D01*
X138164285Y-92364342D02*
X138116666Y-92459580D01*
X138116666Y-92459580D02*
X138069047Y-92507200D01*
X138069047Y-92507200D02*
X137973809Y-92554819D01*
X137973809Y-92554819D02*
X137878571Y-92554819D01*
X137878571Y-92554819D02*
X137783333Y-92507200D01*
X137783333Y-92507200D02*
X137735714Y-92459580D01*
X137735714Y-92459580D02*
X137688095Y-92364342D01*
X137688095Y-92364342D02*
X137640476Y-92173866D01*
X137640476Y-92173866D02*
X137640476Y-91935771D01*
X137640476Y-91935771D02*
X137688095Y-91745295D01*
X137688095Y-91745295D02*
X137735714Y-91650057D01*
X137735714Y-91650057D02*
X137783333Y-91602438D01*
X137783333Y-91602438D02*
X137878571Y-91554819D01*
X137619048Y-103529819D02*
X138238095Y-103529819D01*
X138238095Y-103529819D02*
X137904762Y-103910771D01*
X137904762Y-103910771D02*
X138047619Y-103910771D01*
X138047619Y-103910771D02*
X138142857Y-103958390D01*
X138142857Y-103958390D02*
X138190476Y-104006009D01*
X138190476Y-104006009D02*
X138238095Y-104101247D01*
X138238095Y-104101247D02*
X138238095Y-104339342D01*
X138238095Y-104339342D02*
X138190476Y-104434580D01*
X138190476Y-104434580D02*
X138142857Y-104482200D01*
X138142857Y-104482200D02*
X138047619Y-104529819D01*
X138047619Y-104529819D02*
X137761905Y-104529819D01*
X137761905Y-104529819D02*
X137666667Y-104482200D01*
X137666667Y-104482200D02*
X137619048Y-104434580D01*
X138523810Y-103529819D02*
X138857143Y-104529819D01*
X138857143Y-104529819D02*
X139190476Y-103529819D01*
X139428572Y-103529819D02*
X140047619Y-103529819D01*
X140047619Y-103529819D02*
X139714286Y-103910771D01*
X139714286Y-103910771D02*
X139857143Y-103910771D01*
X139857143Y-103910771D02*
X139952381Y-103958390D01*
X139952381Y-103958390D02*
X140000000Y-104006009D01*
X140000000Y-104006009D02*
X140047619Y-104101247D01*
X140047619Y-104101247D02*
X140047619Y-104339342D01*
X140047619Y-104339342D02*
X140000000Y-104434580D01*
X140000000Y-104434580D02*
X139952381Y-104482200D01*
X139952381Y-104482200D02*
X139857143Y-104529819D01*
X139857143Y-104529819D02*
X139571429Y-104529819D01*
X139571429Y-104529819D02*
X139476191Y-104482200D01*
X139476191Y-104482200D02*
X139428572Y-104434580D01*
X140238096Y-104625057D02*
X141000000Y-104625057D01*
X141238096Y-104529819D02*
X141238096Y-103529819D01*
X141714286Y-104529819D02*
X141714286Y-103529819D01*
X141714286Y-103529819D02*
X142285714Y-104529819D01*
X142285714Y-104529819D02*
X142285714Y-103529819D01*
X136738095Y-103577438D02*
X136642857Y-103529819D01*
X136642857Y-103529819D02*
X136500000Y-103529819D01*
X136500000Y-103529819D02*
X136357143Y-103577438D01*
X136357143Y-103577438D02*
X136261905Y-103672676D01*
X136261905Y-103672676D02*
X136214286Y-103767914D01*
X136214286Y-103767914D02*
X136166667Y-103958390D01*
X136166667Y-103958390D02*
X136166667Y-104101247D01*
X136166667Y-104101247D02*
X136214286Y-104291723D01*
X136214286Y-104291723D02*
X136261905Y-104386961D01*
X136261905Y-104386961D02*
X136357143Y-104482200D01*
X136357143Y-104482200D02*
X136500000Y-104529819D01*
X136500000Y-104529819D02*
X136595238Y-104529819D01*
X136595238Y-104529819D02*
X136738095Y-104482200D01*
X136738095Y-104482200D02*
X136785714Y-104434580D01*
X136785714Y-104434580D02*
X136785714Y-104101247D01*
X136785714Y-104101247D02*
X136595238Y-104101247D01*
X137214286Y-104529819D02*
X137214286Y-103529819D01*
X137214286Y-103529819D02*
X137785714Y-104529819D01*
X137785714Y-104529819D02*
X137785714Y-103529819D01*
X138261905Y-104529819D02*
X138261905Y-103529819D01*
X138261905Y-103529819D02*
X138500000Y-103529819D01*
X138500000Y-103529819D02*
X138642857Y-103577438D01*
X138642857Y-103577438D02*
X138738095Y-103672676D01*
X138738095Y-103672676D02*
X138785714Y-103767914D01*
X138785714Y-103767914D02*
X138833333Y-103958390D01*
X138833333Y-103958390D02*
X138833333Y-104101247D01*
X138833333Y-104101247D02*
X138785714Y-104291723D01*
X138785714Y-104291723D02*
X138738095Y-104386961D01*
X138738095Y-104386961D02*
X138642857Y-104482200D01*
X138642857Y-104482200D02*
X138500000Y-104529819D01*
X138500000Y-104529819D02*
X138261905Y-104529819D01*
X152678571Y-97334580D02*
X152630952Y-97382200D01*
X152630952Y-97382200D02*
X152488095Y-97429819D01*
X152488095Y-97429819D02*
X152392857Y-97429819D01*
X152392857Y-97429819D02*
X152250000Y-97382200D01*
X152250000Y-97382200D02*
X152154762Y-97286961D01*
X152154762Y-97286961D02*
X152107143Y-97191723D01*
X152107143Y-97191723D02*
X152059524Y-97001247D01*
X152059524Y-97001247D02*
X152059524Y-96858390D01*
X152059524Y-96858390D02*
X152107143Y-96667914D01*
X152107143Y-96667914D02*
X152154762Y-96572676D01*
X152154762Y-96572676D02*
X152250000Y-96477438D01*
X152250000Y-96477438D02*
X152392857Y-96429819D01*
X152392857Y-96429819D02*
X152488095Y-96429819D01*
X152488095Y-96429819D02*
X152630952Y-96477438D01*
X152630952Y-96477438D02*
X152678571Y-96525057D01*
X153583333Y-97429819D02*
X153107143Y-97429819D01*
X153107143Y-97429819D02*
X153107143Y-96429819D01*
X153916667Y-97429819D02*
X153916667Y-96429819D01*
X154488095Y-97429819D02*
X154059524Y-96858390D01*
X154488095Y-96429819D02*
X153916667Y-97001247D01*
X155440476Y-97429819D02*
X154869048Y-97429819D01*
X155154762Y-97429819D02*
X155154762Y-96429819D01*
X155154762Y-96429819D02*
X155059524Y-96572676D01*
X155059524Y-96572676D02*
X154964286Y-96667914D01*
X154964286Y-96667914D02*
X154869048Y-96715533D01*
X152678571Y-104459580D02*
X152630952Y-104507200D01*
X152630952Y-104507200D02*
X152488095Y-104554819D01*
X152488095Y-104554819D02*
X152392857Y-104554819D01*
X152392857Y-104554819D02*
X152250000Y-104507200D01*
X152250000Y-104507200D02*
X152154762Y-104411961D01*
X152154762Y-104411961D02*
X152107143Y-104316723D01*
X152107143Y-104316723D02*
X152059524Y-104126247D01*
X152059524Y-104126247D02*
X152059524Y-103983390D01*
X152059524Y-103983390D02*
X152107143Y-103792914D01*
X152107143Y-103792914D02*
X152154762Y-103697676D01*
X152154762Y-103697676D02*
X152250000Y-103602438D01*
X152250000Y-103602438D02*
X152392857Y-103554819D01*
X152392857Y-103554819D02*
X152488095Y-103554819D01*
X152488095Y-103554819D02*
X152630952Y-103602438D01*
X152630952Y-103602438D02*
X152678571Y-103650057D01*
X153583333Y-104554819D02*
X153107143Y-104554819D01*
X153107143Y-104554819D02*
X153107143Y-103554819D01*
X153916667Y-104554819D02*
X153916667Y-103554819D01*
X154488095Y-104554819D02*
X154059524Y-103983390D01*
X154488095Y-103554819D02*
X153916667Y-104126247D01*
X154869048Y-103650057D02*
X154916667Y-103602438D01*
X154916667Y-103602438D02*
X155011905Y-103554819D01*
X155011905Y-103554819D02*
X155250000Y-103554819D01*
X155250000Y-103554819D02*
X155345238Y-103602438D01*
X155345238Y-103602438D02*
X155392857Y-103650057D01*
X155392857Y-103650057D02*
X155440476Y-103745295D01*
X155440476Y-103745295D02*
X155440476Y-103840533D01*
X155440476Y-103840533D02*
X155392857Y-103983390D01*
X155392857Y-103983390D02*
X154821429Y-104554819D01*
X154821429Y-104554819D02*
X155440476Y-104554819D01*
X150154819Y-101466666D02*
X150154819Y-102038094D01*
X150154819Y-101752380D02*
X149154819Y-101752380D01*
X149154819Y-101752380D02*
X149297676Y-101847618D01*
X149297676Y-101847618D02*
X149392914Y-101942856D01*
X149392914Y-101942856D02*
X149440533Y-102038094D01*
X149488152Y-100609523D02*
X150154819Y-100609523D01*
X149488152Y-101038094D02*
X150011961Y-101038094D01*
X150011961Y-101038094D02*
X150107200Y-100990475D01*
X150107200Y-100990475D02*
X150154819Y-100895237D01*
X150154819Y-100895237D02*
X150154819Y-100752380D01*
X150154819Y-100752380D02*
X150107200Y-100657142D01*
X150107200Y-100657142D02*
X150059580Y-100609523D01*
D11*
X151281314Y-101399999D02*
X151295600Y-101414285D01*
X151295600Y-101414285D02*
X151309885Y-101457142D01*
X151309885Y-101457142D02*
X151309885Y-101485714D01*
X151309885Y-101485714D02*
X151295600Y-101528571D01*
X151295600Y-101528571D02*
X151267028Y-101557142D01*
X151267028Y-101557142D02*
X151238457Y-101571428D01*
X151238457Y-101571428D02*
X151181314Y-101585714D01*
X151181314Y-101585714D02*
X151138457Y-101585714D01*
X151138457Y-101585714D02*
X151081314Y-101571428D01*
X151081314Y-101571428D02*
X151052742Y-101557142D01*
X151052742Y-101557142D02*
X151024171Y-101528571D01*
X151024171Y-101528571D02*
X151009885Y-101485714D01*
X151009885Y-101485714D02*
X151009885Y-101457142D01*
X151009885Y-101457142D02*
X151024171Y-101414285D01*
X151024171Y-101414285D02*
X151038457Y-101399999D01*
X151109885Y-101142857D02*
X151309885Y-101142857D01*
X150995600Y-101214285D02*
X151209885Y-101285714D01*
X151209885Y-101285714D02*
X151209885Y-101099999D01*
D10*
X133171428Y-98104819D02*
X133742856Y-98104819D01*
X133457142Y-99104819D02*
X133457142Y-98104819D01*
X134552380Y-99104819D02*
X134076190Y-99104819D01*
X134076190Y-99104819D02*
X134076190Y-98104819D01*
X134742857Y-98104819D02*
X135076190Y-99104819D01*
X135076190Y-99104819D02*
X135409523Y-98104819D01*
X135647619Y-98104819D02*
X136314285Y-98104819D01*
X136314285Y-98104819D02*
X135885714Y-99104819D01*
X137171428Y-98104819D02*
X136695238Y-98104819D01*
X136695238Y-98104819D02*
X136647619Y-98581009D01*
X136647619Y-98581009D02*
X136695238Y-98533390D01*
X136695238Y-98533390D02*
X136790476Y-98485771D01*
X136790476Y-98485771D02*
X137028571Y-98485771D01*
X137028571Y-98485771D02*
X137123809Y-98533390D01*
X137123809Y-98533390D02*
X137171428Y-98581009D01*
X137171428Y-98581009D02*
X137219047Y-98676247D01*
X137219047Y-98676247D02*
X137219047Y-98914342D01*
X137219047Y-98914342D02*
X137171428Y-99009580D01*
X137171428Y-99009580D02*
X137123809Y-99057200D01*
X137123809Y-99057200D02*
X137028571Y-99104819D01*
X137028571Y-99104819D02*
X136790476Y-99104819D01*
X136790476Y-99104819D02*
X136695238Y-99057200D01*
X136695238Y-99057200D02*
X136647619Y-99009580D01*
X137552381Y-98104819D02*
X138219047Y-98104819D01*
X138219047Y-98104819D02*
X137790476Y-99104819D01*
X138504762Y-98104819D02*
X139123809Y-98104819D01*
X139123809Y-98104819D02*
X138790476Y-98485771D01*
X138790476Y-98485771D02*
X138933333Y-98485771D01*
X138933333Y-98485771D02*
X139028571Y-98533390D01*
X139028571Y-98533390D02*
X139076190Y-98581009D01*
X139076190Y-98581009D02*
X139123809Y-98676247D01*
X139123809Y-98676247D02*
X139123809Y-98914342D01*
X139123809Y-98914342D02*
X139076190Y-99009580D01*
X139076190Y-99009580D02*
X139028571Y-99057200D01*
X139028571Y-99057200D02*
X138933333Y-99104819D01*
X138933333Y-99104819D02*
X138647619Y-99104819D01*
X138647619Y-99104819D02*
X138552381Y-99057200D01*
X138552381Y-99057200D02*
X138504762Y-99009580D01*
X139457143Y-98104819D02*
X140076190Y-98104819D01*
X140076190Y-98104819D02*
X139742857Y-98485771D01*
X139742857Y-98485771D02*
X139885714Y-98485771D01*
X139885714Y-98485771D02*
X139980952Y-98533390D01*
X139980952Y-98533390D02*
X140028571Y-98581009D01*
X140028571Y-98581009D02*
X140076190Y-98676247D01*
X140076190Y-98676247D02*
X140076190Y-98914342D01*
X140076190Y-98914342D02*
X140028571Y-99009580D01*
X140028571Y-99009580D02*
X139980952Y-99057200D01*
X139980952Y-99057200D02*
X139885714Y-99104819D01*
X139885714Y-99104819D02*
X139600000Y-99104819D01*
X139600000Y-99104819D02*
X139504762Y-99057200D01*
X139504762Y-99057200D02*
X139457143Y-99009580D01*
X140504762Y-99104819D02*
X140504762Y-98104819D01*
X140504762Y-98104819D02*
X140885714Y-98104819D01*
X140885714Y-98104819D02*
X140980952Y-98152438D01*
X140980952Y-98152438D02*
X141028571Y-98200057D01*
X141028571Y-98200057D02*
X141076190Y-98295295D01*
X141076190Y-98295295D02*
X141076190Y-98438152D01*
X141076190Y-98438152D02*
X141028571Y-98533390D01*
X141028571Y-98533390D02*
X140980952Y-98581009D01*
X140980952Y-98581009D02*
X140885714Y-98628628D01*
X140885714Y-98628628D02*
X140504762Y-98628628D01*
X141504762Y-99104819D02*
X141504762Y-98104819D01*
X141504762Y-98104819D02*
X141742857Y-98104819D01*
X141742857Y-98104819D02*
X141885714Y-98152438D01*
X141885714Y-98152438D02*
X141980952Y-98247676D01*
X141980952Y-98247676D02*
X142028571Y-98342914D01*
X142028571Y-98342914D02*
X142076190Y-98533390D01*
X142076190Y-98533390D02*
X142076190Y-98676247D01*
X142076190Y-98676247D02*
X142028571Y-98866723D01*
X142028571Y-98866723D02*
X141980952Y-98961961D01*
X141980952Y-98961961D02*
X141885714Y-99057200D01*
X141885714Y-99057200D02*
X141742857Y-99104819D01*
X141742857Y-99104819D02*
X141504762Y-99104819D01*
X142838095Y-98581009D02*
X142980952Y-98628628D01*
X142980952Y-98628628D02*
X143028571Y-98676247D01*
X143028571Y-98676247D02*
X143076190Y-98771485D01*
X143076190Y-98771485D02*
X143076190Y-98914342D01*
X143076190Y-98914342D02*
X143028571Y-99009580D01*
X143028571Y-99009580D02*
X142980952Y-99057200D01*
X142980952Y-99057200D02*
X142885714Y-99104819D01*
X142885714Y-99104819D02*
X142504762Y-99104819D01*
X142504762Y-99104819D02*
X142504762Y-98104819D01*
X142504762Y-98104819D02*
X142838095Y-98104819D01*
X142838095Y-98104819D02*
X142933333Y-98152438D01*
X142933333Y-98152438D02*
X142980952Y-98200057D01*
X142980952Y-98200057D02*
X143028571Y-98295295D01*
X143028571Y-98295295D02*
X143028571Y-98390533D01*
X143028571Y-98390533D02*
X142980952Y-98485771D01*
X142980952Y-98485771D02*
X142933333Y-98533390D01*
X142933333Y-98533390D02*
X142838095Y-98581009D01*
X142838095Y-98581009D02*
X142504762Y-98581009D01*
X143361905Y-98104819D02*
X143695238Y-99104819D01*
X143695238Y-99104819D02*
X144028571Y-98104819D01*
D12*
X138295238Y-96031927D02*
X138295238Y-96355737D01*
X138295238Y-96355737D02*
X138314285Y-96393832D01*
X138314285Y-96393832D02*
X138333333Y-96412880D01*
X138333333Y-96412880D02*
X138371428Y-96431927D01*
X138371428Y-96431927D02*
X138447619Y-96431927D01*
X138447619Y-96431927D02*
X138485714Y-96412880D01*
X138485714Y-96412880D02*
X138504761Y-96393832D01*
X138504761Y-96393832D02*
X138523809Y-96355737D01*
X138523809Y-96355737D02*
X138523809Y-96031927D01*
X138676190Y-96031927D02*
X138923809Y-96031927D01*
X138923809Y-96031927D02*
X138790476Y-96184308D01*
X138790476Y-96184308D02*
X138847619Y-96184308D01*
X138847619Y-96184308D02*
X138885714Y-96203356D01*
X138885714Y-96203356D02*
X138904762Y-96222403D01*
X138904762Y-96222403D02*
X138923809Y-96260499D01*
X138923809Y-96260499D02*
X138923809Y-96355737D01*
X138923809Y-96355737D02*
X138904762Y-96393832D01*
X138904762Y-96393832D02*
X138885714Y-96412880D01*
X138885714Y-96412880D02*
X138847619Y-96431927D01*
X138847619Y-96431927D02*
X138733333Y-96431927D01*
X138733333Y-96431927D02*
X138695238Y-96412880D01*
X138695238Y-96412880D02*
X138676190Y-96393832D01*
D10*
X138954819Y-99566666D02*
X138954819Y-100138094D01*
X138954819Y-99852380D02*
X137954819Y-99852380D01*
X137954819Y-99852380D02*
X138097676Y-99947618D01*
X138097676Y-99947618D02*
X138192914Y-100042856D01*
X138192914Y-100042856D02*
X138240533Y-100138094D01*
X138288152Y-98709523D02*
X138954819Y-98709523D01*
X138288152Y-99138094D02*
X138811961Y-99138094D01*
X138811961Y-99138094D02*
X138907200Y-99090475D01*
X138907200Y-99090475D02*
X138954819Y-98995237D01*
X138954819Y-98995237D02*
X138954819Y-98852380D01*
X138954819Y-98852380D02*
X138907200Y-98757142D01*
X138907200Y-98757142D02*
X138859580Y-98709523D01*
D11*
X140106314Y-99449999D02*
X140120600Y-99464285D01*
X140120600Y-99464285D02*
X140134885Y-99507142D01*
X140134885Y-99507142D02*
X140134885Y-99535714D01*
X140134885Y-99535714D02*
X140120600Y-99578571D01*
X140120600Y-99578571D02*
X140092028Y-99607142D01*
X140092028Y-99607142D02*
X140063457Y-99621428D01*
X140063457Y-99621428D02*
X140006314Y-99635714D01*
X140006314Y-99635714D02*
X139963457Y-99635714D01*
X139963457Y-99635714D02*
X139906314Y-99621428D01*
X139906314Y-99621428D02*
X139877742Y-99607142D01*
X139877742Y-99607142D02*
X139849171Y-99578571D01*
X139849171Y-99578571D02*
X139834885Y-99535714D01*
X139834885Y-99535714D02*
X139834885Y-99507142D01*
X139834885Y-99507142D02*
X139849171Y-99464285D01*
X139849171Y-99464285D02*
X139863457Y-99449999D01*
X139834885Y-99178571D02*
X139834885Y-99321428D01*
X139834885Y-99321428D02*
X139977742Y-99335714D01*
X139977742Y-99335714D02*
X139963457Y-99321428D01*
X139963457Y-99321428D02*
X139949171Y-99292857D01*
X139949171Y-99292857D02*
X139949171Y-99221428D01*
X139949171Y-99221428D02*
X139963457Y-99192857D01*
X139963457Y-99192857D02*
X139977742Y-99178571D01*
X139977742Y-99178571D02*
X140006314Y-99164285D01*
X140006314Y-99164285D02*
X140077742Y-99164285D01*
X140077742Y-99164285D02*
X140106314Y-99178571D01*
X140106314Y-99178571D02*
X140120600Y-99192857D01*
X140120600Y-99192857D02*
X140134885Y-99221428D01*
X140134885Y-99221428D02*
X140134885Y-99292857D01*
X140134885Y-99292857D02*
X140120600Y-99321428D01*
X140120600Y-99321428D02*
X140106314Y-99335714D01*
D10*
X136166666Y-100954819D02*
X135690476Y-100954819D01*
X135690476Y-100954819D02*
X135642857Y-101431009D01*
X135642857Y-101431009D02*
X135690476Y-101383390D01*
X135690476Y-101383390D02*
X135785714Y-101335771D01*
X135785714Y-101335771D02*
X136023809Y-101335771D01*
X136023809Y-101335771D02*
X136119047Y-101383390D01*
X136119047Y-101383390D02*
X136166666Y-101431009D01*
X136166666Y-101431009D02*
X136214285Y-101526247D01*
X136214285Y-101526247D02*
X136214285Y-101764342D01*
X136214285Y-101764342D02*
X136166666Y-101859580D01*
X136166666Y-101859580D02*
X136119047Y-101907200D01*
X136119047Y-101907200D02*
X136023809Y-101954819D01*
X136023809Y-101954819D02*
X135785714Y-101954819D01*
X135785714Y-101954819D02*
X135690476Y-101907200D01*
X135690476Y-101907200D02*
X135642857Y-101859580D01*
X136500000Y-100954819D02*
X136833333Y-101954819D01*
X136833333Y-101954819D02*
X137166666Y-100954819D01*
X137261905Y-102050057D02*
X138023809Y-102050057D01*
X138261905Y-101954819D02*
X138261905Y-100954819D01*
X138738095Y-101954819D02*
X138738095Y-100954819D01*
X138738095Y-100954819D02*
X139309523Y-101954819D01*
X139309523Y-101954819D02*
X139309523Y-100954819D01*
X142233333Y-99254819D02*
X141661905Y-99254819D01*
X141947619Y-99254819D02*
X141947619Y-98254819D01*
X141947619Y-98254819D02*
X141852381Y-98397676D01*
X141852381Y-98397676D02*
X141757143Y-98492914D01*
X141757143Y-98492914D02*
X141661905Y-98540533D01*
X143090476Y-98588152D02*
X143090476Y-99254819D01*
X142661905Y-98588152D02*
X142661905Y-99111961D01*
X142661905Y-99111961D02*
X142709524Y-99207200D01*
X142709524Y-99207200D02*
X142804762Y-99254819D01*
X142804762Y-99254819D02*
X142947619Y-99254819D01*
X142947619Y-99254819D02*
X143042857Y-99207200D01*
X143042857Y-99207200D02*
X143090476Y-99159580D01*
D11*
X142350000Y-97406314D02*
X142335714Y-97420600D01*
X142335714Y-97420600D02*
X142292857Y-97434885D01*
X142292857Y-97434885D02*
X142264285Y-97434885D01*
X142264285Y-97434885D02*
X142221428Y-97420600D01*
X142221428Y-97420600D02*
X142192857Y-97392028D01*
X142192857Y-97392028D02*
X142178571Y-97363457D01*
X142178571Y-97363457D02*
X142164285Y-97306314D01*
X142164285Y-97306314D02*
X142164285Y-97263457D01*
X142164285Y-97263457D02*
X142178571Y-97206314D01*
X142178571Y-97206314D02*
X142192857Y-97177742D01*
X142192857Y-97177742D02*
X142221428Y-97149171D01*
X142221428Y-97149171D02*
X142264285Y-97134885D01*
X142264285Y-97134885D02*
X142292857Y-97134885D01*
X142292857Y-97134885D02*
X142335714Y-97149171D01*
X142335714Y-97149171D02*
X142350000Y-97163457D01*
X142607143Y-97134885D02*
X142550000Y-97134885D01*
X142550000Y-97134885D02*
X142521428Y-97149171D01*
X142521428Y-97149171D02*
X142507143Y-97163457D01*
X142507143Y-97163457D02*
X142478571Y-97206314D01*
X142478571Y-97206314D02*
X142464285Y-97263457D01*
X142464285Y-97263457D02*
X142464285Y-97377742D01*
X142464285Y-97377742D02*
X142478571Y-97406314D01*
X142478571Y-97406314D02*
X142492857Y-97420600D01*
X142492857Y-97420600D02*
X142521428Y-97434885D01*
X142521428Y-97434885D02*
X142578571Y-97434885D01*
X142578571Y-97434885D02*
X142607143Y-97420600D01*
X142607143Y-97420600D02*
X142621428Y-97406314D01*
X142621428Y-97406314D02*
X142635714Y-97377742D01*
X142635714Y-97377742D02*
X142635714Y-97306314D01*
X142635714Y-97306314D02*
X142621428Y-97277742D01*
X142621428Y-97277742D02*
X142607143Y-97263457D01*
X142607143Y-97263457D02*
X142578571Y-97249171D01*
X142578571Y-97249171D02*
X142521428Y-97249171D01*
X142521428Y-97249171D02*
X142492857Y-97263457D01*
X142492857Y-97263457D02*
X142478571Y-97277742D01*
X142478571Y-97277742D02*
X142464285Y-97306314D01*
D13*
%TO.C,C1*%
X141850000Y-98875000D02*
X143450000Y-98875000D01*
X141850000Y-99675000D02*
X141850000Y-98875000D01*
X143450000Y-98875000D02*
X143450000Y-99675000D01*
X143450000Y-99675000D02*
X141850000Y-99675000D01*
%TO.C,C2*%
X141800000Y-95500000D02*
X143400000Y-95500000D01*
X141800000Y-96300000D02*
X141800000Y-95500000D01*
X143400000Y-95500000D02*
X143400000Y-96300000D01*
X143400000Y-96300000D02*
X141800000Y-96300000D01*
%TO.C,C3*%
X139050000Y-90050000D02*
X140650000Y-90050000D01*
X139050000Y-90850000D02*
X139050000Y-90050000D01*
X140650000Y-90050000D02*
X140650000Y-90850000D01*
X140650000Y-90850000D02*
X139050000Y-90850000D01*
%TO.C,R1*%
X138900000Y-88650000D02*
X140500000Y-88650000D01*
X138900000Y-89450000D02*
X138900000Y-88650000D01*
X140500000Y-88650000D02*
X140500000Y-89450000D01*
X140500000Y-89450000D02*
X138900000Y-89450000D01*
%TO.C,R2*%
X141800000Y-93975000D02*
X143400000Y-93975000D01*
X141800000Y-94775000D02*
X141800000Y-93975000D01*
X143400000Y-93975000D02*
X143400000Y-94775000D01*
X143400000Y-94775000D02*
X141800000Y-94775000D01*
%TO.C,R3*%
X152750000Y-96675000D02*
X154350000Y-96675000D01*
X152750000Y-97475000D02*
X152750000Y-96675000D01*
X154350000Y-96675000D02*
X154350000Y-97475000D01*
X154350000Y-97475000D02*
X152750000Y-97475000D01*
%TO.C,R4*%
X152825000Y-98475000D02*
X153625000Y-98475000D01*
X152825000Y-100075000D02*
X152825000Y-98475000D01*
X153625000Y-98475000D02*
X153625000Y-100075000D01*
X153625000Y-100075000D02*
X152825000Y-100075000D01*
%TO.C,U1*%
X137800000Y-91800000D02*
X138200000Y-91400000D01*
X137800000Y-94300000D02*
X137800000Y-91800000D01*
X138200000Y-91400000D02*
X139400000Y-91400000D01*
X139400000Y-91400000D02*
X139400000Y-94300000D01*
X139400000Y-94300000D02*
X137800000Y-94300000D01*
D10*
%TO.C,U2*%
X146025000Y-95350000D02*
X147025000Y-94350000D01*
X146025000Y-99350000D02*
X146025000Y-95350000D01*
X147025000Y-94350000D02*
X150425000Y-94350000D01*
X150425000Y-94350000D02*
X150425000Y-99350000D01*
X150425000Y-99350000D02*
X146025000Y-99350000D01*
D13*
%TO.C,Y1*%
X142500000Y-88725000D02*
X142500000Y-93425000D01*
X142500000Y-93425000D02*
X153900000Y-93425000D01*
X145185000Y-88960000D02*
X151215000Y-88960000D01*
X145185000Y-93190000D02*
X151215000Y-93190000D01*
X153900000Y-88725000D02*
X142500000Y-88725000D01*
X153900000Y-93425000D02*
X153900000Y-88725000D01*
X145185000Y-93190000D02*
G75*
G02*
X145185000Y-88960000I0J2115000D01*
G01*
X151215000Y-88960000D02*
G75*
G02*
X151215000Y-93190000I0J-2115000D01*
G01*
%TO.C,J2*%
X142000000Y-100600000D02*
X150000000Y-100600000D01*
X142000000Y-102100000D02*
X142000000Y-100600000D01*
X142500000Y-102600000D02*
X142000000Y-102100000D01*
X150000000Y-100600000D02*
X150000000Y-102600000D01*
X150000000Y-102600000D02*
X142500000Y-102600000D01*
%TO.C,C4*%
X150775000Y-100550000D02*
X151575000Y-100550000D01*
X150775000Y-102150000D02*
X150775000Y-100550000D01*
X151575000Y-100550000D02*
X151575000Y-102150000D01*
X151575000Y-102150000D02*
X150775000Y-102150000D01*
%TO.C,U3*%
X137800000Y-95200000D02*
X138200000Y-94800000D01*
X137800000Y-97700000D02*
X137800000Y-95200000D01*
X138200000Y-94800000D02*
X139400000Y-94800000D01*
X139400000Y-94800000D02*
X139400000Y-97700000D01*
X139400000Y-97700000D02*
X137800000Y-97700000D01*
%TO.C,C5*%
X139600000Y-98600000D02*
X140400000Y-98600000D01*
X139600000Y-100200000D02*
X139600000Y-98600000D01*
X140400000Y-98600000D02*
X140400000Y-100200000D01*
X140400000Y-100200000D02*
X139600000Y-100200000D01*
%TO.C,C6*%
X141600000Y-96900000D02*
X143200000Y-96900000D01*
X141600000Y-97700000D02*
X141600000Y-96900000D01*
X143200000Y-96900000D02*
X143200000Y-97700000D01*
X143200000Y-97700000D02*
X141600000Y-97700000D01*
%TD*%
M02*
