%TF.GenerationSoftware,KiCad,Pcbnew,9.0.6*%
%TF.CreationDate,2026-05-15T22:45:14-04:00*%
%TF.ProjectId,mfo,6d666f2e-6b69-4636-9164-5f7063625858,rev?*%
%TF.SameCoordinates,Original*%
%TF.FileFunction,Other,User*%
%FSLAX46Y46*%
G04 Gerber Fmt 4.6, Leading zero omitted, Abs format (unit mm)*
G04 Created by KiCad (PCBNEW 9.0.6) date 2026-05-15 22:45:14*
%MOMM*%
%LPD*%
G01*
G04 APERTURE LIST*
%ADD10C,0.050000*%
G04 APERTURE END LIST*
D10*
%TO.C,C1*%
X141250000Y-98625000D02*
X141250000Y-99925000D01*
X141250000Y-98625000D02*
X144050000Y-98625000D01*
X144050000Y-99925000D02*
X141250000Y-99925000D01*
X144050000Y-99925000D02*
X144050000Y-98625000D01*
%TO.C,C2*%
X141200000Y-95250000D02*
X141200000Y-96550000D01*
X141200000Y-95250000D02*
X144000000Y-95250000D01*
X144000000Y-96550000D02*
X141200000Y-96550000D01*
X144000000Y-96550000D02*
X144000000Y-95250000D01*
%TO.C,C3*%
X138450000Y-89800000D02*
X138450000Y-91100000D01*
X138450000Y-89800000D02*
X141250000Y-89800000D01*
X141250000Y-91100000D02*
X138450000Y-91100000D01*
X141250000Y-91100000D02*
X141250000Y-89800000D01*
%TO.C,R1*%
X138450000Y-88350000D02*
X138450000Y-89750000D01*
X138450000Y-88350000D02*
X140950000Y-88350000D01*
X140950000Y-89750000D02*
X138450000Y-89750000D01*
X140950000Y-89750000D02*
X140950000Y-88350000D01*
%TO.C,R2*%
X141350000Y-93675000D02*
X141350000Y-95075000D01*
X141350000Y-93675000D02*
X143850000Y-93675000D01*
X143850000Y-95075000D02*
X141350000Y-95075000D01*
X143850000Y-95075000D02*
X143850000Y-93675000D01*
%TO.C,R3*%
X152300000Y-96375000D02*
X152300000Y-97775000D01*
X152300000Y-96375000D02*
X154800000Y-96375000D01*
X154800000Y-97775000D02*
X152300000Y-97775000D01*
X154800000Y-97775000D02*
X154800000Y-96375000D01*
%TO.C,R4*%
X152525000Y-100525000D02*
X152525000Y-98025000D01*
X152525000Y-100525000D02*
X153925000Y-100525000D01*
X153925000Y-98025000D02*
X152525000Y-98025000D01*
X153925000Y-98025000D02*
X153925000Y-100525000D01*
%TO.C,U1*%
X136550000Y-91350000D02*
X137550000Y-91350000D01*
X136550000Y-94350000D02*
X136550000Y-91350000D01*
X137550000Y-91150000D02*
X139650000Y-91150000D01*
X137550000Y-91350000D02*
X137550000Y-91150000D01*
X137550000Y-94350000D02*
X136550000Y-94350000D01*
X137550000Y-94550000D02*
X137550000Y-94350000D01*
X139650000Y-91150000D02*
X139650000Y-91350000D01*
X139650000Y-91350000D02*
X140650000Y-91350000D01*
X139650000Y-94350000D02*
X139650000Y-94550000D01*
X139650000Y-94550000D02*
X137550000Y-94550000D01*
X140650000Y-91350000D02*
X140650000Y-94350000D01*
X140650000Y-94350000D02*
X139650000Y-94350000D01*
%TO.C,U2*%
X144275000Y-93950000D02*
X144275000Y-99650000D01*
X144275000Y-93950000D02*
X152175000Y-93950000D01*
X144275000Y-99650000D02*
X152175000Y-99650000D01*
X152175000Y-93950000D02*
X152175000Y-99650000D01*
%TO.C,Y1*%
X141400000Y-88475000D02*
X141400000Y-93675000D01*
X141400000Y-93675000D02*
X155000000Y-93675000D01*
X155000000Y-88475000D02*
X141400000Y-88475000D01*
X155000000Y-93675000D02*
X155000000Y-88475000D01*
%TO.C,J2*%
X141500000Y-100100000D02*
X141500000Y-103100000D01*
X141500000Y-103100000D02*
X150500000Y-103100000D01*
X150500000Y-100100000D02*
X141500000Y-100100000D01*
X150500000Y-103100000D02*
X150500000Y-100100000D01*
%TO.C,J1*%
X136450000Y-89100000D02*
X138450000Y-89100000D01*
X136450000Y-91100000D02*
X136450000Y-89100000D01*
X138450000Y-89100000D02*
X138450000Y-91100000D01*
X138450000Y-91100000D02*
X136450000Y-91100000D01*
%TO.C,J3*%
X139000000Y-101075000D02*
X141000000Y-101075000D01*
X139000000Y-103075000D02*
X139000000Y-101075000D01*
X141000000Y-101075000D02*
X141000000Y-103075000D01*
X141000000Y-103075000D02*
X139000000Y-103075000D01*
%TO.C,J4*%
X136500000Y-101075000D02*
X138500000Y-101075000D01*
X136500000Y-103075000D02*
X136500000Y-101075000D01*
X138500000Y-101075000D02*
X138500000Y-103075000D01*
X138500000Y-103075000D02*
X136500000Y-103075000D01*
%TO.C,J5*%
X152750000Y-93975000D02*
X154750000Y-93975000D01*
X152750000Y-95975000D02*
X152750000Y-93975000D01*
X154750000Y-93975000D02*
X154750000Y-95975000D01*
X154750000Y-95975000D02*
X152750000Y-95975000D01*
%TO.C,J6*%
X152750000Y-101100000D02*
X154750000Y-101100000D01*
X152750000Y-103100000D02*
X152750000Y-101100000D01*
X154750000Y-101100000D02*
X154750000Y-103100000D01*
X154750000Y-103100000D02*
X152750000Y-103100000D01*
%TO.C,C4*%
X150525000Y-102750000D02*
X150525000Y-99950000D01*
X150525000Y-102750000D02*
X151825000Y-102750000D01*
X151825000Y-99950000D02*
X150525000Y-99950000D01*
X151825000Y-99950000D02*
X151825000Y-102750000D01*
%TO.C,U3*%
X136550000Y-94750000D02*
X137550000Y-94750000D01*
X136550000Y-97750000D02*
X136550000Y-94750000D01*
X137550000Y-94550000D02*
X139650000Y-94550000D01*
X137550000Y-94750000D02*
X137550000Y-94550000D01*
X137550000Y-97750000D02*
X136550000Y-97750000D01*
X137550000Y-97950000D02*
X137550000Y-97750000D01*
X139650000Y-94550000D02*
X139650000Y-94750000D01*
X139650000Y-94750000D02*
X140650000Y-94750000D01*
X139650000Y-97750000D02*
X139650000Y-97950000D01*
X139650000Y-97950000D02*
X137550000Y-97950000D01*
X140650000Y-94750000D02*
X140650000Y-97750000D01*
X140650000Y-97750000D02*
X139650000Y-97750000D01*
%TO.C,C5*%
X139350000Y-100800000D02*
X139350000Y-98000000D01*
X139350000Y-100800000D02*
X140650000Y-100800000D01*
X140650000Y-98000000D02*
X139350000Y-98000000D01*
X140650000Y-98000000D02*
X140650000Y-100800000D01*
%TO.C,J7*%
X136500000Y-98500000D02*
X138500000Y-98500000D01*
X136500000Y-100500000D02*
X136500000Y-98500000D01*
X138500000Y-98500000D02*
X138500000Y-100500000D01*
X138500000Y-100500000D02*
X136500000Y-100500000D01*
%TO.C,C6*%
X141000000Y-96650000D02*
X141000000Y-97950000D01*
X141000000Y-96650000D02*
X143800000Y-96650000D01*
X143800000Y-97950000D02*
X141000000Y-97950000D01*
X143800000Y-97950000D02*
X143800000Y-96650000D01*
%TD*%
M02*
