%TF.GenerationSoftware,KiCad,Pcbnew,9.0.6*%
%TF.CreationDate,2026-05-15T21:14:02-04:00*%
%TF.ProjectId,mfo,6d666f2e-6b69-4636-9164-5f7063625858,rev?*%
%TF.SameCoordinates,Original*%
%TF.FileFunction,Legend,Top*%
%TF.FilePolarity,Positive*%
%FSLAX46Y46*%
G04 Gerber Fmt 4.6, Leading zero omitted, Abs format (unit mm)*
G04 Created by KiCad (PCBNEW 9.0.6) date 2026-05-15 21:14:02*
%MOMM*%
%LPD*%
G01*
G04 APERTURE LIST*
%ADD10C,0.150000*%
%ADD11C,0.120000*%
G04 APERTURE END LIST*
D10*
X152774366Y-102675000D02*
X152807700Y-102708333D01*
X152807700Y-102708333D02*
X152841033Y-102808333D01*
X152841033Y-102808333D02*
X152841033Y-102875000D01*
X152841033Y-102875000D02*
X152807700Y-102975000D01*
X152807700Y-102975000D02*
X152741033Y-103041667D01*
X152741033Y-103041667D02*
X152674366Y-103075000D01*
X152674366Y-103075000D02*
X152541033Y-103108333D01*
X152541033Y-103108333D02*
X152441033Y-103108333D01*
X152441033Y-103108333D02*
X152307700Y-103075000D01*
X152307700Y-103075000D02*
X152241033Y-103041667D01*
X152241033Y-103041667D02*
X152174366Y-102975000D01*
X152174366Y-102975000D02*
X152141033Y-102875000D01*
X152141033Y-102875000D02*
X152141033Y-102808333D01*
X152141033Y-102808333D02*
X152174366Y-102708333D01*
X152174366Y-102708333D02*
X152207700Y-102675000D01*
X152841033Y-102041667D02*
X152841033Y-102375000D01*
X152841033Y-102375000D02*
X152141033Y-102375000D01*
X152841033Y-101808333D02*
X152141033Y-101808333D01*
X152841033Y-101408333D02*
X152441033Y-101708333D01*
X152141033Y-101408333D02*
X152541033Y-101808333D01*
X152207700Y-101141666D02*
X152174366Y-101108333D01*
X152174366Y-101108333D02*
X152141033Y-101041666D01*
X152141033Y-101041666D02*
X152141033Y-100875000D01*
X152141033Y-100875000D02*
X152174366Y-100808333D01*
X152174366Y-100808333D02*
X152207700Y-100775000D01*
X152207700Y-100775000D02*
X152274366Y-100741666D01*
X152274366Y-100741666D02*
X152341033Y-100741666D01*
X152341033Y-100741666D02*
X152441033Y-100775000D01*
X152441033Y-100775000D02*
X152841033Y-101175000D01*
X152841033Y-101175000D02*
X152841033Y-100741666D01*
X140912295Y-103090476D02*
X140912295Y-102595238D01*
X140912295Y-102595238D02*
X141217057Y-102861904D01*
X141217057Y-102861904D02*
X141217057Y-102747619D01*
X141217057Y-102747619D02*
X141255152Y-102671428D01*
X141255152Y-102671428D02*
X141293247Y-102633333D01*
X141293247Y-102633333D02*
X141369438Y-102595238D01*
X141369438Y-102595238D02*
X141559914Y-102595238D01*
X141559914Y-102595238D02*
X141636104Y-102633333D01*
X141636104Y-102633333D02*
X141674200Y-102671428D01*
X141674200Y-102671428D02*
X141712295Y-102747619D01*
X141712295Y-102747619D02*
X141712295Y-102976190D01*
X141712295Y-102976190D02*
X141674200Y-103052381D01*
X141674200Y-103052381D02*
X141636104Y-103090476D01*
X140912295Y-102366666D02*
X141712295Y-102099999D01*
X141712295Y-102099999D02*
X140912295Y-101833333D01*
X140912295Y-101642857D02*
X140912295Y-101147619D01*
X140912295Y-101147619D02*
X141217057Y-101414285D01*
X141217057Y-101414285D02*
X141217057Y-101300000D01*
X141217057Y-101300000D02*
X141255152Y-101223809D01*
X141255152Y-101223809D02*
X141293247Y-101185714D01*
X141293247Y-101185714D02*
X141369438Y-101147619D01*
X141369438Y-101147619D02*
X141559914Y-101147619D01*
X141559914Y-101147619D02*
X141636104Y-101185714D01*
X141636104Y-101185714D02*
X141674200Y-101223809D01*
X141674200Y-101223809D02*
X141712295Y-101300000D01*
X141712295Y-101300000D02*
X141712295Y-101528571D01*
X141712295Y-101528571D02*
X141674200Y-101604762D01*
X141674200Y-101604762D02*
X141636104Y-101642857D01*
X138400390Y-102634523D02*
X138362295Y-102710713D01*
X138362295Y-102710713D02*
X138362295Y-102824999D01*
X138362295Y-102824999D02*
X138400390Y-102939285D01*
X138400390Y-102939285D02*
X138476580Y-103015475D01*
X138476580Y-103015475D02*
X138552771Y-103053570D01*
X138552771Y-103053570D02*
X138705152Y-103091666D01*
X138705152Y-103091666D02*
X138819438Y-103091666D01*
X138819438Y-103091666D02*
X138971819Y-103053570D01*
X138971819Y-103053570D02*
X139048009Y-103015475D01*
X139048009Y-103015475D02*
X139124200Y-102939285D01*
X139124200Y-102939285D02*
X139162295Y-102824999D01*
X139162295Y-102824999D02*
X139162295Y-102748808D01*
X139162295Y-102748808D02*
X139124200Y-102634523D01*
X139124200Y-102634523D02*
X139086104Y-102596427D01*
X139086104Y-102596427D02*
X138819438Y-102596427D01*
X138819438Y-102596427D02*
X138819438Y-102748808D01*
X139162295Y-102253570D02*
X138362295Y-102253570D01*
X138362295Y-102253570D02*
X139162295Y-101796427D01*
X139162295Y-101796427D02*
X138362295Y-101796427D01*
X139162295Y-101415475D02*
X138362295Y-101415475D01*
X138362295Y-101415475D02*
X138362295Y-101224999D01*
X138362295Y-101224999D02*
X138400390Y-101110713D01*
X138400390Y-101110713D02*
X138476580Y-101034523D01*
X138476580Y-101034523D02*
X138552771Y-100996428D01*
X138552771Y-100996428D02*
X138705152Y-100958332D01*
X138705152Y-100958332D02*
X138819438Y-100958332D01*
X138819438Y-100958332D02*
X138971819Y-100996428D01*
X138971819Y-100996428D02*
X139048009Y-101034523D01*
X139048009Y-101034523D02*
X139124200Y-101110713D01*
X139124200Y-101110713D02*
X139162295Y-101224999D01*
X139162295Y-101224999D02*
X139162295Y-101415475D01*
X152809366Y-95820000D02*
X152842700Y-95853333D01*
X152842700Y-95853333D02*
X152876033Y-95953333D01*
X152876033Y-95953333D02*
X152876033Y-96020000D01*
X152876033Y-96020000D02*
X152842700Y-96120000D01*
X152842700Y-96120000D02*
X152776033Y-96186667D01*
X152776033Y-96186667D02*
X152709366Y-96220000D01*
X152709366Y-96220000D02*
X152576033Y-96253333D01*
X152576033Y-96253333D02*
X152476033Y-96253333D01*
X152476033Y-96253333D02*
X152342700Y-96220000D01*
X152342700Y-96220000D02*
X152276033Y-96186667D01*
X152276033Y-96186667D02*
X152209366Y-96120000D01*
X152209366Y-96120000D02*
X152176033Y-96020000D01*
X152176033Y-96020000D02*
X152176033Y-95953333D01*
X152176033Y-95953333D02*
X152209366Y-95853333D01*
X152209366Y-95853333D02*
X152242700Y-95820000D01*
X152876033Y-95186667D02*
X152876033Y-95520000D01*
X152876033Y-95520000D02*
X152176033Y-95520000D01*
X152876033Y-94953333D02*
X152176033Y-94953333D01*
X152876033Y-94553333D02*
X152476033Y-94853333D01*
X152176033Y-94553333D02*
X152576033Y-94953333D01*
X152876033Y-93886666D02*
X152876033Y-94286666D01*
X152876033Y-94086666D02*
X152176033Y-94086666D01*
X152176033Y-94086666D02*
X152276033Y-94153333D01*
X152276033Y-94153333D02*
X152342700Y-94220000D01*
X152342700Y-94220000D02*
X152376033Y-94286666D01*
X136790475Y-89224200D02*
X136904761Y-89262295D01*
X136904761Y-89262295D02*
X137095237Y-89262295D01*
X137095237Y-89262295D02*
X137171428Y-89224200D01*
X137171428Y-89224200D02*
X137209523Y-89186104D01*
X137209523Y-89186104D02*
X137247618Y-89109914D01*
X137247618Y-89109914D02*
X137247618Y-89033723D01*
X137247618Y-89033723D02*
X137209523Y-88957533D01*
X137209523Y-88957533D02*
X137171428Y-88919438D01*
X137171428Y-88919438D02*
X137095237Y-88881342D01*
X137095237Y-88881342D02*
X136942856Y-88843247D01*
X136942856Y-88843247D02*
X136866666Y-88805152D01*
X136866666Y-88805152D02*
X136828571Y-88767057D01*
X136828571Y-88767057D02*
X136790475Y-88690866D01*
X136790475Y-88690866D02*
X136790475Y-88614676D01*
X136790475Y-88614676D02*
X136828571Y-88538485D01*
X136828571Y-88538485D02*
X136866666Y-88500390D01*
X136866666Y-88500390D02*
X136942856Y-88462295D01*
X136942856Y-88462295D02*
X137133333Y-88462295D01*
X137133333Y-88462295D02*
X137247618Y-88500390D01*
X137742857Y-88462295D02*
X137819047Y-88462295D01*
X137819047Y-88462295D02*
X137895238Y-88500390D01*
X137895238Y-88500390D02*
X137933333Y-88538485D01*
X137933333Y-88538485D02*
X137971428Y-88614676D01*
X137971428Y-88614676D02*
X138009523Y-88767057D01*
X138009523Y-88767057D02*
X138009523Y-88957533D01*
X138009523Y-88957533D02*
X137971428Y-89109914D01*
X137971428Y-89109914D02*
X137933333Y-89186104D01*
X137933333Y-89186104D02*
X137895238Y-89224200D01*
X137895238Y-89224200D02*
X137819047Y-89262295D01*
X137819047Y-89262295D02*
X137742857Y-89262295D01*
X137742857Y-89262295D02*
X137666666Y-89224200D01*
X137666666Y-89224200D02*
X137628571Y-89186104D01*
X137628571Y-89186104D02*
X137590476Y-89109914D01*
X137590476Y-89109914D02*
X137552380Y-88957533D01*
X137552380Y-88957533D02*
X137552380Y-88767057D01*
X137552380Y-88767057D02*
X137590476Y-88614676D01*
X137590476Y-88614676D02*
X137628571Y-88538485D01*
X137628571Y-88538485D02*
X137666666Y-88500390D01*
X137666666Y-88500390D02*
X137742857Y-88462295D01*
X138412295Y-99652380D02*
X138412295Y-100033332D01*
X138412295Y-100033332D02*
X138793247Y-100071428D01*
X138793247Y-100071428D02*
X138755152Y-100033332D01*
X138755152Y-100033332D02*
X138717057Y-99957142D01*
X138717057Y-99957142D02*
X138717057Y-99766666D01*
X138717057Y-99766666D02*
X138755152Y-99690475D01*
X138755152Y-99690475D02*
X138793247Y-99652380D01*
X138793247Y-99652380D02*
X138869438Y-99614285D01*
X138869438Y-99614285D02*
X139059914Y-99614285D01*
X139059914Y-99614285D02*
X139136104Y-99652380D01*
X139136104Y-99652380D02*
X139174200Y-99690475D01*
X139174200Y-99690475D02*
X139212295Y-99766666D01*
X139212295Y-99766666D02*
X139212295Y-99957142D01*
X139212295Y-99957142D02*
X139174200Y-100033332D01*
X139174200Y-100033332D02*
X139136104Y-100071428D01*
X138412295Y-99385713D02*
X139212295Y-99119046D01*
X139212295Y-99119046D02*
X138412295Y-98852380D01*
X141550000Y-98612628D02*
X141521428Y-98641200D01*
X141521428Y-98641200D02*
X141435714Y-98669771D01*
X141435714Y-98669771D02*
X141378571Y-98669771D01*
X141378571Y-98669771D02*
X141292857Y-98641200D01*
X141292857Y-98641200D02*
X141235714Y-98584057D01*
X141235714Y-98584057D02*
X141207143Y-98526914D01*
X141207143Y-98526914D02*
X141178571Y-98412628D01*
X141178571Y-98412628D02*
X141178571Y-98326914D01*
X141178571Y-98326914D02*
X141207143Y-98212628D01*
X141207143Y-98212628D02*
X141235714Y-98155485D01*
X141235714Y-98155485D02*
X141292857Y-98098342D01*
X141292857Y-98098342D02*
X141378571Y-98069771D01*
X141378571Y-98069771D02*
X141435714Y-98069771D01*
X141435714Y-98069771D02*
X141521428Y-98098342D01*
X141521428Y-98098342D02*
X141550000Y-98126914D01*
X142121428Y-98669771D02*
X141778571Y-98669771D01*
X141950000Y-98669771D02*
X141950000Y-98069771D01*
X141950000Y-98069771D02*
X141892857Y-98155485D01*
X141892857Y-98155485D02*
X141835714Y-98212628D01*
X141835714Y-98212628D02*
X141778571Y-98241200D01*
X141212628Y-95999999D02*
X141241200Y-96028571D01*
X141241200Y-96028571D02*
X141269771Y-96114285D01*
X141269771Y-96114285D02*
X141269771Y-96171428D01*
X141269771Y-96171428D02*
X141241200Y-96257142D01*
X141241200Y-96257142D02*
X141184057Y-96314285D01*
X141184057Y-96314285D02*
X141126914Y-96342856D01*
X141126914Y-96342856D02*
X141012628Y-96371428D01*
X141012628Y-96371428D02*
X140926914Y-96371428D01*
X140926914Y-96371428D02*
X140812628Y-96342856D01*
X140812628Y-96342856D02*
X140755485Y-96314285D01*
X140755485Y-96314285D02*
X140698342Y-96257142D01*
X140698342Y-96257142D02*
X140669771Y-96171428D01*
X140669771Y-96171428D02*
X140669771Y-96114285D01*
X140669771Y-96114285D02*
X140698342Y-96028571D01*
X140698342Y-96028571D02*
X140726914Y-95999999D01*
X140726914Y-95771428D02*
X140698342Y-95742856D01*
X140698342Y-95742856D02*
X140669771Y-95685714D01*
X140669771Y-95685714D02*
X140669771Y-95542856D01*
X140669771Y-95542856D02*
X140698342Y-95485714D01*
X140698342Y-95485714D02*
X140726914Y-95457142D01*
X140726914Y-95457142D02*
X140784057Y-95428571D01*
X140784057Y-95428571D02*
X140841200Y-95428571D01*
X140841200Y-95428571D02*
X140926914Y-95457142D01*
X140926914Y-95457142D02*
X141269771Y-95799999D01*
X141269771Y-95799999D02*
X141269771Y-95428571D01*
X141212628Y-91849999D02*
X141241200Y-91878571D01*
X141241200Y-91878571D02*
X141269771Y-91964285D01*
X141269771Y-91964285D02*
X141269771Y-92021428D01*
X141269771Y-92021428D02*
X141241200Y-92107142D01*
X141241200Y-92107142D02*
X141184057Y-92164285D01*
X141184057Y-92164285D02*
X141126914Y-92192856D01*
X141126914Y-92192856D02*
X141012628Y-92221428D01*
X141012628Y-92221428D02*
X140926914Y-92221428D01*
X140926914Y-92221428D02*
X140812628Y-92192856D01*
X140812628Y-92192856D02*
X140755485Y-92164285D01*
X140755485Y-92164285D02*
X140698342Y-92107142D01*
X140698342Y-92107142D02*
X140669771Y-92021428D01*
X140669771Y-92021428D02*
X140669771Y-91964285D01*
X140669771Y-91964285D02*
X140698342Y-91878571D01*
X140698342Y-91878571D02*
X140726914Y-91849999D01*
X140669771Y-91649999D02*
X140669771Y-91278571D01*
X140669771Y-91278571D02*
X140898342Y-91478571D01*
X140898342Y-91478571D02*
X140898342Y-91392856D01*
X140898342Y-91392856D02*
X140926914Y-91335714D01*
X140926914Y-91335714D02*
X140955485Y-91307142D01*
X140955485Y-91307142D02*
X141012628Y-91278571D01*
X141012628Y-91278571D02*
X141155485Y-91278571D01*
X141155485Y-91278571D02*
X141212628Y-91307142D01*
X141212628Y-91307142D02*
X141241200Y-91335714D01*
X141241200Y-91335714D02*
X141269771Y-91392856D01*
X141269771Y-91392856D02*
X141269771Y-91564285D01*
X141269771Y-91564285D02*
X141241200Y-91621428D01*
X141241200Y-91621428D02*
X141212628Y-91649999D01*
X141369771Y-89149999D02*
X141084057Y-89349999D01*
X141369771Y-89492856D02*
X140769771Y-89492856D01*
X140769771Y-89492856D02*
X140769771Y-89264285D01*
X140769771Y-89264285D02*
X140798342Y-89207142D01*
X140798342Y-89207142D02*
X140826914Y-89178571D01*
X140826914Y-89178571D02*
X140884057Y-89149999D01*
X140884057Y-89149999D02*
X140969771Y-89149999D01*
X140969771Y-89149999D02*
X141026914Y-89178571D01*
X141026914Y-89178571D02*
X141055485Y-89207142D01*
X141055485Y-89207142D02*
X141084057Y-89264285D01*
X141084057Y-89264285D02*
X141084057Y-89492856D01*
X141369771Y-88578571D02*
X141369771Y-88921428D01*
X141369771Y-88749999D02*
X140769771Y-88749999D01*
X140769771Y-88749999D02*
X140855485Y-88807142D01*
X140855485Y-88807142D02*
X140912628Y-88864285D01*
X140912628Y-88864285D02*
X140941200Y-88921428D01*
X141369771Y-94474999D02*
X141084057Y-94674999D01*
X141369771Y-94817856D02*
X140769771Y-94817856D01*
X140769771Y-94817856D02*
X140769771Y-94589285D01*
X140769771Y-94589285D02*
X140798342Y-94532142D01*
X140798342Y-94532142D02*
X140826914Y-94503571D01*
X140826914Y-94503571D02*
X140884057Y-94474999D01*
X140884057Y-94474999D02*
X140969771Y-94474999D01*
X140969771Y-94474999D02*
X141026914Y-94503571D01*
X141026914Y-94503571D02*
X141055485Y-94532142D01*
X141055485Y-94532142D02*
X141084057Y-94589285D01*
X141084057Y-94589285D02*
X141084057Y-94817856D01*
X140826914Y-94246428D02*
X140798342Y-94217856D01*
X140798342Y-94217856D02*
X140769771Y-94160714D01*
X140769771Y-94160714D02*
X140769771Y-94017856D01*
X140769771Y-94017856D02*
X140798342Y-93960714D01*
X140798342Y-93960714D02*
X140826914Y-93932142D01*
X140826914Y-93932142D02*
X140884057Y-93903571D01*
X140884057Y-93903571D02*
X140941200Y-93903571D01*
X140941200Y-93903571D02*
X141026914Y-93932142D01*
X141026914Y-93932142D02*
X141369771Y-94274999D01*
X141369771Y-94274999D02*
X141369771Y-93903571D01*
X154694771Y-98474999D02*
X154409057Y-98674999D01*
X154694771Y-98817856D02*
X154094771Y-98817856D01*
X154094771Y-98817856D02*
X154094771Y-98589285D01*
X154094771Y-98589285D02*
X154123342Y-98532142D01*
X154123342Y-98532142D02*
X154151914Y-98503571D01*
X154151914Y-98503571D02*
X154209057Y-98474999D01*
X154209057Y-98474999D02*
X154294771Y-98474999D01*
X154294771Y-98474999D02*
X154351914Y-98503571D01*
X154351914Y-98503571D02*
X154380485Y-98532142D01*
X154380485Y-98532142D02*
X154409057Y-98589285D01*
X154409057Y-98589285D02*
X154409057Y-98817856D01*
X154094771Y-98274999D02*
X154094771Y-97903571D01*
X154094771Y-97903571D02*
X154323342Y-98103571D01*
X154323342Y-98103571D02*
X154323342Y-98017856D01*
X154323342Y-98017856D02*
X154351914Y-97960714D01*
X154351914Y-97960714D02*
X154380485Y-97932142D01*
X154380485Y-97932142D02*
X154437628Y-97903571D01*
X154437628Y-97903571D02*
X154580485Y-97903571D01*
X154580485Y-97903571D02*
X154637628Y-97932142D01*
X154637628Y-97932142D02*
X154666200Y-97960714D01*
X154666200Y-97960714D02*
X154694771Y-98017856D01*
X154694771Y-98017856D02*
X154694771Y-98189285D01*
X154694771Y-98189285D02*
X154666200Y-98246428D01*
X154666200Y-98246428D02*
X154637628Y-98274999D01*
X154794771Y-100049999D02*
X154509057Y-100249999D01*
X154794771Y-100392856D02*
X154194771Y-100392856D01*
X154194771Y-100392856D02*
X154194771Y-100164285D01*
X154194771Y-100164285D02*
X154223342Y-100107142D01*
X154223342Y-100107142D02*
X154251914Y-100078571D01*
X154251914Y-100078571D02*
X154309057Y-100049999D01*
X154309057Y-100049999D02*
X154394771Y-100049999D01*
X154394771Y-100049999D02*
X154451914Y-100078571D01*
X154451914Y-100078571D02*
X154480485Y-100107142D01*
X154480485Y-100107142D02*
X154509057Y-100164285D01*
X154509057Y-100164285D02*
X154509057Y-100392856D01*
X154394771Y-99535714D02*
X154794771Y-99535714D01*
X154166200Y-99678571D02*
X154594771Y-99821428D01*
X154594771Y-99821428D02*
X154594771Y-99449999D01*
X140669771Y-93457142D02*
X141155485Y-93457142D01*
X141155485Y-93457142D02*
X141212628Y-93428571D01*
X141212628Y-93428571D02*
X141241200Y-93400000D01*
X141241200Y-93400000D02*
X141269771Y-93342857D01*
X141269771Y-93342857D02*
X141269771Y-93228571D01*
X141269771Y-93228571D02*
X141241200Y-93171428D01*
X141241200Y-93171428D02*
X141212628Y-93142857D01*
X141212628Y-93142857D02*
X141155485Y-93114285D01*
X141155485Y-93114285D02*
X140669771Y-93114285D01*
X141269771Y-92514286D02*
X141269771Y-92857143D01*
X141269771Y-92685714D02*
X140669771Y-92685714D01*
X140669771Y-92685714D02*
X140755485Y-92742857D01*
X140755485Y-92742857D02*
X140812628Y-92800000D01*
X140812628Y-92800000D02*
X140841200Y-92857143D01*
X143769771Y-95157142D02*
X144255485Y-95157142D01*
X144255485Y-95157142D02*
X144312628Y-95128571D01*
X144312628Y-95128571D02*
X144341200Y-95100000D01*
X144341200Y-95100000D02*
X144369771Y-95042857D01*
X144369771Y-95042857D02*
X144369771Y-94928571D01*
X144369771Y-94928571D02*
X144341200Y-94871428D01*
X144341200Y-94871428D02*
X144312628Y-94842857D01*
X144312628Y-94842857D02*
X144255485Y-94814285D01*
X144255485Y-94814285D02*
X143769771Y-94814285D01*
X143826914Y-94557143D02*
X143798342Y-94528571D01*
X143798342Y-94528571D02*
X143769771Y-94471429D01*
X143769771Y-94471429D02*
X143769771Y-94328571D01*
X143769771Y-94328571D02*
X143798342Y-94271429D01*
X143798342Y-94271429D02*
X143826914Y-94242857D01*
X143826914Y-94242857D02*
X143884057Y-94214286D01*
X143884057Y-94214286D02*
X143941200Y-94214286D01*
X143941200Y-94214286D02*
X144026914Y-94242857D01*
X144026914Y-94242857D02*
X144369771Y-94585714D01*
X144369771Y-94585714D02*
X144369771Y-94214286D01*
X141966667Y-92982700D02*
X141966667Y-93316033D01*
X141733333Y-92616033D02*
X141966667Y-92982700D01*
X141966667Y-92982700D02*
X142200000Y-92616033D01*
X142800000Y-93316033D02*
X142400000Y-93316033D01*
X142600000Y-93316033D02*
X142600000Y-92616033D01*
X142600000Y-92616033D02*
X142533333Y-92716033D01*
X142533333Y-92716033D02*
X142466667Y-92782700D01*
X142466667Y-92782700D02*
X142400000Y-92816033D01*
X152212628Y-100049999D02*
X152241200Y-100078571D01*
X152241200Y-100078571D02*
X152269771Y-100164285D01*
X152269771Y-100164285D02*
X152269771Y-100221428D01*
X152269771Y-100221428D02*
X152241200Y-100307142D01*
X152241200Y-100307142D02*
X152184057Y-100364285D01*
X152184057Y-100364285D02*
X152126914Y-100392856D01*
X152126914Y-100392856D02*
X152012628Y-100421428D01*
X152012628Y-100421428D02*
X151926914Y-100421428D01*
X151926914Y-100421428D02*
X151812628Y-100392856D01*
X151812628Y-100392856D02*
X151755485Y-100364285D01*
X151755485Y-100364285D02*
X151698342Y-100307142D01*
X151698342Y-100307142D02*
X151669771Y-100221428D01*
X151669771Y-100221428D02*
X151669771Y-100164285D01*
X151669771Y-100164285D02*
X151698342Y-100078571D01*
X151698342Y-100078571D02*
X151726914Y-100049999D01*
X151869771Y-99535714D02*
X152269771Y-99535714D01*
X151641200Y-99678571D02*
X152069771Y-99821428D01*
X152069771Y-99821428D02*
X152069771Y-99449999D01*
X136692857Y-97869771D02*
X136692857Y-98355485D01*
X136692857Y-98355485D02*
X136721428Y-98412628D01*
X136721428Y-98412628D02*
X136750000Y-98441200D01*
X136750000Y-98441200D02*
X136807142Y-98469771D01*
X136807142Y-98469771D02*
X136921428Y-98469771D01*
X136921428Y-98469771D02*
X136978571Y-98441200D01*
X136978571Y-98441200D02*
X137007142Y-98412628D01*
X137007142Y-98412628D02*
X137035714Y-98355485D01*
X137035714Y-98355485D02*
X137035714Y-97869771D01*
X137264285Y-97869771D02*
X137635713Y-97869771D01*
X137635713Y-97869771D02*
X137435713Y-98098342D01*
X137435713Y-98098342D02*
X137521428Y-98098342D01*
X137521428Y-98098342D02*
X137578571Y-98126914D01*
X137578571Y-98126914D02*
X137607142Y-98155485D01*
X137607142Y-98155485D02*
X137635713Y-98212628D01*
X137635713Y-98212628D02*
X137635713Y-98355485D01*
X137635713Y-98355485D02*
X137607142Y-98412628D01*
X137607142Y-98412628D02*
X137578571Y-98441200D01*
X137578571Y-98441200D02*
X137521428Y-98469771D01*
X137521428Y-98469771D02*
X137349999Y-98469771D01*
X137349999Y-98469771D02*
X137292856Y-98441200D01*
X137292856Y-98441200D02*
X137264285Y-98412628D01*
X141162628Y-100549999D02*
X141191200Y-100578571D01*
X141191200Y-100578571D02*
X141219771Y-100664285D01*
X141219771Y-100664285D02*
X141219771Y-100721428D01*
X141219771Y-100721428D02*
X141191200Y-100807142D01*
X141191200Y-100807142D02*
X141134057Y-100864285D01*
X141134057Y-100864285D02*
X141076914Y-100892856D01*
X141076914Y-100892856D02*
X140962628Y-100921428D01*
X140962628Y-100921428D02*
X140876914Y-100921428D01*
X140876914Y-100921428D02*
X140762628Y-100892856D01*
X140762628Y-100892856D02*
X140705485Y-100864285D01*
X140705485Y-100864285D02*
X140648342Y-100807142D01*
X140648342Y-100807142D02*
X140619771Y-100721428D01*
X140619771Y-100721428D02*
X140619771Y-100664285D01*
X140619771Y-100664285D02*
X140648342Y-100578571D01*
X140648342Y-100578571D02*
X140676914Y-100549999D01*
X140619771Y-100007142D02*
X140619771Y-100292856D01*
X140619771Y-100292856D02*
X140905485Y-100321428D01*
X140905485Y-100321428D02*
X140876914Y-100292856D01*
X140876914Y-100292856D02*
X140848342Y-100235714D01*
X140848342Y-100235714D02*
X140848342Y-100092856D01*
X140848342Y-100092856D02*
X140876914Y-100035714D01*
X140876914Y-100035714D02*
X140905485Y-100007142D01*
X140905485Y-100007142D02*
X140962628Y-99978571D01*
X140962628Y-99978571D02*
X141105485Y-99978571D01*
X141105485Y-99978571D02*
X141162628Y-100007142D01*
X141162628Y-100007142D02*
X141191200Y-100035714D01*
X141191200Y-100035714D02*
X141219771Y-100092856D01*
X141219771Y-100092856D02*
X141219771Y-100235714D01*
X141219771Y-100235714D02*
X141191200Y-100292856D01*
X141191200Y-100292856D02*
X141162628Y-100321428D01*
X144212628Y-97299999D02*
X144241200Y-97328571D01*
X144241200Y-97328571D02*
X144269771Y-97414285D01*
X144269771Y-97414285D02*
X144269771Y-97471428D01*
X144269771Y-97471428D02*
X144241200Y-97557142D01*
X144241200Y-97557142D02*
X144184057Y-97614285D01*
X144184057Y-97614285D02*
X144126914Y-97642856D01*
X144126914Y-97642856D02*
X144012628Y-97671428D01*
X144012628Y-97671428D02*
X143926914Y-97671428D01*
X143926914Y-97671428D02*
X143812628Y-97642856D01*
X143812628Y-97642856D02*
X143755485Y-97614285D01*
X143755485Y-97614285D02*
X143698342Y-97557142D01*
X143698342Y-97557142D02*
X143669771Y-97471428D01*
X143669771Y-97471428D02*
X143669771Y-97414285D01*
X143669771Y-97414285D02*
X143698342Y-97328571D01*
X143698342Y-97328571D02*
X143726914Y-97299999D01*
X143669771Y-96785714D02*
X143669771Y-96899999D01*
X143669771Y-96899999D02*
X143698342Y-96957142D01*
X143698342Y-96957142D02*
X143726914Y-96985714D01*
X143726914Y-96985714D02*
X143812628Y-97042856D01*
X143812628Y-97042856D02*
X143926914Y-97071428D01*
X143926914Y-97071428D02*
X144155485Y-97071428D01*
X144155485Y-97071428D02*
X144212628Y-97042856D01*
X144212628Y-97042856D02*
X144241200Y-97014285D01*
X144241200Y-97014285D02*
X144269771Y-96957142D01*
X144269771Y-96957142D02*
X144269771Y-96842856D01*
X144269771Y-96842856D02*
X144241200Y-96785714D01*
X144241200Y-96785714D02*
X144212628Y-96757142D01*
X144212628Y-96757142D02*
X144155485Y-96728571D01*
X144155485Y-96728571D02*
X144012628Y-96728571D01*
X144012628Y-96728571D02*
X143955485Y-96757142D01*
X143955485Y-96757142D02*
X143926914Y-96785714D01*
X143926914Y-96785714D02*
X143898342Y-96842856D01*
X143898342Y-96842856D02*
X143898342Y-96957142D01*
X143898342Y-96957142D02*
X143926914Y-97014285D01*
X143926914Y-97014285D02*
X143955485Y-97042856D01*
X143955485Y-97042856D02*
X144012628Y-97071428D01*
D11*
%TO.C,C1*%
X142300000Y-98675000D02*
X143000000Y-98675000D01*
X143000000Y-99875000D02*
X142300000Y-99875000D01*
%TO.C,C2*%
X142250000Y-95300000D02*
X142950000Y-95300000D01*
X142950000Y-96500000D02*
X142250000Y-96500000D01*
%TO.C,C3*%
X139500000Y-89850000D02*
X140200000Y-89850000D01*
X140200000Y-91050000D02*
X139500000Y-91050000D01*
%TO.C,R1*%
X139200000Y-88370000D02*
X140200000Y-88370000D01*
X140200000Y-89730000D02*
X139200000Y-89730000D01*
%TO.C,R2*%
X142100000Y-93695000D02*
X143100000Y-93695000D01*
X143100000Y-95055000D02*
X142100000Y-95055000D01*
%TO.C,R3*%
X153050000Y-96395000D02*
X154050000Y-96395000D01*
X154050000Y-97755000D02*
X153050000Y-97755000D01*
%TO.C,R4*%
X152545000Y-99775000D02*
X152545000Y-98775000D01*
X153905000Y-98775000D02*
X153905000Y-99775000D01*
%TO.C,U1*%
X138600000Y-91290000D02*
X137800000Y-91290000D01*
X138600000Y-91290000D02*
X139400000Y-91290000D01*
X138600000Y-94410000D02*
X137800000Y-94410000D01*
X138600000Y-94410000D02*
X139400000Y-94410000D01*
X137300000Y-91340000D02*
X137060000Y-91010000D01*
X137540000Y-91010000D01*
X137300000Y-91340000D01*
G36*
X137300000Y-91340000D02*
G01*
X137060000Y-91010000D01*
X137540000Y-91010000D01*
X137300000Y-91340000D01*
G37*
D10*
%TO.C,U2*%
X144450000Y-94050000D02*
X150425000Y-94050000D01*
X146025000Y-99575000D02*
X150425000Y-99575000D01*
D11*
%TO.C,Y1*%
X141500000Y-88525000D02*
X141500000Y-93625000D01*
X141500000Y-93625000D02*
X154100000Y-93625000D01*
X154100000Y-88525000D02*
X141500000Y-88525000D01*
%TO.C,J2*%
X141940000Y-102660000D02*
X141940000Y-101600000D01*
X143000000Y-102660000D02*
X141940000Y-102660000D01*
X144000000Y-100540000D02*
X150060000Y-100540000D01*
X144000000Y-102660000D02*
X144000000Y-100540000D01*
X144000000Y-102660000D02*
X150060000Y-102660000D01*
X150060000Y-102660000D02*
X150060000Y-100540000D01*
%TO.C,C4*%
X150575000Y-101700000D02*
X150575000Y-101000000D01*
X151775000Y-101000000D02*
X151775000Y-101700000D01*
%TO.C,U3*%
X138600000Y-94690000D02*
X137800000Y-94690000D01*
X138600000Y-94690000D02*
X139400000Y-94690000D01*
X138600000Y-97810000D02*
X137800000Y-97810000D01*
X138600000Y-97810000D02*
X139400000Y-97810000D01*
X137300000Y-94740000D02*
X137060000Y-94410000D01*
X137540000Y-94410000D01*
X137300000Y-94740000D01*
G36*
X137300000Y-94740000D02*
G01*
X137060000Y-94410000D01*
X137540000Y-94410000D01*
X137300000Y-94740000D01*
G37*
%TO.C,C5*%
X139400000Y-99750000D02*
X139400000Y-99050000D01*
X140600000Y-99050000D02*
X140600000Y-99750000D01*
%TO.C,C6*%
X142050000Y-96700000D02*
X142750000Y-96700000D01*
X142750000Y-97900000D02*
X142050000Y-97900000D01*
%TD*%
M02*
