%TF.GenerationSoftware,KiCad,Pcbnew,9.0.6*%
%TF.CreationDate,2026-05-15T22:45:14-04:00*%
%TF.ProjectId,mfo,6d666f2e-6b69-4636-9164-5f7063625858,rev?*%
%TF.SameCoordinates,Original*%
%TF.FileFunction,Soldermask,Top*%
%TF.FilePolarity,Negative*%
%FSLAX46Y46*%
G04 Gerber Fmt 4.6, Leading zero omitted, Abs format (unit mm)*
G04 Created by KiCad (PCBNEW 9.0.6) date 2026-05-15 22:45:14*
%MOMM*%
%LPD*%
G01*
G04 APERTURE LIST*
G04 Aperture macros list*
%AMRoundRect*
0 Rectangle with rounded corners*
0 $1 Rounding radius*
0 $2 $3 $4 $5 $6 $7 $8 $9 X,Y pos of 4 corners*
0 Add a 4 corners polygon primitive as box body*
4,1,4,$2,$3,$4,$5,$6,$7,$8,$9,$2,$3,0*
0 Add four circle primitives for the rounded corners*
1,1,$1+$1,$2,$3*
1,1,$1+$1,$4,$5*
1,1,$1+$1,$6,$7*
1,1,$1+$1,$8,$9*
0 Add four rect primitives between the rounded corners*
20,1,$1+$1,$2,$3,$4,$5,0*
20,1,$1+$1,$4,$5,$6,$7,0*
20,1,$1+$1,$6,$7,$8,$9,0*
20,1,$1+$1,$8,$9,$2,$3,0*%
%AMFreePoly0*
4,1,33,0.217714,0.717705,0.353548,0.661441,0.475795,0.579758,0.579758,0.475795,0.661441,0.353548,0.717705,0.217714,0.746389,0.073513,0.746389,-0.073513,0.717705,-0.217714,0.661441,-0.353548,0.579758,-0.475795,0.475795,-0.579758,0.353548,-0.661441,0.217714,-0.717705,0.073513,-0.746389,-0.073513,-0.746389,-0.217714,-0.717705,-0.353548,-0.661441,-0.475795,-0.579758,-0.579758,-0.475795,
-0.661441,-0.353548,-0.717705,-0.217714,-0.746389,-0.073513,-0.746389,0.073513,-0.717705,0.217714,-0.661441,0.353548,-0.579758,0.475795,-0.475795,0.579758,-0.353548,0.661441,-0.217714,0.717705,-0.073513,0.746389,0.073513,0.746389,0.217714,0.717705,0.217714,0.717705,$1*%
G04 Aperture macros list end*
%ADD10R,0.800000X0.750000*%
%ADD11R,0.500000X0.900000*%
%ADD12R,0.900000X0.500000*%
%ADD13RoundRect,0.150000X-0.512500X-0.150000X0.512500X-0.150000X0.512500X0.150000X-0.512500X0.150000X0*%
%ADD14R,1.500000X0.450000*%
%ADD15R,4.500000X2.000000*%
%ADD16C,1.500000*%
%ADD17R,1.350000X1.350000*%
%ADD18O,1.350000X1.350000*%
%ADD19O,1.500000X1.500000*%
%ADD20R,1.500000X1.500000*%
%ADD21FreePoly0,0.000000*%
%ADD22R,0.750000X0.800000*%
G04 APERTURE END LIST*
D10*
%TO.C,C1*%
X143400000Y-99275000D03*
X141900000Y-99275000D03*
%TD*%
%TO.C,C2*%
X141850000Y-95900000D03*
X143350000Y-95900000D03*
%TD*%
%TO.C,C3*%
X139100000Y-90450000D03*
X140600000Y-90450000D03*
%TD*%
D11*
%TO.C,R1*%
X138950000Y-89050000D03*
X140450000Y-89050000D03*
%TD*%
%TO.C,R2*%
X143350000Y-94375000D03*
X141850000Y-94375000D03*
%TD*%
%TO.C,R3*%
X154300000Y-97075000D03*
X152800000Y-97075000D03*
%TD*%
D12*
%TO.C,R4*%
X153225000Y-100025000D03*
X153225000Y-98525000D03*
%TD*%
D13*
%TO.C,U1*%
X137462500Y-91900000D03*
X137462500Y-92850000D03*
X137462500Y-93800000D03*
X139737500Y-93800000D03*
X139737500Y-91900000D03*
%TD*%
D14*
%TO.C,U2*%
X145275000Y-94575000D03*
X145275000Y-95225000D03*
X145275000Y-95875000D03*
X145275000Y-96525000D03*
X145275000Y-97175000D03*
X145275000Y-97825000D03*
X145275000Y-98475000D03*
X145275000Y-99125000D03*
X151175000Y-99125000D03*
X151175000Y-98475000D03*
X151175000Y-97825000D03*
X151175000Y-97175000D03*
X151175000Y-96525000D03*
X151175000Y-95875000D03*
X151175000Y-95225000D03*
X151175000Y-94575000D03*
%TD*%
D15*
%TO.C,Y1*%
X143950000Y-91075000D03*
D16*
X145750000Y-91075000D03*
X150650000Y-91075000D03*
D15*
X152450000Y-91075000D03*
%TD*%
D17*
%TO.C,J2*%
X143000000Y-101600000D03*
D18*
X145000000Y-101600000D03*
X147000000Y-101600000D03*
X149000000Y-101600000D03*
%TD*%
D19*
%TO.C,J1*%
X137450000Y-90100000D03*
%TD*%
%TO.C,J3*%
X140000000Y-102075000D03*
%TD*%
D20*
%TO.C,J4*%
X137500000Y-102075000D03*
%TD*%
D19*
%TO.C,J5*%
X153750000Y-94975000D03*
%TD*%
D21*
%TO.C,J6*%
X153750000Y-102100000D03*
%TD*%
D22*
%TO.C,C4*%
X151175000Y-100600000D03*
X151175000Y-102100000D03*
%TD*%
D13*
%TO.C,U3*%
X137462500Y-95300000D03*
X137462500Y-96250000D03*
X137462500Y-97200000D03*
X139737500Y-97200000D03*
X139737500Y-95300000D03*
%TD*%
D22*
%TO.C,C5*%
X140000000Y-98650000D03*
X140000000Y-100150000D03*
%TD*%
D19*
%TO.C,J7*%
X137500000Y-99500000D03*
%TD*%
D10*
%TO.C,C6*%
X141650000Y-97300000D03*
X143150000Y-97300000D03*
%TD*%
M02*
